<?xml version="1.0" encoding="utf-8"?>
<!DOCTYPE svg PUBLIC "-//W3C//DTD SVG 1.1//EN" "http://www.w3.org/Graphics/SVG/1.1/DTD/svg11.dtd">
<svg version="1.1" xmlns="http://www.w3.org/2000/svg" xmlns:xlink="http://www.w3.org/1999/xlink" xmlns:ev="http://www.w3.org/2001/xml-events" width="800.0px" height="480.0px" overflow="visible" viewBox="0.0 0.0 800.0 480.0" enable-background="new 0.0 0.0 800.0 480.0">
	<defs>
		<linearGradient id="Grad1" gradientUnits="userSpaceOnUse" gradientTransform="matrix(0.0 0.0178833 -0.01826477 0.0 468.95 300.0)" x1="-819.2" y1="0" x2="819.2" y2="0">
			<stop offset="0.0" stop-color="#FFFFFF"/>
			<stop offset="1.0" stop-color="#71CA35"/>
		</linearGradient>
		<linearGradient id="Grad2" gradientUnits="userSpaceOnUse" gradientTransform="matrix(0.0 -0.0178833 -0.01826477 0.0 539.0 300.0)" x1="-819.2" y1="0" x2="819.2" y2="0">
			<stop offset="0.0" stop-color="#FFFFFF"/>
			<stop offset="1.0" stop-color="#CE3131"/>
		</linearGradient>
		<linearGradient id="Grad3" gradientUnits="userSpaceOnUse" gradientTransform="matrix(0.0 -0.06958008 -0.06338501 0.0 213.65 189.4)" x1="-819.2" y1="0" x2="819.2" y2="0">
			<stop offset="0.0" stop-color="#FFFFFF"/>
			<stop offset="1.0" stop-color="#FFFFFF" stop-opacity="0.0"/>
		</linearGradient>
		<linearGradient id="Grad4" gradientUnits="userSpaceOnUse" gradientTransform="matrix(0.0 -0.10986328 0.10269165 0.0 454.9 106.45)" x1="-819.2" y1="0" x2="819.2" y2="0">
			<stop offset="0.0" stop-color="#5E3F6B"/>
			<stop offset="1.0" stop-color="#583D65"/>
		</linearGradient>
	</defs>
	<rect width="800.0px" height="480.0px" x="0px" y="0px" fill="#5E3F6B"/>
	<g>
		<g transform="matrix(-1.0033417 0.0 0.0 1.0067139 320.65 407.95)">
			<g transform="matrix(1.0 0.0 0.0 1.0 0.0 0.0)">
				<path fill="#CCCCCC" stroke-linecap="round" stroke-linejoin="round" d="M -11.9 -11.75 L -8.95 -35.45 L -8.4 -36.7 C -8.066667 -37.033333 -7.6833334 -37.2 -7.25 -37.2 L 7.3 -37.2 C 7.733333 -37.2 8.099999 -37.033333 8.4 -36.7 C 8.733333 -36.36667 8.933332 -35.95 9.0 -35.45 L 12.0 -11.75 L 11.9 -11.65 L 10.35 -10.5 L 7.3 -35.2 L -4.0 -35.2 L -7.1 -10.5 L -8.65 -11.75 L -8.8 -11.65 L -8.9 -11.75 L -9.05 -11.65 L -9.15 -11.75 L -9.3 -11.65 L -9.4 -11.75 L -9.55 -11.65 L -9.65 -11.75 L -9.8 -11.65 L -9.9 -11.75 L -10.15 -11.55 L -10.4 -11.75 L -10.55 -11.65 L -10.65 -11.75 L -10.8 -11.65 L -10.9 -11.75 L -11.05 -11.65 L -11.15 -11.75 L -11.3 -11.65 L -11.4 -11.75 L -11.55 -11.65 L -11.65 -11.75 L -11.8 -11.65 L -11.9 -11.75 Z M 8.4 36.3 L 7.8 37.0 L 6.95 37.25 L 5.4 37.25 L 5.4 35.25 L 6.95 35.25 L 12.35 25.2 L 13.45 27.0 L 8.4 36.3 Z M 13.45 27.0 L 13.45 27.05 Z M -2.15 37.25 L -6.9 37.25 L -7.75 37.0 L -8.4 36.3 L -13.45 27.05 L -13.2 27.05 L -12.95 27.05 L -12.7 27.05 L -12.45 27.05 L -12.2 27.05 L -11.95 27.05 L -11.9 26.95 L -11.45 27.05 L -11.2 27.05 L -10.95 27.05 L -10.7 27.05 L -10.45 27.05 L -10.2 27.05 L -9.15 25.2 L -3.65 35.25 L -2.15 35.25 L -2.15 37.25 Z M -13.45 27.05 L -13.4 27.0 Z M -13.2 27.05 L -13.15 27.0 Z M -10.45 27.05 L -10.4 27.0 Z M -10.7 27.05 L -10.65 27.0 Z M -10.95 27.05 L -10.9 27.0 Z M -11.2 27.05 L -11.15 27.0 Z M -11.45 27.05 L -11.4 27.0 Z M -12.2 27.05 L -12.15 27.0 Z M -12.45 27.05 L -12.4 27.0 Z M -12.7 27.05 L -12.65 27.0 Z M -12.95 27.05 L -12.9 27.0 Z"/>
				<path fill="#9EBBC7" stroke-linecap="round" stroke-linejoin="round" d="M 12.0 -11.75 L 31.45 0.9 L 33.85 -0.4 L 33.95 -0.3 L 34.1 -0.4 L 34.2 -0.3 L 34.35 -0.4 L 34.45 -0.3 L 34.6 -0.4 L 34.7 -0.3 L 34.85 -0.4 L 34.95 -0.3 L 35.1 -0.4 L 35.2 -0.3 L 35.35 -0.4 L 35.5 -0.2 L 35.85 -0.4 L 35.95 -0.3 L 36.1 -0.4 L 36.2 -0.3 L 36.35 -0.4 L 36.45 -0.3 L 36.6 -0.4 L 36.7 -0.3 L 36.85 -0.4 L 36.95 -0.3 L 37.1 -0.4 L 38.4 1.1 L 32.9 4.1 L 14.0 -8.15 L 10.35 -10.5 L 11.9 -11.65 L 12.0 -11.75 Z M 34.95 21.95 L 33.65 22.6 L 33.25 22.8 L 31.05 23.25 L 31.05 21.2 L 32.9 20.8 L 38.4 17.8 L 37.55 20.5 L 34.95 21.95 Z M 15.7 24.5 L 15.7 26.55 L 13.45 27.05 L 12.35 25.2 L 15.7 24.5 Z M 13.45 27.05 L 13.45 27.0 Z M -15.65 26.55 L -15.65 26.5 L -15.4 26.55 L -15.15 26.55 L -14.9 26.55 L -14.65 26.55 L -14.4 26.55 L -14.15 26.55 L -14.15 26.45 L -13.65 26.55 L -13.4 26.55 L -13.15 26.55 L -12.9 26.55 L -12.65 26.55 L -12.4 26.55 L -12.4 24.5 L -9.15 25.2 L -10.2 27.05 L -10.4 27.0 L -10.65 27.0 L -10.9 27.0 L -11.15 27.0 L -11.4 27.0 L -11.9 26.95 L -11.95 27.05 L -12.15 27.0 L -12.4 27.0 L -12.65 27.0 L -12.9 27.0 L -13.15 27.0 L -13.4 27.0 L -15.65 26.55 Z M -13.4 27.0 L -13.45 27.05 Z M -15.4 26.55 L -15.4 26.5 Z M -13.15 27.0 L -13.2 27.05 Z M -15.15 26.55 L -15.15 26.5 Z M -12.9 27.0 L -12.95 27.05 Z M -14.9 26.55 L -14.9 26.5 Z M -12.65 27.0 L -12.7 27.05 Z M -14.65 26.55 L -14.65 26.5 Z M -12.4 27.0 L -12.45 27.05 Z M -14.4 26.55 L -14.4 26.5 Z M -12.15 27.0 L -12.2 27.05 Z M -13.65 26.55 L -13.65 26.5 Z M -11.4 27.0 L -11.45 27.05 Z M -13.4 26.55 L -13.4 26.5 Z M -11.15 27.0 L -11.2 27.05 Z M -13.15 26.55 L -13.15 26.5 Z M -10.9 27.0 L -10.95 27.05 Z M -12.9 26.55 L -12.9 26.5 Z M -10.65 27.0 L -10.7 27.05 Z M -12.65 26.55 L -12.65 26.5 Z M -10.4 27.0 L -10.45 27.05 Z M -33.15 22.8 L -33.6 22.6 L -34.8 21.95 L -34.25 20.5 L -35.1 17.8 L -29.6 20.8 L -27.85 21.2 L -27.85 23.25 L -28.1 23.2 L -28.35 23.2 L -28.6 23.2 L -28.85 23.2 L -29.1 23.2 L -29.6 23.15 L -29.6 23.25 L -29.85 23.2 L -30.1 23.2 L -30.35 23.2 L -30.6 23.2 L -30.85 23.2 L -31.1 23.2 L -33.15 22.8 Z M -31.1 23.2 L -31.1 23.25 Z M -30.85 23.2 L -30.85 23.25 Z M -30.6 23.2 L -30.6 23.25 Z M -28.1 23.2 L -28.1 23.25 Z M -28.35 23.2 L -28.35 23.25 Z M -28.6 23.2 L -28.6 23.25 Z M -28.85 23.2 L -28.85 23.25 Z M -29.1 23.2 L -29.1 23.25 Z M -29.85 23.2 L -29.85 23.25 Z M -30.1 23.2 L -30.1 23.25 Z M -30.35 23.2 L -30.35 23.25 Z M -33.85 -0.4 L -31.5 0.9 L -11.9 -11.75 L -11.8 -11.65 L -11.65 -11.75 L -11.55 -11.65 L -11.4 -11.75 L -11.3 -11.65 L -11.15 -11.75 L -11.05 -11.65 L -10.9 -11.75 L -10.8 -11.65 L -10.65 -11.75 L -10.55 -11.65 L -10.4 -11.75 L -10.15 -11.55 L -9.9 -11.75 L -9.8 -11.65 L -9.65 -11.75 L -9.55 -11.65 L -9.4 -11.75 L -9.3 -11.65 L -9.15 -11.75 L -9.05 -11.65 L -8.9 -11.75 L -8.8 -11.65 L -8.65 -11.75 L -7.1 -10.5 L -10.7 -8.15 L -29.6 4.1 L -35.1 1.1 L -33.85 -0.4 Z"/>
				<path fill="#802B2B" stroke-linecap="round" stroke-linejoin="round" d="M 33.85 -0.4 L 36.2 -5.2 L 36.85 -5.95 C 37.116665 -6.15 37.416664 -6.25 37.75 -6.25 L 43.0 -6.25 L 43.9 -5.95 L 44.55 -5.1 L 44.75 -4.0 L 42.1 22.95 L 41.6 24.1 C 41.333332 24.4 41.016666 24.6 40.65 24.7 L 40.25 24.75 L 40.0 24.75 L 39.75 24.75 L 39.5 24.75 L 39.25 24.75 L 38.85 24.7 L 38.5 24.75 L 38.25 24.75 L 38.0 24.75 L 37.75 24.75 L 37.5 24.75 L 37.25 24.75 L 36.25 24.5 L 35.5 23.55 L 34.95 21.95 L 37.55 20.5 L 38.4 17.8 L 40.35 22.7 L 43.0 -4.25 L 41.0 -4.25 L 38.4 1.1 L 37.1 -0.4 L 36.95 -0.3 L 36.85 -0.4 L 36.7 -0.3 L 36.6 -0.4 L 36.45 -0.3 L 36.35 -0.4 L 36.2 -0.3 L 36.1 -0.4 L 35.95 -0.3 L 35.85 -0.4 L 35.5 -0.2 L 35.35 -0.4 L 35.2 -0.3 L 35.1 -0.4 L 34.95 -0.3 L 34.85 -0.4 L 34.7 -0.3 L 34.6 -0.4 L 34.45 -0.3 L 34.35 -0.4 L 34.2 -0.3 L 34.1 -0.4 L 33.95 -0.3 L 33.85 -0.4 Z M 5.4 37.25 L -2.15 37.25 L -2.15 35.25 L 5.4 35.25 L 5.4 37.25 Z M -34.8 21.95 L -35.45 23.55 L -36.25 24.5 L -37.15 24.75 L -37.4 24.75 L -37.65 24.75 L -37.9 24.75 L -38.2 24.75 L -38.55 24.7 L -38.9 24.75 L -39.15 24.75 L -39.4 24.75 L -39.65 24.75 L -39.9 24.75 L -40.15 24.75 L -40.6 24.7 C -41.0 24.6 -41.333332 24.4 -41.6 24.1 L -42.0 22.95 L -44.65 -4.0 L -44.55 -5.1 L -43.9 -5.95 L -42.95 -6.25 L -37.75 -6.25 L -36.9 -5.95 L -36.25 -5.25 L -33.85 -0.4 L -35.1 1.1 L -37.75 -4.25 L -39.7 -4.25 L -37.05 22.7 L -35.1 17.8 L -34.25 20.5 L -34.8 21.95 Z"/>
				<path fill="#CAA202" stroke-linecap="round" stroke-linejoin="round" d="M 31.05 23.25 L 15.7 26.55 L 15.7 24.5 L 19.5 23.65 L 23.4 22.85 L 27.2 22.05 L 31.05 21.2 L 31.05 23.25 Z M -31.1 23.25 L -31.1 23.2 L -30.85 23.25 L -30.6 23.25 L -30.35 23.25 L -30.1 23.25 L -29.85 23.25 L -29.6 23.25 L -29.6 23.15 L -29.1 23.25 L -28.85 23.25 L -28.6 23.25 L -28.35 23.25 L -28.1 23.25 L -27.85 23.25 L -27.85 21.2 L -23.95 22.05 L -20.1 22.85 L -16.3 23.65 L -12.4 24.5 L -12.4 26.55 L -12.65 26.5 L -12.9 26.5 L -13.15 26.5 L -13.4 26.5 L -13.65 26.5 L -14.15 26.45 L -14.15 26.55 L -14.4 26.5 L -14.65 26.5 L -14.9 26.5 L -15.15 26.5 L -15.4 26.5 L -15.65 26.5 L -31.1 23.25 Z M -15.65 26.5 L -15.65 26.55 Z M -30.85 23.25 L -30.85 23.2 Z M -15.4 26.5 L -15.4 26.55 Z M -30.6 23.25 L -30.6 23.2 Z M -15.15 26.5 L -15.15 26.55 Z M -30.35 23.25 L -30.35 23.2 Z M -14.9 26.5 L -14.9 26.55 Z M -30.1 23.25 L -30.1 23.2 Z M -14.65 26.5 L -14.65 26.55 Z M -29.85 23.25 L -29.85 23.2 Z M -14.4 26.5 L -14.4 26.55 Z M -29.1 23.25 L -29.1 23.2 Z M -13.65 26.5 L -13.65 26.55 Z M -28.85 23.25 L -28.85 23.2 Z M -13.4 26.5 L -13.4 26.55 Z M -28.6 23.25 L -28.6 23.2 Z M -13.15 26.5 L -13.15 26.55 Z M -28.35 23.25 L -28.35 23.2 Z M -12.9 26.5 L -12.9 26.55 Z M -28.1 23.25 L -28.1 23.2 Z M -12.65 26.5 L -12.65 26.55 Z"/>
				<path fill="#F2F2F2" stroke-linecap="round" stroke-linejoin="round" d="M -7.1 -10.5 L -4.0 -35.2 L 7.3 -35.2 L 10.35 -10.5 L 12.35 5.45 L 12.35 25.2 L 6.95 35.25 L 5.4 35.25 L 9.9 26.8 L 9.9 5.45 L 6.5 -31.7 L -3.25 -31.7 L -6.65 5.45 L -6.65 26.8 L -2.15 35.25 L -3.65 35.25 L -9.15 25.2 L -9.15 5.45 L -7.1 -10.5 Z"/>
				<path fill="#AC3939" stroke-linecap="round" stroke-linejoin="round" d="M -2.15 35.25 L -6.65 26.8 L -6.65 5.45 L -3.25 -31.7 L 6.5 -31.7 L 9.9 5.45 L 9.9 26.8 L 5.4 35.25 L -2.15 35.25 Z M 8.05 -2.55 L 7.95 -3.95 L -4.65 -3.95 L -4.8 -2.55 L -5.65 5.45 L 8.9 5.45 L 8.05 -2.55 Z M -37.75 -4.25 L -35.1 1.1 L -35.1 17.8 L -37.05 22.7 L -39.7 -4.25 L -37.75 -4.25 Z M 40.35 22.7 L 38.4 17.8 L 38.4 1.1 L 41.0 -4.25 L 43.0 -4.25 L 40.35 22.7 Z"/>
				<path fill="#BDD6DB" stroke-linecap="round" stroke-linejoin="round" d="M 12.35 25.2 L 12.35 5.45 L 10.35 -10.5 L 14.0 -8.15 L 15.7 5.45 L 15.7 18.2 L 15.7 19.15 L 15.7 24.5 L 12.35 25.2 Z M -12.4 19.15 L -12.4 18.2 L -12.4 5.45 L -10.7 -8.15 L -7.1 -10.5 L -9.15 5.45 L -9.15 25.2 L -12.4 24.5 L -12.4 19.15 Z"/>
				<path fill="#D3E1E7" stroke-linecap="round" stroke-linejoin="round" d="M 14.0 -8.15 L 32.9 4.1 L 32.9 20.8 L 31.05 21.2 L 31.05 15.9 L 31.05 14.95 L 15.7 18.2 L 15.7 5.45 L 14.0 -8.15 Z M -27.85 15.9 L -27.85 21.2 L -29.6 20.8 L -29.6 4.1 L -10.7 -8.15 L -12.4 5.45 L -12.4 18.2 L -27.85 14.95 L -27.85 15.9 Z"/>
				<path fill="#B9CED7" stroke-linecap="round" stroke-linejoin="round" d="M 32.9 4.1 L 38.4 1.1 L 38.4 17.8 L 32.9 20.8 L 32.9 4.1 Z M -23.95 16.7 L -27.85 15.9 L -27.85 14.95 L -12.4 18.2 L -12.4 19.15 L -16.3 18.35 L -20.1 17.55 L -23.95 16.7 Z M -29.6 4.1 L -29.6 20.8 L -35.1 17.8 L -35.1 1.1 L -29.6 4.1 Z M 23.4 17.55 L 19.5 18.35 L 15.7 19.15 L 15.7 18.2 L 31.05 14.95 L 31.05 15.9 L 27.2 16.7 L 23.4 17.55 Z"/>
				<path fill="#C44D4D" stroke-linecap="round" stroke-linejoin="round" d="M 7.95 -3.95 L 8.05 -2.55 L -4.8 -2.55 L -4.65 -3.95 L 7.95 -3.95 Z"/>
				<path fill="#4A3C55" stroke-linecap="round" stroke-linejoin="round" d="M -4.8 -2.55 L 8.05 -2.55 L 8.9 5.45 L -5.65 5.45 L -4.8 -2.55 Z"/>
				<path fill="#ECBD02" stroke-linecap="round" stroke-linejoin="round" d="M -27.85 15.9 L -23.95 16.7 L -23.95 22.05 L -27.85 21.2 L -27.85 15.9 Z M -20.1 17.55 L -16.3 18.35 L -16.3 23.65 L -20.1 22.85 L -20.1 17.55 Z M 19.5 23.65 L 19.5 18.35 L 23.4 17.55 L 23.4 22.85 L 19.5 23.65 Z M 31.05 15.9 L 31.05 21.2 L 27.2 22.05 L 27.2 16.7 L 31.05 15.9 Z"/>
				<path fill="#FFCC00" stroke-linecap="round" stroke-linejoin="round" d="M -23.95 22.05 L -23.95 16.7 L -20.1 17.55 L -20.1 22.85 L -23.95 22.05 Z M -16.3 18.35 L -12.4 19.15 L -12.4 24.5 L -16.3 23.65 L -16.3 18.35 Z M 19.5 18.35 L 19.5 23.65 L 15.7 24.5 L 15.7 19.15 L 19.5 18.35 Z M 23.4 22.85 L 23.4 17.55 L 27.2 16.7 L 27.2 22.05 L 23.4 22.85 Z"/>
			</g>
		</g>
		<g transform="matrix(1.0 0.0 0.0 1.0 0.0 0.0)">
			<path fill="#802B2B" stroke-linecap="round" stroke-linejoin="round" d="M 283.15 407.55 L 280.8 402.7 L 280.15 401.95 C 279.88333 401.75 279.6 401.65 279.3 401.65 L 277.25 401.65 C 276.94998 401.65 276.65 401.75 276.35 401.95 C 276.05 402.15 275.8333 402.43332 275.7 402.8 L 275.5 403.9 L 278.2 431.05 C 278.23334 431.48334 278.38333 431.86667 278.65 432.2 C 278.91666 432.5 279.25 432.69998 279.65 432.8 L 280.75 432.6 L 281.5 431.65 L 282.75 428.6 L 281.9 425.85 L 279.95 430.8 L 277.25 403.65 L 279.3 403.65 L 281.9 409.05 L 283.15 407.55 Z M 315.0 445.45 L 322.55 445.45 L 322.55 443.45 L 315.0 443.45 L 315.0 445.45 Z M 354.75 428.6 L 356.0 431.65 L 356.75 432.6 L 357.85 432.8 C 358.25 432.69998 358.58334 432.5 358.85 432.2 L 359.3 431.05 L 361.95 403.9 L 361.85 402.8 L 361.2 401.95 C 360.9 401.75 360.5833 401.65 360.25 401.65 L 358.3 401.65 C 357.96664 401.65 357.66666 401.75 357.4 401.95 L 356.75 402.65 L 354.35 407.55 L 355.65 409.05 L 358.3 403.65 L 360.25 403.65 L 357.6 430.8 L 355.65 425.85 L 354.75 428.6 Z"/>
			<path fill="#9EBBC7" stroke-linecap="round" stroke-linejoin="round" d="M 282.75 428.6 L 286.65 430.7 L 287.05 430.9 L 289.25 431.35 L 289.25 429.3 L 287.4 428.9 L 281.9 425.85 L 282.75 428.6 Z M 304.65 434.7 L 306.9 435.2 L 308.0 433.3 L 304.65 432.6 L 304.65 434.7 Z M 330.65 435.2 L 332.85 434.7 L 332.85 432.6 L 329.6 433.3 L 330.65 435.2 Z M 348.35 431.35 L 350.45 430.9 L 350.85 430.7 L 354.75 428.6 L 355.65 425.85 L 350.1 428.9 L 348.35 429.3 L 348.35 431.35 Z M 354.35 407.55 L 350.2 409.8 L 329.1 396.1 L 327.55 397.4 L 331.15 399.75 L 350.1 412.1 L 355.65 409.05 L 354.35 407.55 Z M 308.4 396.1 L 287.3 409.8 L 283.15 407.55 L 281.9 409.05 L 287.4 412.1 L 306.35 399.75 L 310.0 397.4 L 308.4 396.1 Z"/>
			<path fill="#CAA202" stroke-linecap="round" stroke-linejoin="round" d="M 289.25 431.35 L 304.65 434.7 L 304.65 432.6 L 300.8 431.75 L 296.95 430.95 L 293.1 430.15 L 289.25 429.3 L 289.25 431.35 Z M 332.85 434.7 L 348.35 431.35 L 348.35 429.3 L 344.45 430.15 L 340.6 430.95 L 336.75 431.75 L 332.85 432.6 L 332.85 434.7 Z"/>
			<path fill="#CCCCCC" stroke-linecap="round" stroke-linejoin="round" d="M 306.9 435.2 L 311.95 444.5 L 312.6 445.2 L 313.45 445.45 L 315.0 445.45 L 315.0 443.45 L 313.45 443.45 L 308.0 433.3 L 306.9 435.2 Z M 322.55 445.45 L 324.05 445.45 L 324.9 445.2 L 325.55 444.5 L 330.65 435.2 L 329.6 433.3 L 324.05 443.45 L 322.55 443.45 L 322.55 445.45 Z M 329.1 396.1 L 326.15 372.25 C 326.0833 371.75 325.8833 371.33334 325.55 371.0 C 325.25 370.66666 324.86667 370.5 324.4 370.5 L 313.1 370.5 C 312.6667 370.5 312.28336 370.66666 311.95 371.0 C 311.65 371.33334 311.44998 371.75 311.35 372.25 L 308.4 396.1 L 310.0 397.4 L 313.1 372.5 L 324.4 372.5 L 327.55 397.4 L 329.1 396.1 Z"/>
			<path fill="#AC3939" stroke-linecap="round" stroke-linejoin="round" d="M 281.9 409.05 L 279.3 403.65 L 277.25 403.65 L 279.95 430.8 L 281.9 425.85 L 281.9 409.05 Z M 322.55 443.45 L 327.1 434.95 L 327.1 413.45 L 323.7 376.05 L 313.9 376.05 L 310.5 413.45 L 310.5 434.95 L 315.0 443.45 L 322.55 443.45 Z M 312.3 405.4 L 312.45 403.95 L 325.1 403.95 L 325.2 405.4 L 326.1 413.45 L 311.5 413.45 L 312.3 405.4 Z M 358.3 403.65 L 355.65 409.05 L 355.65 425.85 L 357.6 430.8 L 360.25 403.65 L 358.3 403.65 Z"/>
			<path fill="#F2F2F2" stroke-linecap="round" stroke-linejoin="round" d="M 313.1 372.5 L 310.0 397.4 L 308.0 413.45 L 308.0 433.3 L 313.45 443.45 L 315.0 443.45 L 310.5 434.95 L 310.5 413.45 L 313.9 376.05 L 323.7 376.05 L 327.1 413.45 L 327.1 434.95 L 322.55 443.45 L 324.05 443.45 L 329.6 433.3 L 329.6 413.45 L 327.55 397.4 L 324.4 372.5 L 313.1 372.5 Z"/>
			<path fill="#BDD6DB" stroke-linecap="round" stroke-linejoin="round" d="M 327.55 397.4 L 329.6 413.45 L 329.6 433.3 L 332.85 432.6 L 332.85 427.25 L 332.85 426.25 L 332.85 413.45 L 331.15 399.75 L 327.55 397.4 Z M 308.0 433.3 L 308.0 413.45 L 310.0 397.4 L 306.35 399.75 L 304.65 413.45 L 304.65 426.25 L 304.65 427.25 L 304.65 432.6 L 308.0 433.3 Z"/>
			<path fill="#D3E1E7" stroke-linecap="round" stroke-linejoin="round" d="M 331.15 399.75 L 332.85 413.45 L 332.85 426.25 L 348.35 423.0 L 348.35 423.95 L 348.35 429.3 L 350.1 428.9 L 350.1 412.1 L 331.15 399.75 Z M 304.65 413.45 L 306.35 399.75 L 287.4 412.1 L 287.4 428.9 L 289.25 429.3 L 289.25 423.95 L 289.25 423.0 L 304.65 426.25 L 304.65 413.45 Z"/>
			<path fill="#B9CED7" stroke-linecap="round" stroke-linejoin="round" d="M 332.85 426.25 L 332.85 427.25 L 336.75 426.4 L 340.6 425.6 L 344.45 424.75 L 348.35 423.95 L 348.35 423.0 L 332.85 426.25 Z M 350.1 412.1 L 350.1 428.9 L 355.65 425.85 L 355.65 409.05 L 350.1 412.1 Z M 304.65 426.25 L 289.25 423.0 L 289.25 423.95 L 293.1 424.75 L 296.95 425.6 L 300.8 426.4 L 304.65 427.25 L 304.65 426.25 Z M 287.4 428.9 L 287.4 412.1 L 281.9 409.05 L 281.9 425.85 L 287.4 428.9 Z"/>
			<path fill="#FFCC00" stroke-linecap="round" stroke-linejoin="round" d="M 332.85 427.25 L 332.85 432.6 L 336.75 431.75 L 336.75 426.4 L 332.85 427.25 Z M 293.1 424.75 L 293.1 430.15 L 296.95 430.95 L 296.95 425.6 L 293.1 424.75 Z M 300.8 426.4 L 300.8 431.75 L 304.65 432.6 L 304.65 427.25 L 300.8 426.4 Z M 340.6 425.6 L 340.6 430.95 L 344.45 430.15 L 344.45 424.75 L 340.6 425.6 Z"/>
			<path fill="#C44D4D" stroke-linecap="round" stroke-linejoin="round" d="M 312.45 403.95 L 312.3 405.4 L 325.2 405.4 L 325.1 403.95 L 312.45 403.95 Z"/>
			<path fill="#4A3C55" stroke-linecap="round" stroke-linejoin="round" d="M 325.2 405.4 L 312.3 405.4 L 311.5 413.45 L 326.1 413.45 L 325.2 405.4 Z"/>
			<path fill="#ECBD02" stroke-linecap="round" stroke-linejoin="round" d="M 348.35 429.3 L 348.35 423.95 L 344.45 424.75 L 344.45 430.15 L 348.35 429.3 Z M 289.25 423.95 L 289.25 429.3 L 293.1 430.15 L 293.1 424.75 L 289.25 423.95 Z M 300.8 431.75 L 300.8 426.4 L 296.95 425.6 L 296.95 430.95 L 300.8 431.75 Z M 336.75 426.4 L 336.75 431.75 L 340.6 430.95 L 340.6 425.6 L 336.75 426.4 Z"/>
			<path fill="#996A4D" stroke-linecap="round" stroke-linejoin="round" d="M 634.35 370.45 L 645.45 370.45 C 645.95 370.45 646.38336 370.61667 646.75 370.95 C 647.11664 371.28336 647.35 371.7 647.45 372.2 L 650.15 391.15 L 648.4 392.85 L 647.75 388.35 L 645.45 372.5 L 638.95 372.5 L 633.55 372.5 L 634.35 370.45 Z M 662.95 403.0 C 666.95 405.23334 670.95 407.5 674.95 409.8 L 679.7 407.55 L 682.45 402.7 C 682.6167 402.36667 682.8667 402.11667 683.2 401.95 C 683.5 401.75 683.8333 401.65 684.2 401.65 L 685.95 401.65 L 686.5 403.65 L 684.2 403.65 L 681.2 409.05 L 674.85 412.05 L 662.9 405.25 L 661.75 404.6 L 662.95 403.0 Z M 636.7 445.45 L 632.9 445.45 L 631.95 445.2 L 631.2 444.5 L 625.4 435.2 L 614.3 433.05 L 614.0 430.95 L 616.2 431.35 L 626.6 433.3 L 632.9 443.45 L 635.65 443.45 L 637.8 443.45 L 636.7 445.45 Z M 604.3 409.1 L 623.75 398.05 L 624.8 399.75 L 621.6 401.6 L 605.9 410.5 L 604.55 411.25 L 604.3 409.1 Z"/>
			<path fill="#CCCCCC" stroke-linecap="round" stroke-linejoin="round" d="M 650.15 391.15 L 650.85 396.1 L 649.0 397.35 L 648.4 392.85 L 650.15 391.15 Z M 652.55 435.2 L 646.75 444.5 L 646.05 445.2 L 645.05 445.45 L 643.3 445.45 L 643.3 443.45 L 645.05 443.45 L 651.3 433.3 L 652.55 435.2 Z M 627.15 396.1 L 630.55 372.2 C 630.6167 371.7 630.8334 371.28336 631.2 370.95 C 631.56665 370.61667 632.0 370.45 632.5 370.45 L 634.35 370.45 L 633.55 372.5 L 632.5 372.5 L 628.95 397.35 L 627.15 396.1 Z"/>
			<path fill="#9EBBC7" stroke-linecap="round" stroke-linejoin="round" d="M 650.85 396.1 L 662.95 403.0 L 661.75 404.6 L 653.15 399.75 L 649.0 397.35 L 650.85 396.1 Z M 661.75 404.6 L 661.7 404.6 Z M 680.2 428.6 L 675.7 430.7 L 675.25 430.9 L 672.75 431.35 L 672.75 429.3 L 674.85 428.9 C 676.95 427.9 679.0667 426.88333 681.2 425.85 L 680.2 428.6 Z M 655.1 434.7 L 652.55 435.2 L 651.3 433.3 L 655.1 432.6 L 655.1 434.7 Z M 605.15 431.35 L 602.75 430.9 L 602.25 430.7 L 597.8 428.6 L 596.8 425.85 L 603.1 428.9 L 605.15 429.3 L 605.15 431.35 Z M 598.25 407.55 L 603.0 409.8 L 604.3 409.1 L 604.55 411.25 L 603.1 412.05 L 596.8 409.05 L 598.25 407.55 Z M 623.75 398.05 L 627.15 396.1 L 628.95 397.35 L 624.8 399.75 L 623.75 398.05 Z"/>
			<path fill="#802B2B" stroke-linecap="round" stroke-linejoin="round" d="M 685.95 401.65 L 686.5 401.65 L 687.55 401.95 L 688.3 402.8 L 688.5 403.9 L 685.45 431.05 L 684.9 432.2 L 683.8 432.8 L 682.5 432.6 C 682.10004 432.36667 681.8167 432.05 681.65 431.65 L 680.2 428.6 L 681.2 425.85 L 683.45 430.8 L 685.45 412.9 L 686.5 403.65 L 685.95 401.65 Z M 643.3 445.45 L 636.7 445.45 L 637.8 443.45 L 643.3 443.45 L 643.3 445.45 Z M 597.8 428.6 L 596.4 431.65 L 595.5 432.6 L 594.25 432.8 C 593.7833 432.69998 593.39996 432.5 593.1 432.2 C 592.8 431.86667 592.6333 431.48334 592.6 431.05 L 589.55 403.9 C 589.48334 403.5 589.5333 403.13333 589.7 402.8 C 589.8667 402.43332 590.1167 402.15 590.45 401.95 L 591.5 401.65 L 593.75 401.65 L 594.75 401.95 L 595.5 402.65 L 598.25 407.55 L 596.8 409.05 L 593.75 403.65 L 591.5 403.65 L 594.55 430.8 L 596.8 425.85 L 597.8 428.6 Z"/>
			<path fill="#CAA202" stroke-linecap="round" stroke-linejoin="round" d="M 672.75 431.35 L 655.1 434.7 L 655.1 432.6 L 659.5 431.75 L 663.95 430.95 L 668.35 430.15 L 672.75 429.3 L 672.75 431.35 Z M 614.3 433.05 L 605.15 431.35 L 605.15 429.3 L 609.6 430.15 L 614.0 430.95 L 614.3 433.05 Z"/>
			<path fill="#B7886A" stroke-linecap="round" stroke-linejoin="round" d="M 633.55 372.5 L 638.95 372.5 L 640.3 377.9 L 637.65 385.1 L 642.8 392.4 L 647.75 388.35 L 648.4 392.85 L 646.45 393.9 L 641.8 396.3 L 635.3 385.45 L 636.45 379.05 L 635.1 376.0 L 633.55 372.5 Z M 661.7 404.6 L 661.75 404.6 L 662.9 405.25 L 666.65 414.2 L 677.55 417.45 L 683.45 411.05 L 684.45 405.75 L 686.5 403.65 L 685.45 412.9 L 681.2 416.25 L 676.2 420.15 L 674.85 419.5 L 665.55 415.35 L 661.7 404.6 Z M 626.6 425.5 L 629.45 427.0 L 634.45 429.55 L 638.7 436.75 L 637.8 443.45 L 635.65 443.45 L 636.9 437.85 L 634.15 432.45 L 625.3 427.8 L 616.2 431.35 L 614.0 430.95 L 618.4 429.05 L 622.7 427.25 L 622.85 427.25 L 622.85 427.15 L 626.6 425.5 Z M 621.6 401.6 L 624.8 399.75 L 623.35 409.85 L 611.2 414.85 L 604.55 411.25 L 605.9 410.5 L 611.3 413.05 L 619.9 409.65 L 621.6 401.6 Z"/>
			<path fill="#C7A48D" stroke-linecap="round" stroke-linejoin="round" d="M 638.95 372.5 L 645.45 372.5 L 647.75 388.35 L 642.8 392.4 L 637.65 385.1 L 640.3 377.9 L 638.95 372.5 Z M 621.6 401.6 L 619.9 409.65 L 611.3 413.05 L 605.9 410.5 L 621.6 401.6 Z M 616.2 431.35 L 625.3 427.8 L 634.15 432.45 L 636.9 437.85 L 635.65 443.45 L 632.9 443.45 L 626.6 433.3 L 616.2 431.35 Z M 684.2 403.65 L 686.5 403.65 L 684.45 405.75 L 683.45 411.05 L 677.55 417.45 L 666.65 414.2 L 662.9 405.25 L 674.85 412.05 L 681.2 409.05 L 684.2 403.65 Z"/>
			<path fill="#F2F2F2" stroke-linecap="round" stroke-linejoin="round" d="M 646.45 393.9 L 648.4 392.85 L 649.0 397.35 L 651.3 413.45 L 651.3 433.3 L 645.05 443.45 L 643.3 443.45 L 648.45 434.95 L 648.45 413.45 L 646.45 393.9 Z M 633.55 372.5 L 635.1 376.0 L 633.35 376.0 L 629.45 413.45 L 629.45 427.0 L 626.6 425.5 L 626.6 413.45 L 628.95 397.35 L 632.5 372.5 L 633.55 372.5 Z"/>
			<path fill="#AC3939" stroke-linecap="round" stroke-linejoin="round" d="M 635.1 376.0 L 636.45 379.05 L 635.3 385.45 L 641.8 396.3 L 646.45 393.9 L 648.45 413.45 L 648.45 434.95 L 643.3 443.45 L 637.8 443.45 L 638.7 436.75 L 634.45 429.55 L 629.45 427.0 L 629.45 413.45 L 633.35 376.0 L 635.1 376.0 Z M 631.6 405.35 L 630.6 413.45 L 647.3 413.45 L 646.35 405.35 L 646.2 403.95 L 631.75 403.95 L 631.6 405.35 Z M 596.8 409.05 L 596.8 425.85 L 594.55 430.8 L 591.5 403.65 L 593.75 403.65 L 596.8 409.05 Z M 681.2 425.85 L 681.2 416.25 L 685.45 412.9 L 683.45 430.8 L 681.2 425.85 Z"/>
			<path fill="#BDD6DB" stroke-linecap="round" stroke-linejoin="round" d="M 651.3 433.3 L 651.3 413.45 L 649.0 397.35 L 653.15 399.75 L 655.1 413.45 L 655.1 426.25 L 655.1 427.25 L 655.1 432.6 L 651.3 433.3 Z M 628.95 397.35 L 626.6 413.45 L 626.6 425.5 L 622.85 427.15 L 622.85 426.25 L 622.85 413.45 L 623.35 409.85 L 624.8 399.75 L 628.95 397.35 Z"/>
			<path fill="#D3E1E7" stroke-linecap="round" stroke-linejoin="round" d="M 653.15 399.75 L 661.7 404.6 L 665.55 415.35 L 674.85 419.5 L 674.85 428.9 L 672.75 429.3 L 672.75 423.95 L 672.75 423.0 L 655.1 426.25 L 655.1 413.45 L 653.15 399.75 Z M 604.55 411.25 L 611.2 414.85 L 623.35 409.85 L 622.85 413.45 L 622.85 426.25 L 605.15 423.0 L 605.15 423.95 L 605.15 429.3 L 603.1 428.9 L 603.1 412.05 L 604.55 411.25 Z"/>
			<path fill="#4A3C55" stroke-linecap="round" stroke-linejoin="round" d="M 630.6 413.45 L 631.6 405.35 L 646.35 405.35 L 647.3 413.45 L 630.6 413.45 Z"/>
			<path fill="#C44D4D" stroke-linecap="round" stroke-linejoin="round" d="M 646.35 405.35 L 631.6 405.35 L 631.75 403.95 L 646.2 403.95 L 646.35 405.35 Z"/>
			<path fill="#B9CED7" stroke-linecap="round" stroke-linejoin="round" d="M 622.85 426.25 L 622.85 427.15 L 622.85 427.25 L 622.7 427.25 L 618.4 426.4 L 614.0 425.6 L 609.6 424.75 L 605.15 423.95 L 605.15 423.0 L 622.85 426.25 Z M 603.1 412.05 L 603.1 428.9 L 596.8 425.85 L 596.8 409.05 L 603.1 412.05 Z M 681.2 416.25 L 681.2 425.85 C 679.06665 426.88333 676.94995 427.9 674.85 428.9 L 674.85 419.5 L 676.2 420.15 L 681.2 416.25 Z M 663.95 425.6 L 659.5 426.4 L 655.1 427.25 L 655.1 426.25 L 672.75 423.0 L 672.75 423.95 L 668.35 424.75 L 663.95 425.6 Z"/>
			<path fill="#ECBD02" stroke-linecap="round" stroke-linejoin="round" d="M 605.15 429.3 L 605.15 423.95 L 609.6 424.75 L 609.6 430.15 L 605.15 429.3 Z M 614.0 425.6 L 618.4 426.4 L 618.4 429.05 L 614.0 430.95 L 614.0 425.6 Z M 659.5 426.4 L 663.95 425.6 L 663.95 430.95 L 659.5 431.75 L 659.5 426.4 Z M 668.35 424.75 L 672.75 423.95 L 672.75 429.3 L 668.35 430.15 L 668.35 424.75 Z"/>
			<path fill="#FFCC00" stroke-linecap="round" stroke-linejoin="round" d="M 609.6 424.75 L 614.0 425.6 L 614.0 430.95 L 609.6 430.15 L 609.6 424.75 Z M 618.4 426.4 L 622.7 427.25 L 618.4 429.05 L 618.4 426.4 Z M 659.5 426.4 L 659.5 431.75 L 655.1 432.6 L 655.1 427.25 L 659.5 426.4 Z M 663.95 430.95 L 663.95 425.6 L 668.35 424.75 L 668.35 430.15 L 663.95 430.95 Z"/>
			<path fill="#C4C4C4" stroke-linecap="round" stroke-linejoin="round" d="M 676.45 149.05 L 676.45 150.65 L 674.25 150.65 L 674.25 154.05 L 672.65 152.8 L 672.65 150.65 C 672.65 150.21666 672.8167 149.84999 673.15 149.55 C 673.45 149.21667 673.81665 149.05 674.25 149.05 L 676.45 149.05 Z M 665.95 197.45 L 665.95 199.05 L 662.4 199.05 L 661.45 198.75 L 660.9 197.95 C 660.76666 197.61667 660.76666 197.28334 660.9 196.95 L 671.4 167.15 L 674.25 163.75 L 662.4 197.45 L 665.95 197.45 Z M 631.5 151.25 L 631.5 149.65 L 651.5 149.65 L 651.5 151.25 L 631.5 151.25 Z M 606.55 149.05 L 608.75 149.05 C 609.18335 149.05 609.5667 149.21667 609.9 149.55 C 610.2 149.85 610.35 150.21667 610.35 150.65 L 610.35 152.8 L 608.75 154.05 L 608.75 150.65 L 606.55 150.65 L 606.55 149.05 Z M 617.1 197.45 L 620.6 197.45 L 608.75 163.75 L 611.65 167.15 L 622.1 196.95 L 622.15 197.95 L 621.55 198.75 L 620.6 199.05 L 617.1 199.05 L 617.1 197.45 Z"/>
			<path fill="#8F9746" stroke-linecap="round" stroke-linejoin="round" d="M 676.45 150.65 L 676.45 149.05 L 681.0 149.05 C 681.3333 149.05 681.6333 149.15001 681.9 149.35 L 682.5 150.1 L 690.4 170.55 L 690.5 171.4 L 690.1 172.25 L 667.15 198.55 L 666.65 198.95 L 665.95 199.05 L 665.95 197.45 L 676.95 184.8 L 688.9 171.15 L 686.05 163.75 L 681.0 150.65 L 676.45 150.65 Z M 659.4 171.95 L 660.65 173.15 L 653.5 187.4 L 652.9 188.05 L 652.1 188.3 L 630.95 188.3 L 630.1 188.05 L 629.5 187.4 L 622.4 173.15 L 623.6 171.95 L 630.95 186.7 L 652.1 186.7 L 659.4 171.95 Z M 631.5 149.65 L 631.5 151.25 L 623.6 157.6 L 623.25 155.9 L 630.55 150.0 C 630.81665 149.76666 631.1333 149.65 631.5 149.65 Z M 651.5 151.25 L 651.5 149.65 C 651.89996 149.65 652.2166 149.76666 652.45 150.0 L 659.8 155.9 L 659.4 157.6 L 651.5 151.25 Z M 606.55 149.05 L 606.55 150.65 L 602.05 150.65 L 596.95 163.75 L 594.1 171.15 L 606.05 184.8 L 617.1 197.45 L 617.1 199.05 L 616.45 198.95 L 615.9 198.55 L 592.9 172.25 C 592.73334 172.01666 592.61664 171.73332 592.55 171.4 C 592.48334 171.09999 592.51666 170.81667 592.65 170.55 L 600.6 150.1 C 600.7 149.76668 600.88336 149.51668 601.15 149.35 C 601.4167 149.15001 601.7167 149.05 602.05 149.05 L 606.55 149.05 Z"/>
			<path fill="#AEB762" stroke-linecap="round" stroke-linejoin="round" d="M 676.45 150.65 L 681.0 150.65 L 686.05 163.75 L 680.15 163.75 L 683.0 171.15 L 673.95 184.8 L 676.95 184.8 L 665.95 197.45 L 676.45 163.75 L 676.45 150.65 Z M 623.6 157.6 L 631.5 151.25 L 631.5 176.15 L 631.5 176.25 C 631.5 177.28334 631.86664 178.15001 632.6 178.85 C 633.3 179.58333 634.1667 179.95 635.2 179.95 L 647.85 179.95 C 648.88336 179.95 649.75006 179.58333 650.45 178.85 C 651.15 178.15001 651.5 177.28334 651.5 176.25 L 651.5 176.05 L 651.5 151.25 L 659.4 157.6 L 659.4 171.95 L 652.1 186.7 L 647.85 183.9 L 635.2 183.9 L 630.95 186.7 L 623.6 171.95 L 623.6 157.6 Z M 606.55 150.65 L 606.55 163.75 L 617.1 197.45 L 606.05 184.8 L 609.0 184.8 L 600.05 171.15 L 602.9 163.75 L 596.95 163.75 L 602.05 150.65 L 606.55 150.65 Z"/>
			<path fill="#9AA34B" stroke-linecap="round" stroke-linejoin="round" d="M 686.05 163.75 L 688.9 171.15 L 676.95 184.8 L 673.95 184.8 L 683.0 171.15 L 680.15 163.75 L 686.05 163.75 Z M 606.05 184.8 L 594.1 171.15 L 596.95 163.75 L 602.9 163.75 L 600.05 171.15 L 609.0 184.8 L 606.05 184.8 Z M 630.95 186.7 L 635.2 183.9 L 647.85 183.9 L 652.1 186.7 L 630.95 186.7 Z"/>
			<path fill="#9EBBC7" stroke-linecap="round" stroke-linejoin="round" d="M 672.65 152.8 L 674.25 154.05 L 671.8 154.65 L 662.0 157.0 L 659.4 157.6 L 659.8 155.9 L 672.65 152.8 Z M 674.25 163.75 L 671.4 167.15 L 660.65 173.15 L 659.4 171.95 L 662.05 170.5 L 671.8 165.1 L 674.25 163.75 Z M 623.25 155.9 L 623.6 157.6 L 621.0 157.0 L 611.2 154.65 L 608.75 154.05 L 610.35 152.8 L 623.25 155.9 Z M 611.2 165.1 L 620.95 170.5 L 623.6 171.95 L 622.4 173.15 L 611.65 167.15 L 608.75 163.75 L 611.2 165.1 Z"/>
			<path fill="#EEEEEE" stroke-linecap="round" stroke-linejoin="round" d="M 674.25 154.05 L 674.25 150.65 L 676.45 150.65 L 676.45 163.75 L 665.95 197.45 L 662.4 197.45 L 674.25 163.75 L 674.25 154.05 Z M 631.5 151.25 L 651.5 151.25 L 651.5 176.05 C 651.4667 175.11667 651.1167 174.31667 650.45 173.65 C 649.75 172.91667 648.8833 172.55 647.85 172.55 L 635.2 172.55 C 634.1667 172.55 633.3 172.91667 632.6 173.65 C 631.89996 174.34999 631.5333 175.18332 631.5 176.15 L 631.5 151.25 Z M 608.75 150.65 L 608.75 154.05 L 608.75 163.75 L 620.6 197.45 L 617.1 197.45 L 606.55 163.75 L 606.55 150.65 L 608.75 150.65 Z"/>
			<path fill="#BDD6DB" stroke-linecap="round" stroke-linejoin="round" d="M 671.8 154.65 L 674.25 154.05 L 674.25 163.75 L 671.8 165.1 L 671.8 154.65 Z M 662.05 170.5 L 659.4 171.95 L 659.4 157.6 L 662.0 157.0 L 662.05 170.5 Z M 608.75 163.75 L 608.75 154.05 L 611.2 154.65 L 611.2 165.1 L 608.75 163.75 Z M 620.95 170.5 L 621.0 157.0 L 623.6 157.6 L 623.6 171.95 L 620.95 170.5 Z"/>
			<path fill="#D3E1E7" stroke-linecap="round" stroke-linejoin="round" d="M 671.8 165.1 L 662.05 170.5 L 662.0 157.0 L 671.8 154.65 L 671.8 165.1 Z M 611.2 154.65 L 621.0 157.0 L 620.95 170.5 L 611.2 165.1 L 611.2 154.65 Z"/>
			<path fill="#4A3C55" stroke-linecap="round" stroke-linejoin="round" d="M 651.5 176.05 L 651.5 176.25 C 651.5 177.28334 651.15 178.15001 650.45 178.85 C 649.75 179.58333 648.8833 179.95 647.85 179.95 L 635.2 179.95 C 634.1667 179.95 633.3 179.58333 632.6 178.85 C 631.86664 178.15001 631.5 177.28334 631.5 176.25 L 631.5 176.15 C 631.5333 175.18333 631.89996 174.35 632.6 173.65 C 633.3 172.91667 634.1667 172.55 635.2 172.55 L 647.85 172.55 C 648.88336 172.55 649.75006 172.91667 650.45 173.65 C 651.1167 174.31667 651.4667 175.11667 651.5 176.05 Z"/>
			<path fill="#EFF4F5" stroke-linecap="round" stroke-linejoin="round" d="M 658.2 244.8 C 657.7 244.53333 657.3667 244.09999 657.2 243.5 C 657.06665 242.93333 657.1333 242.4 657.4 241.9 C 657.7 241.4 658.13336 241.06667 658.7 240.9 L 660.35 241.1 C 660.85 241.40001 661.1666 241.83334 661.3 242.4 C 661.4667 243.0 661.4 243.55 661.1 244.05 C 660.8333 244.55 660.39996 244.86667 659.8 245.0 L 658.2 244.8 Z M 624.8 243.5 C 624.6666 244.09999 624.35 244.53333 623.85 244.8 L 622.2 245.0 C 621.6333 244.86667 621.19995 244.55 620.9 244.05 C 620.63336 243.55 620.5667 243.0 620.7 242.4 C 620.8667 241.83333 621.2 241.4 621.7 241.1 L 623.3 240.9 C 623.9 241.06667 624.3334 241.4 624.6 241.9 C 624.89996 242.4 624.9666 242.93333 624.8 243.5 Z M 675.35 274.55 C 675.35 273.98334 675.56665 273.48334 676.0 273.05 C 676.43335 272.61667 676.93335 272.4 677.5 272.4 C 678.06665 272.4 678.56665 272.61667 679.0 273.05 C 679.43335 273.48334 679.65 273.98334 679.65 274.55 C 679.65 275.11667 679.43335 275.61667 679.0 276.05 C 678.56665 276.48334 678.06665 276.7 677.5 276.7 C 676.93335 276.7 676.43335 276.48334 676.0 276.05 C 675.56665 275.61667 675.35 275.11667 675.35 274.55 Z M 602.35 274.55 C 602.35 273.98334 602.56665 273.48334 603.0 273.05 C 603.43335 272.61667 603.93335 272.4 604.5 272.4 C 605.06665 272.4 605.56665 272.61667 606.0 273.05 C 606.43335 273.48334 606.65 273.98334 606.65 274.55 C 606.65 275.11667 606.43335 275.61667 606.0 276.05 C 605.56665 276.48334 605.06665 276.7 604.5 276.7 C 603.93335 276.7 603.43335 276.48334 603.0 276.05 C 602.56665 275.61667 602.35 275.11667 602.35 274.55 Z M 623.85 304.3 C 624.35 304.6 624.6666 305.03336 624.8 305.6 C 624.9667 306.2 624.9 306.75 624.6 307.25 C 624.3333 307.75 623.89996 308.06668 623.3 308.2 L 621.7 308.0 C 621.2 307.73334 620.8667 307.30002 620.7 306.7 C 620.56665 306.13333 620.6333 305.6 620.9 305.1 C 621.2 304.6 621.63336 304.26666 622.2 304.1 L 623.85 304.3 Z M 658.7 308.2 C 658.1333 308.06668 657.69995 307.75 657.4 307.25 C 657.13336 306.75 657.0667 306.2 657.2 305.6 C 657.3667 305.03333 657.7 304.59998 658.2 304.3 L 659.8 304.1 C 660.4 304.26666 660.8334 304.6 661.1 305.1 C 661.39996 305.6 661.4666 306.13333 661.3 306.7 C 661.1666 307.30002 660.85 307.73334 660.35 308.0 L 658.7 308.2 Z"/>
			<path fill="#D3E1E7" stroke-linecap="round" stroke-linejoin="round" d="M 657.2 243.5 C 657.3667 244.09999 657.7 244.53333 658.2 244.8 L 659.8 245.0 C 660.4 244.86667 660.8334 244.55 661.1 244.05 C 661.39996 243.55 661.4666 243.0 661.3 242.4 C 661.1666 241.83333 660.85 241.4 660.35 241.1 L 658.7 240.9 C 658.1333 241.06667 657.69995 241.4 657.4 241.9 C 657.13336 242.4 657.0667 242.93333 657.2 243.5 Z M 639.5 236.55 C 639.06665 236.98334 638.85 237.48334 638.85 238.05 C 638.85 238.61667 639.06665 239.11667 639.5 239.55 C 639.93335 239.98334 640.43335 240.2 641.0 240.2 C 641.56665 240.2 642.06665 239.98334 642.5 239.55 C 642.93335 239.11667 643.15 238.61667 643.15 238.05 C 643.15 237.48334 642.93335 236.98334 642.5 236.55 C 642.06665 236.11667 641.56665 235.9 641.0 235.9 C 640.43335 235.9 639.93335 236.11667 639.5 236.55 Z M 623.85 244.8 C 624.35 244.53333 624.6666 244.09999 624.8 243.5 C 624.9667 242.93333 624.9 242.4 624.6 241.9 C 624.3333 241.4 623.89996 241.06667 623.3 240.9 L 621.7 241.1 C 621.2 241.40001 620.8667 241.83334 620.7 242.4 C 620.56665 243.0 620.6333 243.55 620.9 244.05 C 621.2 244.55 621.63336 244.86667 622.2 245.0 L 623.85 244.8 Z M 641.05 244.3 L 641.0 244.3 C 632.6667 244.3 625.5333 247.25 619.6 253.15 C 613.7 259.0833 610.75 266.21664 610.75 274.55 C 610.75 282.91666 613.7 290.03333 619.6 295.9 C 625.5333 301.8333 632.6667 304.8 641.0 304.8 C 649.3333 304.8 656.44995 301.86667 662.35 296.0 L 662.4 295.9 C 668.3333 290.03333 671.3 282.91666 671.3 274.55 C 671.3 266.18332 668.3333 259.05 662.4 253.15 C 656.5 247.25 649.3833 244.3 641.05 244.3 Z M 641.0 304.8 L 641.05 304.8 Z M 619.6 295.9 L 619.65 295.95 Z M 619.6 253.15 L 619.55 253.2 Z M 674.65 256.85 C 674.8167 256.28333 674.75006 255.74998 674.45 255.25 C 674.18335 254.75 673.75 254.41667 673.15 254.25 L 671.55 254.45 C 671.05 254.75 670.7167 255.18333 670.55 255.75 C 670.4166 256.35 670.4833 256.9 670.75 257.4 C 671.05 257.9 671.48334 258.21667 672.05 258.35 L 673.7 258.15 C 674.2 257.88333 674.51666 257.45 674.65 256.85 Z M 676.0 273.05 C 675.56665 273.48334 675.35 273.98334 675.35 274.55 C 675.35 275.11667 675.56665 275.61667 676.0 276.05 C 676.43335 276.48334 676.93335 276.7 677.5 276.7 C 678.06665 276.7 678.56665 276.48334 679.0 276.05 C 679.43335 275.61667 679.65 275.11667 679.65 274.55 C 679.65 273.98334 679.43335 273.48334 679.0 273.05 C 678.56665 272.61667 678.06665 272.4 677.5 272.4 C 676.93335 272.4 676.43335 272.61667 676.0 273.05 Z M 684.25 274.55 C 684.25 286.51666 680.01666 296.7 671.55 305.1 C 663.15 313.56665 652.9667 317.8 641.0 317.8 C 629.06665 317.8 618.8833 313.56665 610.45 305.1 C 603.15 297.83334 599.01666 289.23334 598.05 279.3 L 597.8 274.55 C 597.8 262.61667 602.01666 252.43333 610.45 244.0 C 618.8833 235.56667 629.06665 231.35 641.0 231.35 C 652.9667 231.35 663.15 235.56667 671.55 244.0 C 680.01666 252.43333 684.25 262.61667 684.25 274.55 Z M 603.0 273.05 C 602.56665 273.48334 602.35 273.98334 602.35 274.55 C 602.35 275.11667 602.56665 275.61667 603.0 276.05 C 603.43335 276.48334 603.93335 276.7 604.5 276.7 C 605.06665 276.7 605.56665 276.48334 606.0 276.05 C 606.43335 275.61667 606.65 275.11667 606.65 274.55 C 606.65 273.98334 606.43335 273.48334 606.0 273.05 C 605.56665 272.61667 605.06665 272.4 604.5 272.4 C 603.93335 272.4 603.43335 272.61667 603.0 273.05 Z M 611.25 257.4 C 611.55 256.9 611.61664 256.35 611.45 255.75 C 611.31665 255.18333 611.0 254.75 610.5 254.45 L 608.85 254.25 C 608.2833 254.41667 607.85 254.75 607.55 255.25 C 607.2833 255.75 607.2167 256.28333 607.35 256.85 C 607.51666 257.45 607.85 257.88333 608.35 258.15 L 609.95 258.35 C 610.55 258.21667 610.98334 257.9 611.25 257.4 Z M 607.55 293.9 C 607.85 294.4 608.2833 294.71667 608.85 294.85 L 610.5 294.65 C 611.0 294.38333 611.31665 293.95 611.45 293.35 C 611.6167 292.78333 611.55005 292.25 611.25 291.75 C 610.98334 291.25 610.55 290.91666 609.95 290.75 L 608.35 290.95 C 607.85 291.25 607.51666 291.68332 607.35 292.25 C 607.2167 292.85 607.2833 293.4 607.55 293.9 Z M 624.8 305.6 C 624.6666 305.03333 624.35 304.59998 623.85 304.3 L 622.2 304.1 C 621.6333 304.26666 621.19995 304.6 620.9 305.1 C 620.63336 305.6 620.5667 306.13333 620.7 306.7 C 620.8667 307.30002 621.2 307.73334 621.7 308.0 L 623.3 308.2 C 623.9 308.06668 624.3334 307.75 624.6 307.25 C 624.89996 306.75 624.9666 306.2 624.8 305.6 Z M 671.55 294.65 L 673.15 294.85 C 673.75 294.71667 674.18335 294.4 674.45 293.9 C 674.75 293.4 674.81665 292.85 674.65 292.25 C 674.51666 291.68332 674.2 291.25 673.7 290.95 L 672.05 290.75 C 671.48334 290.91666 671.05 291.25 670.75 291.75 C 670.48334 292.25 670.4167 292.78333 670.55 293.35 C 670.7167 293.95 671.05 294.38333 671.55 294.65 Z M 641.0 308.9 C 640.43335 308.9 639.93335 309.11667 639.5 309.55 C 639.06665 309.98334 638.85 310.48334 638.85 311.05 C 638.85 311.61667 639.06665 312.11667 639.5 312.55 C 639.93335 312.98334 640.43335 313.2 641.0 313.2 C 641.56665 313.2 642.06665 312.98334 642.5 312.55 C 642.93335 312.11667 643.15 311.61667 643.15 311.05 C 643.15 310.48334 642.93335 309.98334 642.5 309.55 C 642.06665 309.11667 641.56665 308.9 641.0 308.9 Z M 657.4 307.25 C 657.7 307.75 658.13336 308.06668 658.7 308.2 L 660.35 308.0 C 660.85 307.73334 661.1666 307.30002 661.3 306.7 C 661.4667 306.13333 661.4 305.6 661.1 305.1 C 660.8333 304.6 660.39996 304.26666 659.8 304.1 L 658.2 304.3 C 657.7 304.6 657.3667 305.03336 657.2 305.6 C 657.06665 306.2 657.1333 306.75 657.4 307.25 Z"/>
			<path fill="#9EBBC7" stroke-linecap="round" stroke-linejoin="round" d="M 638.85 238.05 C 638.85 237.48334 639.06665 236.98334 639.5 236.55 C 639.93335 236.11667 640.43335 235.9 641.0 235.9 C 641.56665 235.9 642.06665 236.11667 642.5 236.55 C 642.93335 236.98334 643.15 237.48334 643.15 238.05 C 643.15 238.61667 642.93335 239.11667 642.5 239.55 C 642.06665 239.98334 641.56665 240.2 641.0 240.2 C 640.43335 240.2 639.93335 239.98334 639.5 239.55 C 639.06665 239.11667 638.85 238.61667 638.85 238.05 Z M 674.45 255.25 C 674.75 255.75 674.81665 256.28333 674.65 256.85 C 674.51666 257.45 674.2 257.88333 673.7 258.15 L 672.05 258.35 C 671.48334 258.21667 671.05 257.9 670.75 257.4 C 670.48334 256.9 670.4167 256.35 670.55 255.75 C 670.7167 255.18333 671.05 254.75 671.55 254.45 L 673.15 254.25 C 673.75 254.41667 674.18335 254.75 674.45 255.25 Z M 686.5 274.55 C 686.5 287.11667 682.05 297.83334 673.15 306.7 C 664.2833 315.6 653.56665 320.05 641.0 320.05 C 628.43335 320.05 617.7 315.6 608.8 306.7 C 601.06665 298.96667 596.7167 289.83334 595.75 279.3 L 595.5 274.55 C 595.5 261.98334 599.93335 251.25002 608.8 242.35 C 617.7 233.48334 628.43335 229.05 641.0 229.05 C 653.56665 229.05 664.2833 233.48334 673.15 242.35 C 682.05 251.25 686.5 261.98334 686.5 274.55 Z M 671.55 305.1 C 680.01666 296.7 684.25 286.51666 684.25 274.55 C 684.25 262.61667 680.01666 252.43333 671.55 244.0 C 663.15 235.56667 652.9667 231.35 641.0 231.35 C 629.06665 231.35 618.8833 235.56667 610.45 244.0 C 602.01666 252.43333 597.8 262.61667 597.8 274.55 L 598.05 279.3 C 599.01666 289.23334 603.15 297.83334 610.45 305.1 C 618.8833 313.56665 629.06665 317.8 641.0 317.8 C 652.9667 317.8 663.15 313.56665 671.55 305.1 Z M 611.45 255.75 C 611.6167 256.35 611.55005 256.9 611.25 257.4 C 610.98334 257.9 610.55 258.21667 609.95 258.35 L 608.35 258.15 C 607.85 257.88333 607.51666 257.45 607.35 256.85 C 607.2167 256.28333 607.2833 255.74998 607.55 255.25 C 607.85 254.75 608.2833 254.41667 608.85 254.25 L 610.5 254.45 C 611.0 254.75 611.31665 255.18333 611.45 255.75 Z M 608.85 294.85 C 608.2833 294.71667 607.85 294.4 607.55 293.9 C 607.2833 293.4 607.2167 292.85 607.35 292.25 C 607.51666 291.68332 607.85 291.25 608.35 290.95 L 609.95 290.75 C 610.55 290.91666 610.98334 291.25 611.25 291.75 C 611.55 292.25 611.61664 292.78333 611.45 293.35 C 611.31665 293.95 611.0 294.38333 610.5 294.65 L 608.85 294.85 Z M 673.15 294.85 L 671.55 294.65 C 671.05 294.38333 670.7167 293.95 670.55 293.35 C 670.4166 292.78333 670.4833 292.25 670.75 291.75 C 671.05 291.25 671.48334 290.91666 672.05 290.75 L 673.7 290.95 C 674.2 291.25 674.51666 291.68332 674.65 292.25 C 674.8167 292.85 674.75006 293.4 674.45 293.9 C 674.18335 294.4 673.75 294.71667 673.15 294.85 Z M 639.5 309.55 C 639.93335 309.11667 640.43335 308.9 641.0 308.9 C 641.56665 308.9 642.06665 309.11667 642.5 309.55 C 642.93335 309.98334 643.15 310.48334 643.15 311.05 C 643.15 311.61667 642.93335 312.11667 642.5 312.55 C 642.06665 312.98334 641.56665 313.2 641.0 313.2 C 640.43335 313.2 639.93335 312.98334 639.5 312.55 C 639.06665 312.11667 638.85 311.61667 638.85 311.05 C 638.85 310.48334 639.06665 309.98334 639.5 309.55 Z"/>
			<path fill="#BF5237" stroke-linecap="round" stroke-linejoin="round" d="M 641.0 244.3 L 641.05 244.3 C 649.3833 244.3 656.5 247.25 662.4 253.15 L 651.75 263.85 C 648.7833 260.9167 645.2167 259.45 641.05 259.45 L 641.0 244.3 Z M 641.05 259.45 L 641.0 259.45 Z M 671.3 274.55 C 671.3 282.91666 668.3333 290.03333 662.4 295.9 L 662.35 296.0 L 651.7 285.35 L 651.75 285.25 C 654.68335 282.31668 656.15 278.7667 656.15 274.6 L 671.3 274.55 Z M 656.15 274.6 L 656.15 274.55 Z M 641.0 304.8 C 632.6667 304.8 625.55005 301.85 619.65 295.95 L 630.35 285.25 C 633.2833 288.21667 636.8333 289.7 641.0 289.7 L 641.0 304.8 Z M 610.75 274.55 C 610.75 266.21664 613.68335 259.09998 619.55 253.2 L 630.3 263.95 C 627.3667 266.88333 625.9 270.41666 625.9 274.55 L 610.75 274.55 Z"/>
			<path fill="#9E442E" stroke-linecap="round" stroke-linejoin="round" d="M 662.4 253.15 C 668.3333 259.05 671.3 266.18332 671.3 274.55 L 656.15 274.55 C 656.15 270.38333 654.68335 266.81668 651.75 263.85 L 662.4 253.15 Z M 641.05 304.8 L 641.0 304.8 L 641.0 289.7 C 645.1667 289.7 648.73334 288.25 651.7 285.35 L 662.35 296.0 C 656.45 301.86667 649.35004 304.8 641.05 304.8 Z M 641.0 289.7 L 641.05 289.7 Z M 619.65 295.95 L 619.6 295.9 C 613.7 290.03333 610.75 282.91666 610.75 274.55 L 625.9 274.55 C 625.9 278.75 627.38336 282.31668 630.35 285.25 L 619.65 295.95 Z M 625.9 274.55 L 625.9 274.6 Z M 619.55 253.2 L 619.6 253.15 C 625.5333 247.25 632.6667 244.3 641.0 244.3 L 641.0 259.45 C 636.8333 259.45 633.2833 260.9167 630.35 263.85 L 630.3 263.95 L 619.55 253.2 Z"/>
			<path fill="#4A3C55" stroke-linecap="round" stroke-linejoin="round" d="M 641.0 259.45 L 641.05 259.45 C 645.2167 259.45 648.7833 260.9167 651.75 263.85 C 654.68335 266.81665 656.15 270.3833 656.15 274.55 C 656.15 278.75 654.68335 282.31668 651.75 285.25 L 651.7 285.35 C 648.73334 288.25 645.18335 289.7 641.05 289.7 C 636.85 289.7 633.2833 288.21667 630.35 285.25 C 627.38336 282.31668 625.9 278.7667 625.9 274.6 C 625.9 270.43335 627.3667 266.88336 630.3 263.95 L 630.35 263.85 C 633.2833 260.9167 636.8333 259.45 641.0 259.45 Z M 656.15 274.55 L 656.15 274.6 Z M 641.05 289.7 L 641.0 289.7 Z M 625.9 274.6 L 625.9 274.55 Z M 650.85 265.9 L 650.2 265.4 C 649.6 265.0 648.9333 264.8 648.2 264.8 C 647.1333 264.8 646.24994 265.16666 645.55 265.9 C 644.7833 266.63333 644.4 267.51666 644.4 268.55 C 644.4 269.28333 644.60004 269.94998 645.0 270.55 L 645.55 271.2 C 646.25 271.93332 647.13336 272.3 648.2 272.3 C 649.23334 272.3 650.11664 271.93332 650.85 271.2 C 651.55 270.46667 651.9 269.58334 651.9 268.55 C 651.9 267.51666 651.55 266.63333 650.85 265.9 Z"/>
			<path fill="#594A68" stroke-linecap="round" stroke-linejoin="round" d="M 650.2 265.4 L 650.85 265.9 C 651.55 266.63333 651.9 267.51666 651.9 268.55 C 651.9 269.58334 651.55 270.46667 650.85 271.2 C 650.11664 271.93332 649.23334 272.3 648.2 272.3 C 647.1333 272.3 646.24994 271.93332 645.55 271.2 L 645.0 270.55 C 644.60004 269.94998 644.4 269.28333 644.4 268.55 C 644.4 267.51666 644.7833 266.63333 645.55 265.9 C 646.25 265.16666 647.13336 264.8 648.2 264.8 C 648.93335 264.8 649.60004 265.0 650.2 265.4 Z"/>
			<path fill="#FFFFFF" stroke-linecap="round" stroke-linejoin="round" d="M 290.35 310.6 C 290.88333 310.2 291.41666 310.01666 291.95 310.05 L 296.0 310.05 C 296.6 310.05 297.15 310.23334 297.65 310.6 L 297.9 310.8 C 298.26666 311.13333 298.5 311.6 298.6 312.2 L 298.65 312.35 L 299.55 318.65 L 305.35 321.9 L 305.75 321.15 C 305.91666 320.65 306.25 320.28333 306.75 320.05 C 307.08334 319.78333 307.55002 319.65 308.15 319.65 L 308.85 319.65 L 310.0 319.9 C 310.5 320.06665 310.91666 320.46664 311.25 321.1 L 311.35 321.4 L 311.5 322.35 L 311.5 322.6 L 310.55 330.95 L 310.5 331.2 L 309.8 332.45 L 308.5 333.15 L 308.0 333.2 L 306.7 332.9 L 306.1 332.5 L 305.7 332.6 L 299.5 333.75 L 298.15 335.85 L 297.3 336.7 L 296.85 336.9 L 295.9 337.05 L 292.1 337.05 L 291.2 336.9 L 290.7 336.7 L 289.9 335.9 L 288.55 333.75 L 282.3 332.6 L 281.9 332.45 L 281.25 332.9 L 280.0 333.2 L 279.6 333.15 C 279.0 333.05 278.53333 332.81665 278.2 332.45 L 277.95 332.1 C 277.75 331.86667 277.6 331.56668 277.5 331.2 L 277.5 330.95 L 276.55 322.6 L 276.5 322.35 C 276.5 321.98334 276.55 321.66666 276.65 321.4 L 276.75 321.1 C 277.08334 320.46667 277.51666 320.06668 278.05 319.9 C 278.38333 319.7 278.73334 319.61667 279.1 319.65 L 279.8 319.65 L 281.15 320.0 L 282.1 320.95 L 282.65 321.9 C 284.61667 320.8333 286.56668 319.74997 288.5 318.65 L 289.4 312.35 L 289.4 312.2 C 289.5 311.6 289.75 311.13333 290.15 310.8 L 290.35 310.6 Z M 298.15 335.85 L 298.15 335.9 Z M 289.9 335.9 L 289.85 335.85 Z M 291.35 312.6 L 290.3 319.9 L 282.7 324.1 L 281.25 323.4 L 280.35 321.95 L 280.15 321.75 L 279.8 321.65 L 279.1 321.65 L 278.8 321.75 L 278.55 322.0 L 278.5 322.35 L 279.45 330.7 L 279.6 331.05 L 280.0 331.25 L 280.35 331.15 L 280.65 330.85 L 281.1 329.9 L 282.5 330.55 L 282.65 330.65 L 289.75 331.9 L 291.55 334.8 L 291.8 335.05 L 292.1 335.1 L 295.9 335.1 L 296.2 335.05 L 296.45 334.8 L 298.25 331.9 L 305.35 330.65 L 305.5 330.55 L 306.9 329.9 L 307.35 330.85 L 307.6 331.15 L 308.0 331.25 L 308.35 331.05 L 308.55 330.7 L 309.5 322.35 L 309.45 322.0 L 309.2 321.75 L 308.85 321.65 L 308.15 321.65 L 307.85 321.75 C 307.71667 321.78333 307.63333 321.85 307.6 321.95 L 306.75 323.4 L 305.25 324.1 L 297.7 319.9 L 296.65 312.6 L 296.45 312.2 L 296.0 312.05 L 291.95 312.05 C 291.81668 312.05 291.68335 312.1 291.55 312.2 L 291.35 312.6 Z"/>
			<path fill="#AC3939" stroke-linecap="round" stroke-linejoin="round" d="M 290.3 319.9 L 291.35 312.6 L 291.55 312.2 C 291.68332 312.1 291.81665 312.05 291.95 312.05 L 296.0 312.05 L 296.45 312.2 L 296.65 312.6 L 297.7 319.9 L 297.15 320.3 L 297.85 325.25 L 297.85 331.4 L 298.25 331.9 L 296.45 334.8 L 296.2 335.05 L 295.9 335.1 L 292.1 335.1 L 291.8 335.05 L 291.55 334.8 L 289.75 331.9 L 290.1 331.4 L 290.1 325.25 L 290.85 320.3 L 290.3 319.9 Z M 306.75 323.4 L 307.6 321.95 C 307.63333 321.85 307.71667 321.78333 307.85 321.75 L 308.15 321.65 L 308.85 321.65 L 309.2 321.75 L 309.45 322.0 L 309.5 322.35 L 308.55 330.7 L 308.35 331.05 L 308.0 331.25 L 307.6 331.15 L 307.35 330.85 L 306.9 329.9 L 307.2 329.05 L 307.2 323.9 L 306.75 323.4 Z M 281.1 329.9 L 280.65 330.85 L 280.35 331.15 L 280.0 331.25 L 279.6 331.05 L 279.45 330.7 L 278.5 322.35 L 278.55 322.0 L 278.8 321.75 L 279.1 321.65 L 279.8 321.65 L 280.15 321.75 L 280.35 321.95 L 281.25 323.4 L 280.8 323.9 L 280.8 329.05 L 281.1 329.9 Z M 296.3 322.8 L 291.7 322.8 L 291.35 325.25 L 296.6 325.25 L 296.3 322.8 Z"/>
			<path fill="#A8C7CE" stroke-linecap="round" stroke-linejoin="round" d="M 297.7 319.9 L 305.25 324.1 L 306.75 323.4 L 307.2 323.9 L 307.2 329.05 L 306.9 329.9 L 305.5 330.55 L 305.35 330.65 L 298.25 331.9 L 297.85 331.4 L 297.85 325.25 L 297.15 320.3 L 297.7 319.9 Z M 289.75 331.9 L 282.65 330.65 L 282.5 330.55 L 281.1 329.9 L 280.8 329.05 L 280.8 323.9 L 281.25 323.4 L 282.7 324.1 L 290.3 319.9 L 290.85 320.3 L 290.1 325.25 L 290.1 331.4 L 289.75 331.9 Z"/>
			<path fill="#4A3C55" stroke-linecap="round" stroke-linejoin="round" d="M 291.7 322.8 L 296.3 322.8 L 296.6 325.25 L 291.35 325.25 L 291.7 322.8 Z"/>
			<path fill="#5C4434" stroke-linecap="round" stroke-linejoin="round" d="M 193.0 311.1 L 193.85 311.55 L 237.35 349.85 C 237.68333 350.15 237.9 350.55 238.0 351.05 L 245.5 397.85 L 245.25 399.1 L 244.3 400.0 L 194.3 421.9 L 193.25 422.05 L 192.3 421.65 L 156.35 394.2 L 124.55 395.15 L 123.4 394.85 C 123.066666 394.61667 122.816666 394.31668 122.65 393.95 L 109.65 361.55 L 109.5 360.65 L 109.85 359.75 L 132.85 325.4 C 133.15001 324.96667 133.55 324.68335 134.05 324.55 L 192.05 311.1 L 193.0 311.1 Z M 243.5 398.15 L 236.0 351.35 L 192.5 313.05 L 134.5 326.5 L 111.5 360.8 L 124.5 393.2 L 157.0 392.2 L 193.5 420.05 L 243.5 398.15 Z"/>
			<path fill="#997055" stroke-linecap="round" stroke-linejoin="round" d="M 207.3 346.05 L 203.8 358.3 L 210.95 349.25 L 210.95 356.05 L 214.15 352.05 L 222.05 359.05 L 226.9 389.1 L 195.6 402.85 L 190.85 399.2 L 186.8 390.4 L 171.9 384.7 L 166.15 380.35 C 163.28334 378.18335 160.08334 377.15002 156.55 377.25 L 134.55 377.95 L 130.15 366.9 L 142.3 362.55 L 128.4 362.55 L 143.7 339.65 L 188.35 329.3 L 207.3 346.05 Z M 180.15 341.8 C 179.15 340.8 177.93333 340.3 176.5 340.3 C 175.06667 340.3 173.83333 340.8 172.8 341.8 C 171.8 342.83334 171.3 344.06668 171.3 345.5 C 171.3 346.93332 171.8 348.15 172.8 349.15 C 173.83334 350.15 175.06668 350.65 176.5 350.65 C 177.93333 350.65 179.15 350.15 180.15 349.15 C 181.18333 348.15 181.7 346.93332 181.7 345.5 C 181.7 344.06668 181.18333 342.83334 180.15 341.8 Z M 168.05 345.3 C 167.55 344.8 166.93333 344.55 166.2 344.55 C 165.46667 344.55 164.83334 344.8 164.3 345.3 C 163.8 345.83334 163.55 346.46667 163.55 347.2 C 163.55 347.93332 163.8 348.55 164.3 349.05 C 164.83334 349.55 165.46667 349.8 166.2 349.8 C 166.93333 349.8 167.55 349.55 168.05 349.05 C 168.58334 348.55 168.85 347.93332 168.85 347.2 C 168.85 346.46667 168.58334 345.83334 168.05 345.3 Z"/>
			<path fill="#836049" stroke-linecap="round" stroke-linejoin="round" d="M 203.8 358.3 L 207.3 346.05 L 188.35 329.3 L 143.7 339.65 L 128.4 362.55 L 142.3 362.55 L 130.15 366.9 L 134.55 377.95 L 156.55 377.25 C 160.08334 377.15 163.28334 378.18332 166.15 380.35 L 171.9 384.7 L 186.8 390.4 L 190.85 399.2 L 195.6 402.85 L 226.9 389.1 L 222.05 359.05 L 214.15 352.05 L 210.95 356.05 L 210.95 349.25 L 203.8 358.3 Z M 176.5 340.3 C 177.93333 340.3 179.15 340.8 180.15 341.8 C 181.18333 342.83334 181.7 344.06668 181.7 345.5 C 181.7 346.93332 181.18333 348.15 180.15 349.15 C 179.15 350.15 177.93333 350.65 176.5 350.65 C 175.06667 350.65 173.83333 350.15 172.8 349.15 C 171.8 348.15 171.3 346.93332 171.3 345.5 C 171.3 344.06668 171.8 342.83334 172.8 341.8 C 173.83334 340.8 175.06668 340.3 176.5 340.3 Z M 236.0 351.35 L 243.5 398.15 L 193.5 420.05 L 157.0 392.2 L 124.5 393.2 L 111.5 360.8 L 134.5 326.5 L 192.5 313.05 L 236.0 351.35 Z M 166.2 344.55 C 166.93333 344.55 167.55 344.8 168.05 345.3 C 168.58334 345.83334 168.85 346.46667 168.85 347.2 C 168.85 347.93332 168.58334 348.55 168.05 349.05 C 167.55 349.55 166.93333 349.8 166.2 349.8 C 165.46667 349.8 164.83334 349.55 164.3 349.05 C 163.8 348.55 163.55 347.93332 163.55 347.2 C 163.55 346.46667 163.8 345.83334 164.3 345.3 C 164.83334 344.8 165.46667 344.55 166.2 344.55 Z"/>
			<path fill="#5C4434" stroke-linecap="round" stroke-linejoin="round" d="M 125.7 407.1 C 126.03333 406.83334 126.433334 406.6667 126.9 406.6 L 152.65 405.05 C 153.08333 405.05 153.48334 405.15 153.85 405.35 L 154.6 406.3 L 163.35 426.45 L 163.45 427.65 L 162.8 428.7 L 142.95 446.6 L 141.85 447.05 L 140.65 446.9 L 120.6 436.9 C 120.2 436.7 119.899994 436.40002 119.7 436.0 C 119.5 435.53333 119.450005 435.1 119.55 434.7 L 125.05 408.25 C 125.183334 407.78333 125.4 407.4 125.7 407.1 Z M 152.75 407.05 L 127.05 408.65 L 121.5 435.1 L 141.55 445.1 L 161.45 427.25 L 152.75 407.05 Z"/>
			<path fill="#997055" stroke-linecap="round" stroke-linejoin="round" d="M 127.2 432.4 L 131.2 413.35 L 149.55 412.2 L 155.45 425.9 L 151.8 429.2 L 146.05 424.6 L 148.15 432.55 L 140.75 439.15 L 138.3 437.9 L 137.3 434.25 L 131.05 434.35 L 127.2 432.4 Z M 135.1 422.55 C 135.56667 422.98334 136.13333 423.2 136.8 423.2 C 137.46667 423.2 138.03334 422.98334 138.5 422.55 C 138.96666 422.08334 139.2 421.5167 139.2 420.85 C 139.2 420.18335 138.96666 419.61667 138.5 419.15 C 138.03334 418.68335 137.46667 418.45 136.8 418.45 C 136.13333 418.45 135.56667 418.68335 135.1 419.15 C 134.63333 419.61667 134.4 420.18335 134.4 420.85 C 134.4 421.51666 134.63333 422.0833 135.1 422.55 Z"/>
			<path fill="#836049" stroke-linecap="round" stroke-linejoin="round" d="M 131.2 413.35 L 127.2 432.4 L 131.05 434.35 L 137.3 434.25 L 138.3 437.9 L 140.75 439.15 L 148.15 432.55 L 146.05 424.6 L 151.8 429.2 L 155.45 425.9 L 149.55 412.2 L 131.2 413.35 Z M 127.05 408.65 L 152.75 407.05 L 161.45 427.25 L 141.55 445.1 L 121.5 435.1 L 127.05 408.65 Z M 136.8 423.2 C 136.13333 423.2 135.56667 422.98334 135.1 422.55 C 134.63333 422.08334 134.4 421.5167 134.4 420.85 C 134.4 420.18335 134.63333 419.61667 135.1 419.15 C 135.56667 418.68335 136.13333 418.45 136.8 418.45 C 137.46667 418.45 138.03334 418.68335 138.5 419.15 C 138.96666 419.61667 139.2 420.18335 139.2 420.85 C 139.2 421.51666 138.96666 422.0833 138.5 422.55 C 138.03334 422.98334 137.46667 423.2 136.8 423.2 Z"/>
			<path fill="#71CA35" stroke-linecap="round" stroke-linejoin="round" d="M 483.35 226.2 C 483.81665 226.66666 482.8833 228.43332 480.55 231.5 L 479.3 233.1 C 480.13333 234.26668 480.73334 235.53334 481.1 236.9 L 488.55 237.55 C 493.85 238.25 496.5 239.06667 496.5 240.0 C 496.5 240.96666 493.85 241.78333 488.55 242.45 L 481.1 243.15 C 480.73334 244.48332 480.13333 245.73332 479.3 246.9 L 480.55 248.5 C 482.88333 251.56667 483.81668 253.33333 483.35 253.8 C 482.85 254.3 481.08334 253.36667 478.05 251.0 L 476.45 249.75 C 475.28336 250.61667 474.0167 251.23334 472.65 251.6 L 471.95 259.05 C 471.25 264.35 470.43332 267.0 469.5 267.0 C 468.53333 267.0 467.71664 264.35 467.05 259.05 C 466.75 256.75 466.53333 254.26668 466.4 251.6 C 465.03333 251.23334 463.76666 250.63333 462.6 249.8 L 461.0 251.05 C 457.93332 253.38333 456.16666 254.31667 455.7 253.85 C 455.2 253.35 456.13333 251.58334 458.5 248.55 L 459.75 246.95 C 458.91666 245.78333 458.31665 244.51666 457.95 243.15 L 450.4 242.45 C 445.13333 241.78333 442.5 240.96666 442.5 240.0 C 442.5 239.06667 445.13333 238.25 450.4 237.55 L 457.95 236.9 C 458.31668 235.5 458.9167 234.21667 459.75 233.05 L 458.5 231.45 C 456.13333 228.41666 455.2 226.65 455.7 226.15 C 456.16666 225.68333 457.93332 226.61667 461.0 228.95 L 462.6 230.25 C 463.76666 229.38333 465.03333 228.78333 466.4 228.45 C 466.53333 225.71667 466.75 223.20001 467.05 220.9 C 467.71664 215.63333 468.53333 213.0 469.5 213.0 C 470.43332 213.0 471.25 215.63333 471.95 220.9 L 472.65 228.45 C 474.01666 228.81667 475.28333 229.41667 476.45 230.25 L 478.05 229.0 C 481.08334 226.63333 482.85 225.7 483.35 226.2 Z M 469.5 217.0 L 469.05 221.15 C 468.75 223.41667 468.53333 225.88335 468.4 228.55 L 467.95 229.75 L 466.9 230.4 C 465.76666 230.66667 464.73334 231.15001 463.8 231.85 C 463.43332 232.11667 463.01666 232.25 462.55 232.25 C 462.05 232.21666 461.63333 232.04999 461.3 231.75 C 461.6 232.15001 461.75 232.56668 461.75 233.0 L 461.4 234.25 C 460.7 235.18333 460.2 236.23334 459.9 237.4 L 459.2 238.45 C 458.86667 238.71667 458.48334 238.86667 458.05 238.9 L 450.65 239.55 L 446.5 240.0 L 450.65 240.5 L 458.1 241.15 C 458.5 241.18333 458.88333 241.33334 459.25 241.6 L 459.9 242.65 C 460.2 243.78334 460.7 244.83334 461.4 245.8 C 461.63333 246.16667 461.75 246.56667 461.75 247.0 L 461.3 248.2 C 461.69998 247.93333 462.11664 247.8 462.55 247.8 C 462.98334 247.8 463.4 247.93333 463.8 248.2 C 464.76666 248.86667 465.81668 249.36667 466.95 249.7 C 467.35 249.8 467.68335 250.01668 467.95 250.35 C 468.21667 250.68333 468.36667 251.06667 468.4 251.5 C 468.53333 254.09999 468.75 256.53333 469.05 258.8 L 469.5 263.0 L 470.0 258.8 L 470.65 251.5 C 470.68335 251.06667 470.83334 250.68333 471.1 250.35 C 471.36667 250.01668 471.71667 249.8 472.15 249.7 C 473.25 249.36667 474.28333 248.85 475.25 248.15 C 475.61667 247.88333 476.03333 247.75 476.5 247.75 C 476.93332 247.75 477.3333 247.9 477.7 248.2 C 477.43332 247.8 477.3 247.38333 477.3 246.95 C 477.3 246.51666 477.43332 246.11667 477.7 245.75 C 478.36667 244.78334 478.86667 243.75 479.2 242.65 C 479.30002 242.21666 479.5167 241.86667 479.85 241.6 C 480.18335 241.33333 480.56668 241.18332 481.0 241.15 L 488.3 240.5 L 492.5 240.0 L 488.3 239.55 L 481.0 238.9 L 479.85 238.45 C 479.51666 238.18333 479.3 237.85 479.2 237.45 C 478.86667 236.31667 478.36667 235.26666 477.7 234.3 L 477.3 233.05 C 477.3 232.61667 477.44998 232.21667 477.75 231.85 C 477.35 232.11667 476.93335 232.25 476.5 232.25 C 476.06668 232.25 475.6667 232.13333 475.3 231.9 C 474.33334 231.2 473.28336 230.7 472.15 230.4 L 471.1 229.75 C 470.83334 229.38333 470.68335 229.0 470.65 228.6 L 470.0 221.15 L 469.5 217.0 Z M 477.95 231.6 L 477.7 231.8 L 477.95 231.6 Z M 477.95 248.4 L 477.75 248.15 L 477.95 248.4 Z M 461.1 248.45 L 461.35 248.25 L 461.1 248.45 Z M 461.25 231.7 L 461.3 231.8 L 461.25 231.7 Z M 469.5 242.85 C 468.69998 242.85 468.01666 242.56667 467.45 242.0 C 466.91666 241.46666 466.65 240.79999 466.65 240.0 C 466.65 239.2 466.91666 238.51666 467.45 237.95 C 468.01666 237.41666 468.69998 237.15 469.5 237.15 C 470.30002 237.15 470.96667 237.41666 471.5 237.95 C 472.06668 238.51666 472.35 239.2 472.35 240.0 C 472.35 240.8 472.06668 241.46667 471.5 242.0 C 470.96667 242.56667 470.30002 242.85 469.5 242.85 Z"/>
			<path fill="#FFFFFF" stroke-linecap="round" stroke-linejoin="round" d="M 469.05 221.15 L 469.5 217.0 L 470.0 221.15 L 470.65 228.6 C 470.68335 229.0 470.83334 229.38333 471.1 229.75 L 472.15 230.4 C 473.28333 230.7 474.3333 231.2 475.3 231.9 C 475.66666 232.13333 476.06665 232.25 476.5 232.25 C 476.93332 232.25 477.3333 232.1 477.7 231.8 C 477.43332 232.2 477.3 232.61667 477.3 233.05 L 477.7 234.3 C 478.36667 235.26666 478.86667 236.31667 479.2 237.45 C 479.30002 237.85 479.5167 238.18333 479.85 238.45 L 481.0 238.9 L 488.3 239.55 L 492.5 240.0 L 488.3 240.5 L 481.0 241.15 C 480.56668 241.18333 480.18335 241.33334 479.85 241.6 C 479.51666 241.86667 479.3 242.21666 479.2 242.65 C 478.86667 243.75 478.36667 244.78334 477.7 245.75 C 477.43332 246.11667 477.3 246.51666 477.3 246.95 C 477.3 247.38333 477.44998 247.78333 477.75 248.15 C 477.35 247.88333 476.93335 247.75 476.5 247.75 C 476.03333 247.75 475.61667 247.88333 475.25 248.15 C 474.28333 248.84999 473.25 249.36665 472.15 249.7 C 471.71667 249.8 471.36667 250.01668 471.1 250.35 C 470.83334 250.68333 470.68335 251.06667 470.65 251.5 L 470.0 258.8 L 469.5 263.0 L 469.05 258.8 C 468.75 256.53333 468.53333 254.09999 468.4 251.5 C 468.36667 251.06667 468.21667 250.68333 467.95 250.35 C 467.68332 250.01668 467.34998 249.8 466.95 249.7 C 465.81668 249.36667 464.76666 248.86667 463.8 248.2 C 463.4 247.93333 462.98334 247.8 462.55 247.8 C 462.11667 247.8 461.71667 247.95 461.35 248.25 L 461.75 247.0 C 461.75 246.56667 461.63333 246.16667 461.4 245.8 C 460.7 244.83334 460.2 243.78334 459.9 242.65 L 459.25 241.6 C 458.88333 241.33333 458.5 241.18332 458.1 241.15 L 450.65 240.5 L 446.5 240.0 L 450.65 239.55 L 458.05 238.9 C 458.48334 238.86667 458.86667 238.71667 459.2 238.45 L 459.9 237.4 C 460.2 236.23332 460.7 235.18332 461.4 234.25 L 461.75 233.0 C 461.75 232.56667 461.6 232.16667 461.3 231.8 C 461.63333 232.06667 462.05 232.21666 462.55 232.25 C 463.01666 232.25 463.43332 232.11667 463.8 231.85 C 464.73334 231.15001 465.76666 230.66667 466.9 230.4 L 467.95 229.75 L 468.4 228.55 C 468.53333 225.88333 468.75 223.41666 469.05 221.15 Z M 477.7 231.8 L 477.95 231.6 L 477.75 231.85 Z M 477.75 248.15 L 477.95 248.4 L 477.7 248.2 Z M 461.35 248.25 L 461.1 248.45 L 461.3 248.2 Z M 461.3 231.8 L 461.25 231.7 L 461.3 231.75 Z M 467.45 242.0 C 468.01666 242.56667 468.69998 242.85 469.5 242.85 C 470.30002 242.85 470.96667 242.56667 471.5 242.0 C 472.06668 241.46666 472.35 240.79999 472.35 240.0 C 472.35 239.2 472.06668 238.51666 471.5 237.95 C 470.96667 237.41666 470.30002 237.15 469.5 237.15 C 468.69998 237.15 468.01666 237.41666 467.45 237.95 C 466.91666 238.51666 466.65 239.2 466.65 240.0 C 466.65 240.8 466.91666 241.46667 467.45 242.0 Z"/>
			<path fill="#CE3131" stroke-linecap="round" stroke-linejoin="round" d="M 558.55 242.45 L 551.1 243.15 C 550.73334 244.48332 550.13336 245.73332 549.3 246.9 L 550.55 248.5 C 552.8833 251.56667 553.81665 253.33333 553.35 253.8 C 552.85 254.3 551.0833 253.36667 548.05 251.0 L 546.45 249.75 C 545.2833 250.61667 544.01666 251.23334 542.65 251.6 L 541.95 259.05 C 541.25 264.35 540.43335 267.0 539.5 267.0 C 538.5333 267.0 537.7167 264.35 537.05 259.05 C 536.75 256.75 536.5333 254.26668 536.4 251.6 C 535.0333 251.23334 533.76666 250.63333 532.6 249.8 L 531.0 251.05 C 527.93335 253.38333 526.1667 254.31667 525.7 253.85 C 525.2 253.35 526.13336 251.58334 528.5 248.55 L 529.75 246.95 C 528.9167 245.78333 528.3167 244.51666 527.95 243.15 L 520.4 242.45 C 515.13336 241.78333 512.5 240.96666 512.5 240.0 C 512.5 239.06667 515.13336 238.25 520.4 237.55 L 527.95 236.9 C 528.31665 235.5 528.9166 234.21667 529.75 233.05 L 528.5 231.45 C 526.13336 228.41666 525.2 226.65 525.7 226.15 C 526.1667 225.68333 527.93335 226.61667 531.0 228.95 L 532.6 230.25 C 533.76666 229.38333 535.0333 228.78333 536.4 228.45 C 536.5333 225.71667 536.75 223.20001 537.05 220.9 C 537.7167 215.63333 538.5333 213.0 539.5 213.0 C 540.43335 213.0 541.25 215.63333 541.95 220.9 L 542.65 228.45 C 544.01666 228.81667 545.2833 229.41667 546.45 230.25 L 548.05 229.0 C 551.0833 226.63333 552.85 225.7 553.35 226.2 C 553.81665 226.66666 552.8833 228.43332 550.55 231.5 L 549.3 233.1 C 550.1333 234.26668 550.7333 235.53334 551.1 236.9 L 558.55 237.55 C 563.85 238.25 566.5 239.06667 566.5 240.0 C 566.5 240.96666 563.85 241.78333 558.55 242.45 Z M 558.3 240.5 L 562.5 240.0 L 558.3 239.55 L 551.0 238.9 C 550.56665 238.86667 550.1833 238.71667 549.85 238.45 C 549.51666 238.18333 549.3 237.85 549.2 237.45 C 548.8667 236.31667 548.3667 235.26666 547.7 234.3 L 547.3 233.05 C 547.3 232.61667 547.45 232.21667 547.75 231.85 L 546.5 232.25 C 546.06665 232.25 545.6666 232.13333 545.3 231.9 C 544.3333 231.2 543.2833 230.7 542.15 230.4 L 541.1 229.75 C 540.8333 229.38333 540.68335 229.0 540.65 228.6 L 540.0 221.15 L 539.5 217.0 L 539.05 221.15 C 538.75 223.41667 538.5333 225.88335 538.4 228.55 L 537.95 229.75 C 537.65 230.08333 537.30005 230.29999 536.9 230.4 C 535.76666 230.66667 534.73334 231.15001 533.8 231.85 C 533.43335 232.11667 533.01666 232.25 532.55 232.25 C 532.05 232.21666 531.6333 232.04999 531.3 231.75 C 531.6 232.15001 531.75 232.56668 531.75 233.0 L 531.4 234.25 C 530.7 235.18333 530.2 236.23334 529.9 237.4 L 529.2 238.45 L 528.05 238.9 L 520.65 239.55 L 516.5 240.0 L 520.65 240.5 L 528.1 241.15 C 528.5 241.18333 528.88336 241.33334 529.25 241.6 L 529.9 242.65 C 530.2 243.78334 530.7 244.83334 531.4 245.8 C 531.63336 246.16667 531.75 246.56667 531.75 247.0 L 531.3 248.2 C 531.7 247.93333 532.1167 247.8 532.55 247.8 C 532.98334 247.8 533.4 247.93333 533.8 248.2 C 534.76666 248.86667 535.81665 249.36667 536.95 249.7 C 537.35 249.8 537.6833 250.01668 537.95 250.35 C 538.2167 250.68333 538.3667 251.06667 538.4 251.5 C 538.5333 254.09999 538.75 256.53333 539.05 258.8 L 539.5 263.0 L 540.0 258.8 L 540.65 251.5 C 540.68335 251.06667 540.8333 250.68333 541.1 250.35 C 541.36664 250.01668 541.7167 249.8 542.15 249.7 C 543.25 249.36667 544.2833 248.85 545.25 248.15 C 545.61664 247.88333 546.0333 247.75 546.5 247.75 C 546.93335 247.75 547.3334 247.9 547.7 248.2 C 547.43335 247.8 547.3 247.38333 547.3 246.95 C 547.3 246.51666 547.43335 246.11667 547.7 245.75 C 548.3667 244.78334 548.8667 243.75 549.2 242.65 C 549.3 242.21666 549.51666 241.86667 549.85 241.6 C 550.1833 241.33333 550.56665 241.18332 551.0 241.15 L 558.3 240.5 Z M 547.95 248.4 L 547.75 248.15 L 547.95 248.4 Z M 531.1 248.45 L 531.35 248.25 L 531.1 248.45 Z M 531.25 231.7 L 531.3 231.8 L 531.25 231.7 Z M 547.95 231.6 L 547.7 231.8 L 547.95 231.6 Z M 537.45 242.0 C 536.9167 241.46666 536.65 240.79999 536.65 240.0 C 536.65 239.2 536.9167 238.51666 537.45 237.95 C 538.01666 237.41666 538.7 237.15 539.5 237.15 C 540.3 237.15 540.9667 237.41666 541.5 237.95 C 542.06665 238.51666 542.35 239.2 542.35 240.0 C 542.35 240.8 542.06665 241.46667 541.5 242.0 C 540.9667 242.56667 540.3 242.85 539.5 242.85 C 538.7 242.85 538.01666 242.56667 537.45 242.0 Z"/>
			<path fill="#FFFFFF" stroke-linecap="round" stroke-linejoin="round" d="M 562.5 240.0 L 558.3 240.5 L 551.0 241.15 C 550.56665 241.18333 550.1833 241.33334 549.85 241.6 C 549.51666 241.86667 549.3 242.21666 549.2 242.65 C 548.8667 243.75 548.3667 244.78334 547.7 245.75 C 547.43335 246.11667 547.3 246.51666 547.3 246.95 C 547.3 247.38333 547.45 247.78333 547.75 248.15 C 547.35004 247.88333 546.93335 247.75 546.5 247.75 C 546.0333 247.75 545.61664 247.88333 545.25 248.15 C 544.2833 248.84999 543.25 249.36665 542.15 249.7 C 541.7167 249.8 541.36664 250.01668 541.1 250.35 C 540.8333 250.68333 540.68335 251.06667 540.65 251.5 L 540.0 258.8 L 539.5 263.0 L 539.05 258.8 C 538.75 256.53333 538.5333 254.09999 538.4 251.5 C 538.36664 251.06667 538.2166 250.68333 537.95 250.35 C 537.68335 250.01668 537.35004 249.8 536.95 249.7 C 535.81665 249.36667 534.76666 248.86667 533.8 248.2 C 533.4 247.93333 532.98334 247.8 532.55 247.8 C 532.1167 247.8 531.7167 247.95 531.35 248.25 L 531.75 247.0 C 531.75 246.56667 531.63336 246.16667 531.4 245.8 C 530.7 244.83334 530.2 243.78334 529.9 242.65 L 529.25 241.6 C 528.88336 241.33333 528.5 241.18332 528.1 241.15 L 520.65 240.5 L 516.5 240.0 L 520.65 239.55 L 528.05 238.9 L 529.2 238.45 L 529.9 237.4 C 530.2 236.23332 530.7 235.18332 531.4 234.25 L 531.75 233.0 C 531.75 232.56667 531.6 232.16667 531.3 231.8 C 531.6333 232.06667 532.05 232.21666 532.55 232.25 C 533.01666 232.25 533.43335 232.11667 533.8 231.85 C 534.73334 231.15001 535.76666 230.66667 536.9 230.4 C 537.3 230.3 537.64996 230.08334 537.95 229.75 L 538.4 228.55 C 538.5333 225.88333 538.75 223.41666 539.05 221.15 L 539.5 217.0 L 540.0 221.15 L 540.65 228.6 C 540.68335 229.0 540.8333 229.38333 541.1 229.75 L 542.15 230.4 C 543.2833 230.7 544.3333 231.2 545.3 231.9 C 545.6666 232.13333 546.06665 232.25 546.5 232.25 L 547.7 231.8 C 547.43335 232.2 547.3 232.61667 547.3 233.05 L 547.7 234.3 C 548.3667 235.26666 548.8667 236.31667 549.2 237.45 C 549.3 237.85 549.51666 238.18333 549.85 238.45 C 550.1833 238.71667 550.56665 238.86667 551.0 238.9 L 558.3 239.55 L 562.5 240.0 Z M 547.75 248.15 L 547.95 248.4 L 547.7 248.2 Z M 531.35 248.25 L 531.1 248.45 L 531.3 248.2 Z M 531.3 231.8 L 531.25 231.7 L 531.3 231.75 Z M 547.7 231.8 L 547.95 231.6 L 547.75 231.85 Z M 536.65 240.0 C 536.65 240.8 536.9167 241.46667 537.45 242.0 C 538.01666 242.56667 538.7 242.85 539.5 242.85 C 540.3 242.85 540.9667 242.56667 541.5 242.0 C 542.06665 241.46666 542.35 240.79999 542.35 240.0 C 542.35 239.2 542.06665 238.51666 541.5 237.95 C 540.9667 237.41666 540.3 237.15 539.5 237.15 C 538.7 237.15 538.01666 237.41666 537.45 237.95 C 536.9167 238.51666 536.65 239.2 536.65 240.0 Z"/>
			<path fill="#71CA35" stroke-linecap="round" stroke-linejoin="round" d="M 472.2 284.75 C 473.06668 285.58334 473.5 286.61667 473.5 287.85 L 473.5 312.15 C 473.5 313.35 473.08334 314.35 472.25 315.15 L 472.1 315.3 L 470.8 316.15 L 469.0 316.5 L 467.15 316.15 C 466.65 315.95 466.18332 315.65002 465.75 315.25 C 464.91666 314.41666 464.5 313.38333 464.5 312.15 L 464.5 287.85 C 464.5 286.65 464.9 285.63333 465.7 284.8 L 465.8 284.7 C 466.66666 283.9 467.71667 283.5 468.95 283.5 C 470.25 283.5 471.33334 283.91666 472.2 284.75 Z M 469.0 316.5 L 468.95 316.5 Z M 468.95 283.5 L 469.0 283.5 Z M 466.55 287.85 L 466.55 312.15 C 466.55 312.81665 466.76666 313.36664 467.2 313.8 C 467.7 314.26666 468.28336 314.5 468.95 314.5 C 469.68332 314.5 470.26666 314.26666 470.7 313.8 C 471.2 313.36667 471.45 312.81668 471.45 312.15 L 471.45 287.85 C 471.45 287.18335 471.2 286.61667 470.7 286.15 C 470.26666 285.71667 469.69998 285.5 469.0 285.5 C 468.30002 285.5 467.7 285.71667 467.2 286.15 C 466.76666 286.61667 466.55 287.18335 466.55 287.85 Z M 468.95 314.5 L 469.0 314.5 Z M 469.0 285.5 L 468.95 285.5 Z"/>
			<path fill="url(#Grad1)" stroke-linecap="round" stroke-linejoin="round" d="M 466.55 312.15 L 466.55 287.85 C 466.55 287.18335 466.76666 286.61667 467.2 286.15 C 467.7 285.71667 468.28336 285.5 468.95 285.5 C 469.68332 285.5 470.26666 285.71667 470.7 286.15 C 471.2 286.61667 471.45 287.18335 471.45 287.85 L 471.45 312.15 C 471.45 312.81665 471.2 313.36664 470.7 313.8 C 470.26666 314.26666 469.69998 314.5 469.0 314.5 C 468.30002 314.5 467.7 314.26666 467.2 313.8 C 466.76666 313.36667 466.55 312.81668 466.55 312.15 Z M 469.0 314.5 L 468.95 314.5 Z M 468.95 285.5 L 469.0 285.5 Z"/>
			<path fill="#CE3131" stroke-linecap="round" stroke-linejoin="round" d="M 535.8 284.75 L 537.2 283.85 L 539.0 283.5 L 540.85 283.85 L 542.15 284.7 L 542.3 284.85 C 543.1 285.65 543.5 286.65 543.5 287.85 L 543.5 312.15 C 543.5 313.38333 543.0833 314.41666 542.25 315.25 C 541.38336 316.08334 540.3167 316.5 539.05 316.5 C 537.7833 316.5 536.7167 316.1 535.85 315.3 L 535.75 315.2 C 534.9167 314.36667 534.5 313.35 534.5 312.15 L 534.5 287.85 C 534.5 286.61667 534.93335 285.58334 535.8 284.75 Z M 539.05 316.5 L 539.0 316.5 Z M 539.0 283.5 L 539.05 283.5 Z M 539.05 285.5 L 539.0 285.5 C 538.3 285.5 537.7167 285.73334 537.25 286.2 C 536.7833 286.63333 536.55 287.18332 536.55 287.85 L 536.55 312.15 C 536.55 312.81665 536.7833 313.38333 537.25 313.85 C 537.7167 314.28333 538.3 314.5 539.0 314.5 C 539.7 314.5 540.2833 314.28333 540.75 313.85 C 541.2167 313.38333 541.45 312.81665 541.45 312.15 L 541.45 287.85 C 541.45 287.18335 541.2167 286.63336 540.75 286.2 C 540.2833 285.73334 539.7167 285.5 539.05 285.5 Z M 539.0 314.5 L 539.05 314.5 Z"/>
			<path fill="url(#Grad2)" stroke-linecap="round" stroke-linejoin="round" d="M 539.0 285.5 L 539.05 285.5 C 539.7167 285.5 540.2833 285.73334 540.75 286.2 C 541.2167 286.63333 541.45 287.18332 541.45 287.85 L 541.45 312.15 C 541.45 312.81665 541.2167 313.38333 540.75 313.85 C 540.2833 314.28333 539.7167 314.5 539.05 314.5 C 538.31665 314.5 537.7167 314.28333 537.25 313.85 C 536.7833 313.38333 536.55 312.81665 536.55 312.15 L 536.55 287.85 C 536.55 287.18335 536.7833 286.63336 537.25 286.2 C 537.7167 285.73334 538.3 285.5 539.0 285.5 Z M 539.05 314.5 L 539.0 314.5 Z"/>
			<path fill="#CCCCCC" stroke-linecap="round" stroke-linejoin="round" d="M 415.2 396.1 L 418.6 372.25 C 418.6667 371.71667 418.88336 371.28336 419.25 370.95 C 419.61667 370.61667 420.05 370.45 420.55 370.45 L 433.5 370.45 C 434.0 370.45 434.43332 370.61667 434.8 370.95 C 435.16666 371.28336 435.4 371.71667 435.5 372.25 L 438.9 396.1 L 437.05 397.35 L 433.5 372.5 L 420.55 372.5 L 417.0 397.35 L 415.2 396.1 Z M 440.6 435.2 L 434.8 444.5 L 434.1 445.2 L 433.1 445.45 L 431.35 445.45 L 431.35 443.45 L 433.1 443.45 L 439.35 433.3 L 440.6 435.2 Z M 422.7 445.45 L 420.95 445.45 L 420.0 445.2 L 419.25 444.5 L 413.45 435.2 L 414.65 433.3 L 420.95 443.45 L 422.7 443.45 L 422.7 445.45 Z"/>
			<path fill="#9EBBC7" stroke-linecap="round" stroke-linejoin="round" d="M 438.9 396.1 L 463.0 409.8 L 467.75 407.55 L 469.2 409.05 L 462.9 412.05 L 441.2 399.75 L 437.05 397.35 L 438.9 396.1 Z M 468.25 428.6 L 463.75 430.7 L 463.3 430.9 L 460.8 431.35 L 460.8 429.3 L 462.9 428.9 L 469.2 425.85 L 468.25 428.6 Z M 443.15 434.7 L 440.6 435.2 L 439.35 433.3 L 443.15 432.6 L 443.15 434.7 Z M 413.45 435.2 L 410.9 434.7 L 410.9 432.6 L 414.65 433.3 L 413.45 435.2 Z M 393.15 431.35 L 390.75 430.9 L 390.25 430.7 L 385.8 428.6 L 384.8 425.85 L 391.1 428.9 L 393.15 429.3 L 393.15 431.35 Z M 386.25 407.55 L 391.0 409.8 L 415.2 396.1 L 417.0 397.35 L 412.85 399.75 L 391.1 412.05 L 384.8 409.05 L 386.25 407.55 Z"/>
			<path fill="#802B2B" stroke-linecap="round" stroke-linejoin="round" d="M 467.75 407.55 L 470.45 402.7 C 470.61667 402.36667 470.86667 402.11667 471.2 401.95 L 472.2 401.65 L 474.5 401.65 C 474.86667 401.65 475.21667 401.75 475.55 401.95 L 476.3 402.8 L 476.5 403.9 L 473.45 431.05 L 472.9 432.2 C 472.6 432.5 472.23334 432.69998 471.8 432.8 L 470.5 432.6 C 470.1 432.36667 469.81668 432.05 469.65 431.65 L 468.25 428.6 L 469.2 425.85 L 471.45 430.8 L 474.5 403.65 L 472.2 403.65 L 469.2 409.05 L 467.75 407.55 Z M 431.35 445.45 L 422.7 445.45 L 422.7 443.45 L 431.35 443.45 L 431.35 445.45 Z M 385.8 428.6 L 384.4 431.65 L 383.5 432.6 L 382.25 432.8 C 381.78333 432.69998 381.4 432.5 381.1 432.2 C 380.8 431.86667 380.63333 431.48334 380.6 431.05 L 377.55 403.9 C 377.48334 403.5 377.53336 403.13333 377.7 402.8 C 377.86667 402.43332 378.11667 402.15 378.45 401.95 C 378.78336 401.75 379.13336 401.65 379.5 401.65 L 381.75 401.65 C 382.11667 401.65 382.45 401.75 382.75 401.95 L 383.5 402.65 L 386.25 407.55 L 384.8 409.05 L 381.75 403.65 L 379.5 403.65 L 382.55 430.8 L 384.8 425.85 L 385.8 428.6 Z"/>
			<path fill="#CAA202" stroke-linecap="round" stroke-linejoin="round" d="M 460.8 431.35 L 443.15 434.7 L 443.15 432.6 L 447.55 431.75 L 452.0 430.95 L 456.4 430.15 L 460.8 429.3 L 460.8 431.35 Z M 410.9 434.7 L 393.15 431.35 L 393.15 429.3 L 397.6 430.15 L 402.05 430.95 L 406.45 431.75 L 410.9 432.6 L 410.9 434.7 Z"/>
			<path fill="#F2F2F2" stroke-linecap="round" stroke-linejoin="round" d="M 417.0 397.35 L 420.55 372.5 L 433.5 372.5 L 437.05 397.35 L 439.35 413.45 L 439.35 433.3 L 433.1 443.45 L 431.35 443.45 L 436.5 434.95 L 436.5 413.45 L 432.6 376.0 L 421.4 376.0 L 417.5 413.45 L 417.5 434.95 L 422.7 443.45 L 420.95 443.45 L 414.65 433.3 L 414.65 413.45 L 417.0 397.35 Z"/>
			<path fill="#BDD6DB" stroke-linecap="round" stroke-linejoin="round" d="M 412.85 399.75 L 417.0 397.35 L 414.65 413.45 L 414.65 433.3 L 410.9 432.6 L 410.9 427.25 L 410.9 426.25 L 410.9 413.45 L 412.85 399.75 Z M 439.35 433.3 L 439.35 413.45 L 437.05 397.35 L 441.2 399.75 L 443.15 413.45 L 443.15 426.25 L 443.15 427.25 L 443.15 432.6 L 439.35 433.3 Z"/>
			<path fill="#D3E1E7" stroke-linecap="round" stroke-linejoin="round" d="M 412.85 399.75 L 410.9 413.45 L 410.9 426.25 L 393.15 423.0 L 393.15 423.95 L 393.15 429.3 L 391.1 428.9 L 391.1 412.05 L 412.85 399.75 Z M 441.2 399.75 L 462.9 412.05 L 462.9 428.9 L 460.8 429.3 L 460.8 423.95 L 460.8 423.0 L 443.15 426.25 L 443.15 413.45 L 441.2 399.75 Z"/>
			<path fill="#B9CED7" stroke-linecap="round" stroke-linejoin="round" d="M 410.9 426.25 L 410.9 427.25 L 406.45 426.4 L 402.05 425.6 L 397.6 424.75 L 393.15 423.95 L 393.15 423.0 L 410.9 426.25 Z M 391.1 412.05 L 391.1 428.9 L 384.8 425.85 L 384.8 409.05 L 391.1 412.05 Z M 462.9 412.05 L 469.2 409.05 L 469.2 425.85 L 462.9 428.9 L 462.9 412.05 Z M 452.0 425.6 L 447.55 426.4 L 443.15 427.25 L 443.15 426.25 L 460.8 423.0 L 460.8 423.95 L 456.4 424.75 L 452.0 425.6 Z"/>
			<path fill="#FFCC00" stroke-linecap="round" stroke-linejoin="round" d="M 410.9 427.25 L 410.9 432.6 L 406.45 431.75 L 406.45 426.4 L 410.9 427.25 Z M 397.6 424.75 L 402.05 425.6 L 402.05 430.95 L 397.6 430.15 L 397.6 424.75 Z M 447.55 426.4 L 447.55 431.75 L 443.15 432.6 L 443.15 427.25 L 447.55 426.4 Z M 452.0 430.95 L 452.0 425.6 L 456.4 424.75 L 456.4 430.15 L 452.0 430.95 Z"/>
			<path fill="#AC3939" stroke-linecap="round" stroke-linejoin="round" d="M 434.4 405.35 L 434.25 403.95 L 419.8 403.95 L 419.65 405.35 L 418.65 413.45 L 435.35 413.45 L 434.4 405.35 Z M 384.8 409.05 L 384.8 425.85 L 382.55 430.8 L 379.5 403.65 L 381.75 403.65 L 384.8 409.05 Z M 422.7 443.45 L 417.5 434.95 L 417.5 413.45 L 421.4 376.0 L 432.6 376.0 L 436.5 413.45 L 436.5 434.95 L 431.35 443.45 L 422.7 443.45 Z M 471.45 430.8 L 469.2 425.85 L 469.2 409.05 L 472.2 403.65 L 474.5 403.65 L 471.45 430.8 Z"/>
			<path fill="#C44D4D" stroke-linecap="round" stroke-linejoin="round" d="M 434.25 403.95 L 434.4 405.35 L 419.65 405.35 L 419.8 403.95 L 434.25 403.95 Z"/>
			<path fill="#4A3C55" stroke-linecap="round" stroke-linejoin="round" d="M 419.65 405.35 L 434.4 405.35 L 435.35 413.45 L 418.65 413.45 L 419.65 405.35 Z"/>
			<path fill="#ECBD02" stroke-linecap="round" stroke-linejoin="round" d="M 393.15 429.3 L 393.15 423.95 L 397.6 424.75 L 397.6 430.15 L 393.15 429.3 Z M 402.05 425.6 L 406.45 426.4 L 406.45 431.75 L 402.05 430.95 L 402.05 425.6 Z M 447.55 431.75 L 447.55 426.4 L 452.0 425.6 L 452.0 430.95 L 447.55 431.75 Z M 456.4 430.15 L 456.4 424.75 L 460.8 423.95 L 460.8 429.3 L 456.4 430.15 Z"/>
		</g>
		<g transform="matrix(1.0033417 0.0 0.0 1.0067139 530.35 407.95)">
			<g transform="matrix(1.0 0.0 0.0 1.0 0.0 0.0)">
				<path fill="#CCCCCC" stroke-linecap="round" stroke-linejoin="round" d="M -11.9 -11.75 L -8.95 -35.45 L -8.4 -36.7 C -8.066667 -37.033333 -7.6833334 -37.2 -7.25 -37.2 L 7.3 -37.2 C 7.733333 -37.2 8.099999 -37.033333 8.4 -36.7 C 8.733333 -36.36667 8.933332 -35.95 9.0 -35.45 L 12.0 -11.75 L 11.9 -11.65 L 10.35 -10.5 L 7.3 -35.2 L -4.0 -35.2 L -7.1 -10.5 L -8.65 -11.75 L -8.8 -11.65 L -8.9 -11.75 L -9.05 -11.65 L -9.15 -11.75 L -9.3 -11.65 L -9.4 -11.75 L -9.55 -11.65 L -9.65 -11.75 L -9.8 -11.65 L -9.9 -11.75 L -10.15 -11.55 L -10.4 -11.75 L -10.55 -11.65 L -10.65 -11.75 L -10.8 -11.65 L -10.9 -11.75 L -11.05 -11.65 L -11.15 -11.75 L -11.3 -11.65 L -11.4 -11.75 L -11.55 -11.65 L -11.65 -11.75 L -11.8 -11.65 L -11.9 -11.75 Z M 8.4 36.3 L 7.8 37.0 L 6.95 37.25 L 5.4 37.25 L 5.4 35.25 L 6.95 35.25 L 12.35 25.2 L 13.45 27.0 L 8.4 36.3 Z M 13.45 27.0 L 13.45 27.05 Z M -2.15 37.25 L -6.9 37.25 L -7.75 37.0 L -8.4 36.3 L -13.45 27.05 L -13.2 27.05 L -12.95 27.05 L -12.7 27.05 L -12.45 27.05 L -12.2 27.05 L -11.95 27.05 L -11.9 26.95 L -11.45 27.05 L -11.2 27.05 L -10.95 27.05 L -10.7 27.05 L -10.45 27.05 L -10.2 27.05 L -9.15 25.2 L -3.65 35.25 L -2.15 35.25 L -2.15 37.25 Z M -13.45 27.05 L -13.4 27.0 Z M -13.2 27.05 L -13.15 27.0 Z M -10.45 27.05 L -10.4 27.0 Z M -10.7 27.05 L -10.65 27.0 Z M -10.95 27.05 L -10.9 27.0 Z M -11.2 27.05 L -11.15 27.0 Z M -11.45 27.05 L -11.4 27.0 Z M -12.2 27.05 L -12.15 27.0 Z M -12.45 27.05 L -12.4 27.0 Z M -12.7 27.05 L -12.65 27.0 Z M -12.95 27.05 L -12.9 27.0 Z"/>
				<path fill="#9EBBC7" stroke-linecap="round" stroke-linejoin="round" d="M 12.0 -11.75 L 31.45 0.9 L 33.85 -0.4 L 33.95 -0.3 L 34.1 -0.4 L 34.2 -0.3 L 34.35 -0.4 L 34.45 -0.3 L 34.6 -0.4 L 34.7 -0.3 L 34.85 -0.4 L 34.95 -0.3 L 35.1 -0.4 L 35.2 -0.3 L 35.35 -0.4 L 35.5 -0.2 L 35.85 -0.4 L 35.95 -0.3 L 36.1 -0.4 L 36.2 -0.3 L 36.35 -0.4 L 36.45 -0.3 L 36.6 -0.4 L 36.7 -0.3 L 36.85 -0.4 L 36.95 -0.3 L 37.1 -0.4 L 38.4 1.1 L 32.9 4.1 L 14.0 -8.15 L 10.35 -10.5 L 11.9 -11.65 L 12.0 -11.75 Z M 34.95 21.95 L 33.65 22.6 L 33.25 22.8 L 31.05 23.25 L 31.05 21.2 L 32.9 20.8 L 38.4 17.8 L 37.55 20.5 L 34.95 21.95 Z M 15.7 24.5 L 15.7 26.55 L 13.45 27.05 L 12.35 25.2 L 15.7 24.5 Z M 13.45 27.05 L 13.45 27.0 Z M -15.65 26.55 L -15.65 26.5 L -15.4 26.55 L -15.15 26.55 L -14.9 26.55 L -14.65 26.55 L -14.4 26.55 L -14.15 26.55 L -14.15 26.45 L -13.65 26.55 L -13.4 26.55 L -13.15 26.55 L -12.9 26.55 L -12.65 26.55 L -12.4 26.55 L -12.4 24.5 L -9.15 25.2 L -10.2 27.05 L -10.4 27.0 L -10.65 27.0 L -10.9 27.0 L -11.15 27.0 L -11.4 27.0 L -11.9 26.95 L -11.95 27.05 L -12.15 27.0 L -12.4 27.0 L -12.65 27.0 L -12.9 27.0 L -13.15 27.0 L -13.4 27.0 L -15.65 26.55 Z M -13.4 27.0 L -13.45 27.05 Z M -15.4 26.55 L -15.4 26.5 Z M -13.15 27.0 L -13.2 27.05 Z M -15.15 26.55 L -15.15 26.5 Z M -12.9 27.0 L -12.95 27.05 Z M -14.9 26.55 L -14.9 26.5 Z M -12.65 27.0 L -12.7 27.05 Z M -14.65 26.55 L -14.65 26.5 Z M -12.4 27.0 L -12.45 27.05 Z M -14.4 26.55 L -14.4 26.5 Z M -12.15 27.0 L -12.2 27.05 Z M -13.65 26.55 L -13.65 26.5 Z M -11.4 27.0 L -11.45 27.05 Z M -13.4 26.55 L -13.4 26.5 Z M -11.15 27.0 L -11.2 27.05 Z M -13.15 26.55 L -13.15 26.5 Z M -10.9 27.0 L -10.95 27.05 Z M -12.9 26.55 L -12.9 26.5 Z M -10.65 27.0 L -10.7 27.05 Z M -12.65 26.55 L -12.65 26.5 Z M -10.4 27.0 L -10.45 27.05 Z M -33.15 22.8 L -33.6 22.6 L -34.8 21.95 L -34.25 20.5 L -35.1 17.8 L -29.6 20.8 L -27.85 21.2 L -27.85 23.25 L -28.1 23.2 L -28.35 23.2 L -28.6 23.2 L -28.85 23.2 L -29.1 23.2 L -29.6 23.15 L -29.6 23.25 L -29.85 23.2 L -30.1 23.2 L -30.35 23.2 L -30.6 23.2 L -30.85 23.2 L -31.1 23.2 L -33.15 22.8 Z M -31.1 23.2 L -31.1 23.25 Z M -30.85 23.2 L -30.85 23.25 Z M -30.6 23.2 L -30.6 23.25 Z M -28.1 23.2 L -28.1 23.25 Z M -28.35 23.2 L -28.35 23.25 Z M -28.6 23.2 L -28.6 23.25 Z M -28.85 23.2 L -28.85 23.25 Z M -29.1 23.2 L -29.1 23.25 Z M -29.85 23.2 L -29.85 23.25 Z M -30.1 23.2 L -30.1 23.25 Z M -30.35 23.2 L -30.35 23.25 Z M -33.85 -0.4 L -31.5 0.9 L -11.9 -11.75 L -11.8 -11.65 L -11.65 -11.75 L -11.55 -11.65 L -11.4 -11.75 L -11.3 -11.65 L -11.15 -11.75 L -11.05 -11.65 L -10.9 -11.75 L -10.8 -11.65 L -10.65 -11.75 L -10.55 -11.65 L -10.4 -11.75 L -10.15 -11.55 L -9.9 -11.75 L -9.8 -11.65 L -9.65 -11.75 L -9.55 -11.65 L -9.4 -11.75 L -9.3 -11.65 L -9.15 -11.75 L -9.05 -11.65 L -8.9 -11.75 L -8.8 -11.65 L -8.65 -11.75 L -7.1 -10.5 L -10.7 -8.15 L -29.6 4.1 L -35.1 1.1 L -33.85 -0.4 Z"/>
				<path fill="#802B2B" stroke-linecap="round" stroke-linejoin="round" d="M 33.85 -0.4 L 36.2 -5.2 L 36.85 -5.95 C 37.116665 -6.15 37.416664 -6.25 37.75 -6.25 L 43.0 -6.25 L 43.9 -5.95 L 44.55 -5.1 L 44.75 -4.0 L 42.1 22.95 L 41.6 24.1 C 41.333332 24.4 41.016666 24.6 40.65 24.7 L 40.25 24.75 L 40.0 24.75 L 39.75 24.75 L 39.5 24.75 L 39.25 24.75 L 38.85 24.7 L 38.5 24.75 L 38.25 24.75 L 38.0 24.75 L 37.75 24.75 L 37.5 24.75 L 37.25 24.75 L 36.25 24.5 L 35.5 23.55 L 34.95 21.95 L 37.55 20.5 L 38.4 17.8 L 40.35 22.7 L 43.0 -4.25 L 41.0 -4.25 L 38.4 1.1 L 37.1 -0.4 L 36.95 -0.3 L 36.85 -0.4 L 36.7 -0.3 L 36.6 -0.4 L 36.45 -0.3 L 36.35 -0.4 L 36.2 -0.3 L 36.1 -0.4 L 35.95 -0.3 L 35.85 -0.4 L 35.5 -0.2 L 35.35 -0.4 L 35.2 -0.3 L 35.1 -0.4 L 34.95 -0.3 L 34.85 -0.4 L 34.7 -0.3 L 34.6 -0.4 L 34.45 -0.3 L 34.35 -0.4 L 34.2 -0.3 L 34.1 -0.4 L 33.95 -0.3 L 33.85 -0.4 Z M 5.4 37.25 L -2.15 37.25 L -2.15 35.25 L 5.4 35.25 L 5.4 37.25 Z M -34.8 21.95 L -35.45 23.55 L -36.25 24.5 L -37.15 24.75 L -37.4 24.75 L -37.65 24.75 L -37.9 24.75 L -38.2 24.75 L -38.55 24.7 L -38.9 24.75 L -39.15 24.75 L -39.4 24.75 L -39.65 24.75 L -39.9 24.75 L -40.15 24.75 L -40.6 24.7 C -41.0 24.6 -41.333332 24.4 -41.6 24.1 L -42.0 22.95 L -44.65 -4.0 L -44.55 -5.1 L -43.9 -5.95 L -42.95 -6.25 L -37.75 -6.25 L -36.9 -5.95 L -36.25 -5.25 L -33.85 -0.4 L -35.1 1.1 L -37.75 -4.25 L -39.7 -4.25 L -37.05 22.7 L -35.1 17.8 L -34.25 20.5 L -34.8 21.95 Z"/>
				<path fill="#CAA202" stroke-linecap="round" stroke-linejoin="round" d="M 31.05 23.25 L 15.7 26.55 L 15.7 24.5 L 19.5 23.65 L 23.4 22.85 L 27.2 22.05 L 31.05 21.2 L 31.05 23.25 Z M -31.1 23.25 L -31.1 23.2 L -30.85 23.25 L -30.6 23.25 L -30.35 23.25 L -30.1 23.25 L -29.85 23.25 L -29.6 23.25 L -29.6 23.15 L -29.1 23.25 L -28.85 23.25 L -28.6 23.25 L -28.35 23.25 L -28.1 23.25 L -27.85 23.25 L -27.85 21.2 L -23.95 22.05 L -20.1 22.85 L -16.3 23.65 L -12.4 24.5 L -12.4 26.55 L -12.65 26.5 L -12.9 26.5 L -13.15 26.5 L -13.4 26.5 L -13.65 26.5 L -14.15 26.45 L -14.15 26.55 L -14.4 26.5 L -14.65 26.5 L -14.9 26.5 L -15.15 26.5 L -15.4 26.5 L -15.65 26.5 L -31.1 23.25 Z M -15.65 26.5 L -15.65 26.55 Z M -30.85 23.25 L -30.85 23.2 Z M -15.4 26.5 L -15.4 26.55 Z M -30.6 23.25 L -30.6 23.2 Z M -15.15 26.5 L -15.15 26.55 Z M -30.35 23.25 L -30.35 23.2 Z M -14.9 26.5 L -14.9 26.55 Z M -30.1 23.25 L -30.1 23.2 Z M -14.65 26.5 L -14.65 26.55 Z M -29.85 23.25 L -29.85 23.2 Z M -14.4 26.5 L -14.4 26.55 Z M -29.1 23.25 L -29.1 23.2 Z M -13.65 26.5 L -13.65 26.55 Z M -28.85 23.25 L -28.85 23.2 Z M -13.4 26.5 L -13.4 26.55 Z M -28.6 23.25 L -28.6 23.2 Z M -13.15 26.5 L -13.15 26.55 Z M -28.35 23.25 L -28.35 23.2 Z M -12.9 26.5 L -12.9 26.55 Z M -28.1 23.25 L -28.1 23.2 Z M -12.65 26.5 L -12.65 26.55 Z"/>
				<path fill="#F2F2F2" stroke-linecap="round" stroke-linejoin="round" d="M -7.1 -10.5 L -4.0 -35.2 L 7.3 -35.2 L 10.35 -10.5 L 12.35 5.45 L 12.35 25.2 L 6.95 35.25 L 5.4 35.25 L 9.9 26.8 L 9.9 5.45 L 6.5 -31.7 L -3.25 -31.7 L -6.65 5.45 L -6.65 26.8 L -2.15 35.25 L -3.65 35.25 L -9.15 25.2 L -9.15 5.45 L -7.1 -10.5 Z"/>
				<path fill="#AC3939" stroke-linecap="round" stroke-linejoin="round" d="M -2.15 35.25 L -6.65 26.8 L -6.65 5.45 L -3.25 -31.7 L 6.5 -31.7 L 9.9 5.45 L 9.9 26.8 L 5.4 35.25 L -2.15 35.25 Z M 8.05 -2.55 L 7.95 -3.95 L -4.65 -3.95 L -4.8 -2.55 L -5.65 5.45 L 8.9 5.45 L 8.05 -2.55 Z M -37.75 -4.25 L -35.1 1.1 L -35.1 17.8 L -37.05 22.7 L -39.7 -4.25 L -37.75 -4.25 Z M 40.35 22.7 L 38.4 17.8 L 38.4 1.1 L 41.0 -4.25 L 43.0 -4.25 L 40.35 22.7 Z"/>
				<path fill="#BDD6DB" stroke-linecap="round" stroke-linejoin="round" d="M 12.35 25.2 L 12.35 5.45 L 10.35 -10.5 L 14.0 -8.15 L 15.7 5.45 L 15.7 18.2 L 15.7 19.15 L 15.7 24.5 L 12.35 25.2 Z M -12.4 19.15 L -12.4 18.2 L -12.4 5.45 L -10.7 -8.15 L -7.1 -10.5 L -9.15 5.45 L -9.15 25.2 L -12.4 24.5 L -12.4 19.15 Z"/>
				<path fill="#D3E1E7" stroke-linecap="round" stroke-linejoin="round" d="M 14.0 -8.15 L 32.9 4.1 L 32.9 20.8 L 31.05 21.2 L 31.05 15.9 L 31.05 14.95 L 15.7 18.2 L 15.7 5.45 L 14.0 -8.15 Z M -27.85 15.9 L -27.85 21.2 L -29.6 20.8 L -29.6 4.1 L -10.7 -8.15 L -12.4 5.45 L -12.4 18.2 L -27.85 14.95 L -27.85 15.9 Z"/>
				<path fill="#B9CED7" stroke-linecap="round" stroke-linejoin="round" d="M 32.9 4.1 L 38.4 1.1 L 38.4 17.8 L 32.9 20.8 L 32.9 4.1 Z M -23.95 16.7 L -27.85 15.9 L -27.85 14.95 L -12.4 18.2 L -12.4 19.15 L -16.3 18.35 L -20.1 17.55 L -23.95 16.7 Z M -29.6 4.1 L -29.6 20.8 L -35.1 17.8 L -35.1 1.1 L -29.6 4.1 Z M 23.4 17.55 L 19.5 18.35 L 15.7 19.15 L 15.7 18.2 L 31.05 14.95 L 31.05 15.9 L 27.2 16.7 L 23.4 17.55 Z"/>
				<path fill="#C44D4D" stroke-linecap="round" stroke-linejoin="round" d="M 7.95 -3.95 L 8.05 -2.55 L -4.8 -2.55 L -4.65 -3.95 L 7.95 -3.95 Z"/>
				<path fill="#4A3C55" stroke-linecap="round" stroke-linejoin="round" d="M -4.8 -2.55 L 8.05 -2.55 L 8.9 5.45 L -5.65 5.45 L -4.8 -2.55 Z"/>
				<path fill="#ECBD02" stroke-linecap="round" stroke-linejoin="round" d="M -27.85 15.9 L -23.95 16.7 L -23.95 22.05 L -27.85 21.2 L -27.85 15.9 Z M -20.1 17.55 L -16.3 18.35 L -16.3 23.65 L -20.1 22.85 L -20.1 17.55 Z M 19.5 23.65 L 19.5 18.35 L 23.4 17.55 L 23.4 22.85 L 19.5 23.65 Z M 31.05 15.9 L 31.05 21.2 L 27.2 22.05 L 27.2 16.7 L 31.05 15.9 Z"/>
				<path fill="#FFCC00" stroke-linecap="round" stroke-linejoin="round" d="M -23.95 22.05 L -23.95 16.7 L -20.1 17.55 L -20.1 22.85 L -23.95 22.05 Z M -16.3 18.35 L -12.4 19.15 L -12.4 24.5 L -16.3 23.65 L -16.3 18.35 Z M 19.5 18.35 L 19.5 23.65 L 15.7 24.5 L 15.7 19.15 L 19.5 18.35 Z M 23.4 22.85 L 23.4 17.55 L 27.2 16.7 L 27.2 22.05 L 23.4 22.85 Z"/>
			</g>
		</g>
		<g transform="matrix(1.0 0.0 0.0 1.0 0.0 0.0)">
			<path fill="#802B2B" stroke-linecap="round" stroke-linejoin="round" d="M 567.85 407.55 L 570.2 402.7 L 570.85 401.95 C 571.11664 401.75 571.39996 401.65 571.7 401.65 L 573.75 401.65 C 574.05 401.65 574.35 401.75 574.65 401.95 L 575.3 402.8 L 575.5 403.9 L 572.8 431.05 C 572.76666 431.48334 572.61664 431.86667 572.35 432.2 L 571.35 432.8 C 570.95 432.86667 570.5834 432.80002 570.25 432.6 C 569.88336 432.36667 569.63336 432.05 569.5 431.65 L 568.25 428.6 L 569.1 425.85 L 571.05 430.8 L 573.75 403.65 L 571.7 403.65 L 569.1 409.05 L 567.85 407.55 Z M 536.0 445.45 L 528.45 445.45 L 528.45 443.45 L 536.0 443.45 L 536.0 445.45 Z M 496.25 428.6 L 495.0 431.65 L 494.25 432.6 L 493.15 432.8 C 492.75 432.69998 492.41666 432.5 492.15 432.2 C 491.88333 431.86667 491.73334 431.48334 491.7 431.05 L 489.05 403.9 C 488.98334 403.5 489.01666 403.13333 489.15 402.8 C 489.31665 402.43332 489.53333 402.15 489.8 401.95 C 490.1 401.75 490.4167 401.65 490.75 401.65 L 492.7 401.65 L 493.6 401.95 L 494.25 402.65 L 496.65 407.55 L 495.35 409.05 L 492.7 403.65 L 490.75 403.65 L 493.4 430.8 L 495.35 425.85 L 496.25 428.6 Z"/>
			<path fill="#9EBBC7" stroke-linecap="round" stroke-linejoin="round" d="M 568.25 428.6 L 564.35 430.7 L 563.95 430.9 L 561.75 431.35 L 561.75 429.3 L 563.6 428.9 L 569.1 425.85 L 568.25 428.6 Z M 546.35 434.7 L 544.1 435.2 L 543.0 433.3 L 546.35 432.6 L 546.35 434.7 Z M 520.35 435.2 L 518.15 434.7 L 518.15 432.6 L 521.4 433.3 L 520.35 435.2 Z M 502.65 431.35 L 500.55 430.9 L 500.15 430.7 L 496.25 428.6 L 495.35 425.85 L 500.9 428.9 L 502.65 429.3 L 502.65 431.35 Z M 496.65 407.55 L 500.8 409.8 L 521.9 396.1 L 523.45 397.4 L 519.85 399.75 L 500.9 412.1 L 495.35 409.05 L 496.65 407.55 Z M 542.6 396.1 L 563.7 409.8 L 567.85 407.55 L 569.1 409.05 L 563.6 412.1 L 544.65 399.75 L 541.0 397.4 L 542.6 396.1 Z"/>
			<path fill="#CAA202" stroke-linecap="round" stroke-linejoin="round" d="M 561.75 431.35 L 546.35 434.7 L 546.35 432.6 L 550.2 431.75 L 554.05 430.95 L 557.9 430.15 L 561.75 429.3 L 561.75 431.35 Z M 518.15 434.7 L 502.65 431.35 L 502.65 429.3 L 506.55 430.15 L 510.4 430.95 L 514.25 431.75 L 518.15 432.6 L 518.15 434.7 Z"/>
			<path fill="#CCCCCC" stroke-linecap="round" stroke-linejoin="round" d="M 544.1 435.2 L 539.05 444.5 L 538.4 445.2 L 537.55 445.45 L 536.0 445.45 L 536.0 443.45 L 537.55 443.45 L 543.0 433.3 L 544.1 435.2 Z M 528.45 445.45 L 526.95 445.45 L 526.1 445.2 L 525.45 444.5 L 520.35 435.2 L 521.4 433.3 L 526.95 443.45 L 528.45 443.45 L 528.45 445.45 Z M 521.9 396.1 L 524.85 372.25 C 524.9167 371.75 525.1167 371.33334 525.45 371.0 C 525.75 370.66666 526.1333 370.5 526.6 370.5 L 537.9 370.5 C 538.3333 370.5 538.7166 370.66666 539.05 371.0 C 539.35 371.33334 539.55 371.75 539.65 372.25 L 542.6 396.1 L 541.0 397.4 L 537.9 372.5 L 526.6 372.5 L 523.45 397.4 L 521.9 396.1 Z"/>
			<path fill="#AC3939" stroke-linecap="round" stroke-linejoin="round" d="M 569.1 409.05 L 571.7 403.65 L 573.75 403.65 L 571.05 430.8 L 569.1 425.85 L 569.1 409.05 Z M 528.45 443.45 L 523.9 434.95 L 523.9 413.45 L 527.3 376.05 L 537.1 376.05 L 540.5 413.45 L 540.5 434.95 L 536.0 443.45 L 528.45 443.45 Z M 525.8 405.4 L 524.9 413.45 L 539.5 413.45 L 538.7 405.4 L 538.55 403.95 L 525.9 403.95 L 525.8 405.4 Z M 492.7 403.65 L 495.35 409.05 L 495.35 425.85 L 493.4 430.8 L 490.75 403.65 L 492.7 403.65 Z"/>
			<path fill="#F2F2F2" stroke-linecap="round" stroke-linejoin="round" d="M 537.9 372.5 L 541.0 397.4 L 543.0 413.45 L 543.0 433.3 L 537.55 443.45 L 536.0 443.45 L 540.5 434.95 L 540.5 413.45 L 537.1 376.05 L 527.3 376.05 L 523.9 413.45 L 523.9 434.95 L 528.45 443.45 L 526.95 443.45 L 521.4 433.3 L 521.4 413.45 L 523.45 397.4 L 526.6 372.5 L 537.9 372.5 Z"/>
			<path fill="#BDD6DB" stroke-linecap="round" stroke-linejoin="round" d="M 523.45 397.4 L 521.4 413.45 L 521.4 433.3 L 518.15 432.6 L 518.15 427.25 L 518.15 426.25 L 518.15 413.45 L 519.85 399.75 L 523.45 397.4 Z M 543.0 433.3 L 543.0 413.45 L 541.0 397.4 L 544.65 399.75 L 546.35 413.45 L 546.35 426.25 L 546.35 427.25 L 546.35 432.6 L 543.0 433.3 Z"/>
			<path fill="#D3E1E7" stroke-linecap="round" stroke-linejoin="round" d="M 519.85 399.75 L 518.15 413.45 L 518.15 426.25 L 502.65 423.0 L 502.65 423.95 L 502.65 429.3 L 500.9 428.9 L 500.9 412.1 L 519.85 399.75 Z M 546.35 413.45 L 544.65 399.75 L 563.6 412.1 L 563.6 428.9 L 561.75 429.3 L 561.75 423.95 L 561.75 423.0 L 546.35 426.25 L 546.35 413.45 Z"/>
			<path fill="#B9CED7" stroke-linecap="round" stroke-linejoin="round" d="M 518.15 426.25 L 518.15 427.25 L 514.25 426.4 L 510.4 425.6 L 506.55 424.75 L 502.65 423.95 L 502.65 423.0 L 518.15 426.25 Z M 500.9 412.1 L 500.9 428.9 L 495.35 425.85 L 495.35 409.05 L 500.9 412.1 Z M 546.35 426.25 L 561.75 423.0 L 561.75 423.95 L 557.9 424.75 L 554.05 425.6 L 550.2 426.4 L 546.35 427.25 L 546.35 426.25 Z M 563.6 428.9 L 563.6 412.1 L 569.1 409.05 L 569.1 425.85 L 563.6 428.9 Z"/>
			<path fill="#FFCC00" stroke-linecap="round" stroke-linejoin="round" d="M 518.15 427.25 L 518.15 432.6 L 514.25 431.75 L 514.25 426.4 L 518.15 427.25 Z M 557.9 424.75 L 557.9 430.15 L 554.05 430.95 L 554.05 425.6 L 557.9 424.75 Z M 550.2 426.4 L 550.2 431.75 L 546.35 432.6 L 546.35 427.25 L 550.2 426.4 Z M 510.4 425.6 L 510.4 430.95 L 506.55 430.15 L 506.55 424.75 L 510.4 425.6 Z"/>
			<path fill="#4A3C55" stroke-linecap="round" stroke-linejoin="round" d="M 524.9 413.45 L 525.8 405.4 L 538.7 405.4 L 539.5 413.45 L 524.9 413.45 Z"/>
			<path fill="#C44D4D" stroke-linecap="round" stroke-linejoin="round" d="M 538.7 405.4 L 525.8 405.4 L 525.9 403.95 L 538.55 403.95 L 538.7 405.4 Z"/>
			<path fill="#ECBD02" stroke-linecap="round" stroke-linejoin="round" d="M 502.65 429.3 L 502.65 423.95 L 506.55 424.75 L 506.55 430.15 L 502.65 429.3 Z M 561.75 423.95 L 561.75 429.3 L 557.9 430.15 L 557.9 424.75 L 561.75 423.95 Z M 550.2 431.75 L 550.2 426.4 L 554.05 425.6 L 554.05 430.95 L 550.2 431.75 Z M 514.25 426.4 L 514.25 431.75 L 510.4 430.95 L 510.4 425.6 L 514.25 426.4 Z"/>
			<path fill="url(#Grad3)" stroke-linecap="round" stroke-linejoin="round" d="M 215.45 247.3 C 211.75 213.0 211.75 179.1 215.45 145.6 C 215.45 145.26668 215.58333 144.98334 215.85 144.75 L 215.85 144.55 L 215.95 144.6 L 216.1 144.55 L 216.1 144.75 C 216.36667 144.98334 216.5 145.26668 216.5 145.6 C 220.2 179.1 220.2 213.0 216.5 247.3 C 216.5 247.63333 216.36667 247.93333 216.1 248.2 L 216.1 248.4 L 215.95 248.3 L 215.85 248.4 L 215.85 248.2 C 215.58333 247.93333 215.45 247.63333 215.45 247.3 Z"/>
			<path fill="#FFFFFF" stroke-linecap="round" stroke-linejoin="round" d="M 175.0 229.0 L 175.35 230.65 L 175.55 234.0 L 178.85 234.15 L 180.5 234.5 L 178.85 234.95 L 175.55 235.1 L 175.35 238.45 L 175.0 240.0 C 174.86667 240.0 174.73334 239.48334 174.6 238.45 C 174.5 237.51666 174.45 236.4 174.45 235.1 L 171.1 234.95 C 170.03334 234.85 169.5 234.70001 169.5 234.5 C 169.5 234.36667 170.03334 234.25 171.1 234.15 L 174.45 234.0 C 174.45 232.7 174.5 231.58333 174.6 230.65 C 174.73334 229.55 174.86667 229.0 175.0 229.0 Z"/>
			<path fill="#FFFFFF" stroke-linecap="round" stroke-linejoin="round" d="M 174.0 262.0 C 174.26666 262.0 174.5 263.03333 174.7 265.1 L 175.05 271.45 L 181.4 271.75 C 183.46666 271.94998 184.5 272.19998 184.5 272.5 C 184.5 272.80002 183.46666 273.05002 181.4 273.25 L 175.05 273.55 L 174.7 279.95 C 174.5 281.98334 174.26666 283.0 174.0 283.0 C 173.7 283.0 173.45 281.98334 173.25 279.95 C 173.05 278.15 172.95 276.01666 172.95 273.55 L 166.55 273.25 C 164.51666 273.05002 163.5 272.80002 163.5 272.5 C 163.5 272.19998 164.51666 271.94998 166.55 271.75 L 172.95 271.45 C 172.95 269.01666 173.05 266.9 173.25 265.1 C 173.45 263.03333 173.7 262.0 174.0 262.0 Z"/>
			<path fill="url(#Grad4)" stroke-linecap="round" stroke-linejoin="round" d="M 453.7 37.25 C 454.6 36.116665 455.58334 35.016666 456.65 33.95 C 464.38333 26.216667 473.71667 22.35 484.65 22.35 C 495.5833 22.35 504.91666 26.216667 512.65 33.95 C 520.38336 41.683334 524.25 51.01667 524.25 61.95 C 524.25 64.183334 524.1 66.35 523.8 68.45 C 528.0 66.85 532.55 66.05 537.45 66.05 C 547.95 66.05 556.9167 69.76667 564.35 77.2 C 571.7833 84.63333 575.5 93.61667 575.5 104.15 C 575.5 114.65 571.7833 123.61667 564.35 131.05 C 556.9167 138.48334 547.95 142.2 537.45 142.2 L 531.35 141.8 C 529.45 144.7 527.2 147.45 524.6 150.05 C 519.56665 155.05 514.0 158.75 507.9 161.15 C 505.36667 165.88333 502.03333 170.3 497.9 174.4 C 487.13333 185.2 474.11667 190.6 458.85 190.6 C 443.58334 190.6 430.55002 185.2 419.75 174.4 L 415.4 169.55 L 409.1 169.95 C 395.6667 169.95 384.2 165.2 374.7 155.7 C 368.23334 149.23334 363.96667 141.85 361.9 133.55 C 355.3 132.31667 349.48334 129.16666 344.45 124.1 C 337.71667 117.4 334.35 109.28333 334.35 99.75 C 334.35 90.25 337.71667 82.13333 344.45 75.4 C 349.51666 70.333336 355.4 67.183334 362.1 65.95 L 362.1 65.4 C 362.1 58.966667 364.36667 53.466667 368.9 48.9 C 373.46667 44.366665 378.96667 42.1 385.4 42.1 C 390.76666 42.1 395.46667 43.666664 399.5 46.8 C 402.86667 44.2 406.75 42.9 411.15 42.9 L 411.65 42.9 C 412.68335 41.4 413.88336 39.966667 415.25 38.6 C 420.75 33.1 427.4 30.349998 435.2 30.35 C 442.30002 30.35 448.46667 32.65 453.7 37.25 Z"/>
			<path fill="#FFFFFF" opacity="0.3019608" stroke-linecap="round" stroke-linejoin="round" d="M 391.05 295.0 C 398.78333 284.36667 402.65 272.1 402.65 258.2 C 402.65 240.66667 396.43332 225.68333 384.0 213.25 C 371.56668 200.78334 356.56668 194.55 339.0 194.55 C 321.4 194.55 306.38333 200.76666 293.95 213.2 C 281.55002 225.66666 275.35 240.66666 275.35 258.2 C 275.35 272.03336 279.16666 284.25003 286.8 294.85 C 277.26666 283.08334 272.5 269.31668 272.5 253.55 C 272.5 235.15 278.98334 219.46666 291.95 206.5 C 304.95 193.53334 320.63333 187.05 339.0 187.05 C 357.36667 187.05 373.03333 193.53334 386.0 206.5 C 399.0 219.5 405.5 235.18333 405.5 253.55 C 405.5 269.38333 400.68332 283.2 391.05 295.0 Z M 293.95 213.2 L 293.95 213.25 Z M 384.0 213.25 L 383.95 213.2 Z"/>
		</g>
	</g>
</svg>
