<svg xmlns="http://www.w3.org/2000/svg" id="squirrel" data-name="squirrel" viewBox="0 0 296.2 479.27"><defs><style>.cls-1{fill:#fff}</style></defs><path d="M216.54,17c-30.06,93.06,63.25,82.67,127,133.73,48.38,38.78,92.87,118,29,234.83-11.12-29-24.49-75.4-37.9-138.2-6.71-31.52-11.1-92.35-12.16-91.7-6.88,4.25-21,37-21,37s-2.43-.6-13.36-2.83S256,187,256,187s-21.09.6-32,2.83-13.36,2.83-13.36,2.83-14.16-32.78-21-37c-1.06-.65-5.45,60.18-12.17,91.7-6.93,32.5-15.7,65.2-23.28,91.19C79.26,248.12,92.5,102.73,216.54,17Zm85.82,254.1c3.84,0,7-6.14,7-13.71s-3.12-13.71-7-13.71-6.95,6.14-6.95,13.71,3.12,13.71,6.95,13.71Zm-85.71-13.71c0-7.57-3.12-13.71-7-13.71s-6.95,6.14-6.95,13.71,3.11,13.71,6.95,13.71,7-6.14,7-13.71Zm59,23.45c0-6.37-8.78-11.53-19.62-11.53s-19.62,5.16-19.62,11.53c0,5.88,7.52,10.74,17.24,11.43v8a2.39,2.39,0,0,0,2.38,2.39h0a2.39,2.39,0,0,0,2.38-2.39v-8c9.71-.69,17.24-5.55,17.24-11.43Zm-7.72,34.51c-2.6-.18-6.08,4.76-6.93,8.07s-4,26.07-4,26.07-22.8-5.74-38.06-6-23,5.77-28.09,13.74-2.22,18.75-.44,23a21.08,21.08,0,0,0,3.63,6.14,88.82,88.82,0,0,0-5,22.13c7.8,10.18,33.56,26,33.56,26s6.54,3.47,5.38,9.55-18,13.91-30.55,11.74c-.53-.09-1.09-.21-1.68-.35C206.45,478.28,227,496.27,227,496.27s40.86-2.08,64-21.89a100.57,100.57,0,0,0,8.1-7.77c-7-2.86-13.59-5.9-17.28-8.48-10.47-7.29-16.92-24.69-13.48-29.82s10.54-3,10.54-3,29.43,6.88,42.13,5.11a21.1,21.1,0,0,0,6.65-2.57c4-2.22,13-8.87,13.88-18.31S340.1,390.61,328,381.35s-33.59-18.88-33.59-18.88,11.6-19.83,13-23,1.7-9.17-.44-10.63-19.05-8.05-19.05-8.05S270.52,315.53,267.93,315.35Z" class="cls-1" transform="translate(-108.03 -17)"/></svg>