<svg xmlns="http://www.w3.org/2000/svg" xmlns:xlink="http://www.w3.org/1999/xlink" width="1920" zoomAndPan="magnify" viewBox="0 0 1440 809.999993" height="1080" preserveAspectRatio="xMidYMid meet" version="1.0"><path fill="#3a7cc3" d="M 118.023438 810.308594 C 121.933594 810.308594 125.175781 807.78125 126.421875 804.300781 L 155.28125 804.300781 L 337.136719 622.480469 L 337.136719 367.898438 L 126.101562 156.886719 C 126.660156 155.714844 127.027344 154.441406 127.027344 153.058594 C 127.027344 148.085938 122.996094 144.054688 118.023438 144.054688 C 113.050781 144.054688 109.019531 148.085938 109.019531 153.058594 C 109.019531 158.03125 113.050781 162.0625 118.023438 162.0625 C 119.410156 162.0625 120.683594 161.691406 121.855469 161.132812 L 331.132812 370.378906 L 331.132812 619.992188 L 152.800781 798.300781 L 126.421875 798.300781 C 125.175781 794.820312 121.929688 792.300781 118.023438 792.300781 C 113.050781 792.300781 109.019531 796.332031 109.019531 801.304688 C 109.019531 806.277344 113.050781 810.308594 118.023438 810.308594 Z M 118.023438 810.308594 " fill-opacity="1" fill-rule="nonzero"/><path fill="#3a7cc3" d="M 6.960938 17.398438 L 6.960938 82.269531 L 295.117188 370.382812 L 295.117188 583.980469 L 193.886719 685.183594 C 192.714844 684.628906 191.445312 684.257812 190.058594 684.257812 C 185.085938 684.257812 181.054688 688.289062 181.054688 693.261719 C 181.054688 698.234375 185.085938 702.265625 190.058594 702.265625 C 195.03125 702.265625 199.066406 698.234375 199.066406 693.261719 C 199.066406 691.878906 198.695312 690.605469 198.140625 689.433594 L 301.117188 586.46875 L 301.117188 367.894531 L 12.964844 79.789062 L 12.964844 17.402344 C 16.445312 16.15625 18.972656 12.914062 18.972656 9.003906 C 18.972656 4.03125 14.941406 0 9.964844 0 C 4.992188 0 0.960938 4.03125 0.960938 9.003906 C 0.960938 12.910156 3.484375 16.152344 6.960938 17.398438 Z M 6.960938 17.398438 " fill-opacity="1" fill-rule="nonzero"/><path fill="#3a7cc3" d="M 918.511719 553.039062 C 919.070312 551.867188 919.4375 550.59375 919.4375 549.207031 C 919.4375 544.234375 915.40625 540.203125 910.433594 540.203125 C 905.460938 540.203125 901.429688 544.234375 901.429688 549.207031 C 901.429688 554.179688 905.460938 558.210938 910.433594 558.210938 C 911.816406 558.210938 913.09375 557.84375 914.265625 557.285156 L 1160.433594 803.425781 L 1161.320312 804.300781 L 1334.257812 804.300781 C 1335.5 807.78125 1338.746094 810.308594 1342.65625 810.308594 C 1347.628906 810.308594 1351.664062 806.277344 1351.664062 801.304688 C 1351.664062 796.332031 1347.628906 792.300781 1342.65625 792.300781 C 1338.75 792.300781 1335.503906 794.820312 1334.257812 798.300781 L 1163.800781 798.300781 Z M 918.511719 553.039062 " fill-opacity="1" fill-rule="nonzero"/><path fill="#3a7cc3" d="M 226.078125 756.285156 C 221.105469 756.285156 217.074219 760.316406 217.074219 765.289062 C 217.074219 770.261719 221.105469 774.292969 226.078125 774.292969 C 229.988281 774.292969 233.234375 771.769531 234.476562 768.289062 L 549.003906 768.289062 L 585.019531 804.300781 L 731.578125 804.300781 L 803.621094 732.277344 L 902.035156 732.277344 C 903.28125 735.757812 906.523438 738.28125 910.433594 738.28125 C 915.40625 738.28125 919.4375 734.25 919.4375 729.277344 C 919.4375 724.304688 915.40625 720.273438 910.433594 720.273438 C 906.523438 720.273438 903.28125 722.796875 902.035156 726.273438 L 801.140625 726.273438 L 729.097656 798.300781 L 587.503906 798.300781 L 551.484375 762.289062 L 234.476562 762.289062 C 233.230469 758.808594 229.988281 756.285156 226.078125 756.285156 Z M 226.078125 756.285156 " fill-opacity="1" fill-rule="nonzero"/><path fill="#3a7cc3" d="M 9.964844 666.253906 C 13.875 666.253906 17.121094 663.730469 18.367188 660.25 L 155.28125 660.25 L 265.101562 550.453125 L 265.101562 475.9375 L 234.15625 444.996094 C 234.714844 443.824219 235.082031 442.550781 235.082031 441.167969 C 235.082031 436.195312 231.050781 432.164062 226.078125 432.164062 C 221.105469 432.164062 217.074219 436.195312 217.074219 441.167969 C 217.074219 446.140625 221.105469 450.171875 226.078125 450.171875 C 227.464844 450.171875 228.738281 449.800781 229.914062 449.242188 L 259.097656 478.421875 L 259.097656 547.96875 L 152.800781 654.246094 L 18.363281 654.246094 C 17.121094 650.769531 13.875 648.246094 9.964844 648.246094 C 4.992188 648.246094 0.960938 652.277344 0.960938 657.25 C 0.960938 662.222656 4.992188 666.253906 9.964844 666.253906 Z M 9.964844 666.253906 " fill-opacity="1" fill-rule="nonzero"/><path fill="#3a7cc3" d="M 151.039062 17.402344 L 151.039062 82.273438 L 362.074219 293.285156 C 361.515625 294.457031 361.148438 295.730469 361.148438 297.113281 C 361.148438 302.085938 365.179688 306.117188 370.152344 306.117188 C 375.125 306.117188 379.15625 302.085938 379.15625 297.113281 C 379.15625 292.140625 375.125 288.109375 370.152344 288.109375 C 368.765625 288.109375 367.492188 288.480469 366.320312 289.039062 L 157.042969 79.789062 L 157.042969 17.402344 C 160.523438 16.15625 163.046875 12.910156 163.046875 9.003906 C 163.046875 4.03125 159.015625 0 154.042969 0 C 149.070312 0 145.035156 4.03125 145.035156 9.003906 C 145.035156 12.910156 147.558594 16.15625 151.039062 17.402344 Z M 151.039062 17.402344 " fill-opacity="1" fill-rule="nonzero"/><path fill="#3a7cc3" d="M 296.875 690.261719 L 265.925781 721.199219 C 264.757812 720.640625 263.480469 720.273438 262.097656 720.273438 C 257.125 720.273438 253.09375 724.304688 253.09375 729.277344 C 253.09375 734.25 257.125 738.28125 262.097656 738.28125 C 267.070312 738.28125 271.101562 734.25 271.101562 729.277344 C 271.101562 727.894531 270.734375 726.621094 270.175781 725.449219 L 299.355469 696.265625 L 332.894531 696.265625 L 362.074219 725.449219 C 361.515625 726.621094 361.148438 727.894531 361.148438 729.277344 C 361.148438 734.25 365.179688 738.28125 370.152344 738.28125 C 375.125 738.28125 379.15625 734.25 379.15625 729.277344 C 379.15625 724.304688 375.125 720.273438 370.152344 720.273438 C 368.769531 720.273438 367.496094 720.640625 366.324219 721.199219 L 335.375 690.261719 Z M 296.875 690.261719 " fill-opacity="1" fill-rule="nonzero"/><path fill="#3a7cc3" d="M 253.09375 441.167969 C 253.09375 446.140625 257.125 450.171875 262.097656 450.171875 C 267.070312 450.171875 271.101562 446.140625 271.101562 441.167969 C 271.101562 437.261719 268.578125 434.015625 265.101562 432.769531 L 265.101562 367.894531 L 227.324219 330.125 L 188.816406 330.125 L 157.871094 361.0625 C 156.699219 360.503906 155.425781 360.136719 154.042969 360.136719 C 149.070312 360.136719 145.035156 364.167969 145.035156 369.140625 C 145.035156 374.113281 149.070312 378.144531 154.042969 378.144531 C 159.015625 378.144531 163.046875 374.113281 163.046875 369.140625 C 163.046875 367.753906 162.675781 366.480469 162.117188 365.308594 L 191.296875 336.128906 L 224.84375 336.128906 L 259.097656 370.382812 L 259.097656 432.769531 C 255.617188 434.015625 253.09375 437.257812 253.09375 441.167969 Z M 253.09375 441.167969 " fill-opacity="1" fill-rule="nonzero"/><path fill="#3a7cc3" d="M 368.910156 264.097656 L 585.019531 264.097656 L 758.28125 437.339844 C 757.722656 438.507812 757.351562 439.785156 757.351562 441.167969 C 757.351562 446.140625 761.386719 450.171875 766.359375 450.171875 C 771.332031 450.171875 775.363281 446.140625 775.363281 441.167969 C 775.363281 436.195312 771.332031 432.164062 766.359375 432.164062 C 764.972656 432.164062 763.699219 432.535156 762.527344 433.09375 L 588.386719 258.976562 L 587.503906 258.097656 L 371.390625 258.097656 L 193.058594 79.785156 L 193.058594 46.261719 L 227.324219 12.007812 L 253.699219 12.007812 C 254.945312 15.484375 258.191406 18.007812 262.097656 18.007812 C 267.070312 18.007812 271.101562 13.976562 271.101562 9.003906 C 271.101562 4.03125 267.070312 0 262.097656 0 C 258.1875 0 254.941406 2.523438 253.699219 6.003906 L 224.84375 6.003906 L 187.054688 43.773438 L 187.054688 82.273438 L 368.027344 263.21875 Z M 368.910156 264.097656 " fill-opacity="1" fill-rule="nonzero"/><path fill="#3a7cc3" d="M 9.964844 450.171875 C 13.875 450.171875 17.121094 447.648438 18.367188 444.167969 L 109.625 444.167969 C 110.867188 447.648438 114.113281 450.171875 118.023438 450.171875 C 122.996094 450.171875 127.027344 446.140625 127.027344 441.167969 C 127.027344 436.195312 122.996094 432.164062 118.023438 432.164062 C 114.117188 432.164062 110.871094 434.6875 109.625 438.164062 L 18.363281 438.164062 C 17.121094 434.6875 13.875 432.164062 9.964844 432.164062 C 4.992188 432.164062 0.960938 436.195312 0.960938 441.167969 C 0.960938 446.140625 4.992188 450.171875 9.964844 450.171875 Z M 9.964844 450.171875 " fill-opacity="1" fill-rule="nonzero"/><path fill="#3a7cc3" d="M 1089.285156 804.300781 L 1118.144531 804.300781 C 1119.390625 807.78125 1122.636719 810.308594 1126.546875 810.308594 C 1131.519531 810.308594 1135.550781 806.277344 1135.550781 801.304688 C 1135.550781 796.332031 1131.519531 792.300781 1126.546875 792.300781 C 1122.636719 792.300781 1119.394531 794.820312 1118.148438 798.300781 L 1091.765625 798.300781 L 768.480469 475.058594 L 767.597656 474.179688 L 729.097656 474.179688 L 554.074219 649.171875 C 552.902344 648.613281 551.628906 648.246094 550.246094 648.246094 C 545.273438 648.246094 541.242188 652.277344 541.242188 657.25 C 541.242188 662.222656 545.273438 666.253906 550.246094 666.253906 C 555.21875 666.253906 559.25 662.222656 559.25 657.25 C 559.25 655.863281 558.882812 654.589844 558.324219 653.417969 L 731.578125 480.179688 L 765.113281 480.179688 L 1088.402344 803.425781 Z M 1089.285156 804.300781 " fill-opacity="1" fill-rule="nonzero"/><path fill="#3a7cc3" d="M 45.984375 54.019531 C 47.371094 54.019531 48.644531 53.652344 49.820312 53.089844 L 332.007812 335.246094 L 332.894531 336.128906 L 371.390625 336.128906 L 407.410156 300.117188 L 585.019531 300.117188 L 722.261719 437.335938 C 721.703125 438.507812 721.335938 439.78125 721.335938 441.167969 C 721.335938 446.140625 725.367188 450.171875 730.339844 450.171875 C 735.3125 450.171875 739.34375 446.140625 739.34375 441.167969 C 739.34375 436.195312 735.3125 432.164062 730.339844 432.164062 C 728.953125 432.164062 727.679688 432.53125 726.507812 433.09375 L 588.386719 294.992188 L 587.503906 294.113281 L 404.925781 294.113281 L 368.910156 330.125 L 335.375 330.125 L 54.0625 48.84375 C 54.621094 47.675781 54.988281 46.402344 54.988281 45.015625 C 54.988281 40.042969 50.957031 36.015625 45.984375 36.015625 C 41.011719 36.015625 36.980469 40.042969 36.980469 45.015625 C 36.980469 49.988281 41.011719 54.019531 45.984375 54.019531 Z M 45.984375 54.019531 " fill-opacity="1" fill-rule="nonzero"/><path fill="#3a7cc3" d="M 9.964844 414.15625 C 14.941406 414.15625 18.972656 410.125 18.972656 405.152344 C 18.972656 401.246094 16.445312 398 12.964844 396.753906 L 12.964844 370.382812 L 114.191406 269.175781 C 115.363281 269.734375 116.636719 270.101562 118.023438 270.101562 C 122.996094 270.101562 127.027344 266.070312 127.027344 261.097656 C 127.027344 256.125 122.996094 252.097656 118.023438 252.097656 C 113.050781 252.097656 109.019531 256.125 109.019531 261.097656 C 109.019531 262.484375 109.386719 263.757812 109.945312 264.929688 L 6.960938 367.894531 L 6.960938 396.757812 C 3.484375 398.003906 0.960938 401.246094 0.960938 405.152344 C 0.960938 410.125 4.992188 414.15625 9.964844 414.15625 Z M 9.964844 414.15625 " fill-opacity="1" fill-rule="nonzero"/><path fill="#3a7cc3" d="M 404.925781 330.125 L 367.148438 367.898438 L 367.148438 550.453125 L 470.132812 653.417969 C 469.574219 654.589844 469.203125 655.863281 469.203125 657.25 C 469.203125 662.222656 473.234375 666.253906 478.210938 666.253906 C 483.183594 666.253906 487.214844 662.222656 487.214844 657.25 C 487.214844 652.277344 483.183594 648.246094 478.210938 648.246094 C 476.824219 648.246094 475.550781 648.613281 474.378906 649.171875 L 373.152344 547.96875 L 373.152344 370.382812 L 407.410156 336.128906 L 585.019531 336.128906 L 691.320312 442.410156 L 691.320312 475.9375 L 662.136719 505.121094 C 660.964844 504.558594 659.6875 504.191406 658.300781 504.191406 C 653.328125 504.191406 649.296875 508.222656 649.296875 513.195312 C 649.296875 518.167969 653.328125 522.199219 658.300781 522.199219 C 663.277344 522.199219 667.308594 518.167969 667.308594 513.195312 C 667.308594 511.808594 666.9375 510.535156 666.378906 509.363281 L 697.324219 478.417969 L 697.324219 439.921875 L 587.503906 330.125 Z M 404.925781 330.125 " fill-opacity="1" fill-rule="nonzero"/><path fill="#3a7cc3" d="M 620.160156 767.414062 L 621.046875 768.289062 L 731.578125 768.289062 L 804.507812 695.390625 L 805.382812 694.503906 L 805.382812 547.960938 L 767.597656 510.195312 L 729.097656 510.195312 L 698.152344 541.132812 C 696.980469 540.574219 695.707031 540.203125 694.320312 540.203125 C 689.347656 540.203125 685.316406 544.234375 685.316406 549.207031 C 685.316406 554.179688 689.347656 558.210938 694.320312 558.210938 C 699.292969 558.210938 703.324219 554.179688 703.324219 549.207031 C 703.324219 547.824219 702.957031 546.550781 702.398438 545.378906 L 731.578125 516.195312 L 765.113281 516.195312 L 799.378906 550.453125 L 799.378906 692.023438 L 729.097656 762.289062 L 623.527344 762.289062 L 481.210938 619.992188 L 481.210938 521.59375 C 484.691406 520.347656 487.214844 517.101562 487.214844 513.195312 C 487.214844 508.222656 483.183594 504.191406 478.210938 504.191406 C 473.234375 504.191406 469.203125 508.222656 469.203125 513.195312 C 469.203125 517.101562 471.730469 520.347656 475.210938 521.59375 L 475.210938 622.480469 Z M 620.160156 767.414062 " fill-opacity="1" fill-rule="nonzero"/><path fill="#3a7cc3" d="M 613.277344 729.277344 C 613.277344 734.25 617.308594 738.28125 622.285156 738.28125 C 627.257812 738.28125 631.289062 734.25 631.289062 729.277344 C 631.289062 725.371094 628.765625 722.125 625.289062 720.878906 L 625.289062 629.632812 C 628.765625 628.386719 631.289062 625.144531 631.289062 621.234375 C 631.289062 616.261719 627.257812 612.230469 622.285156 612.230469 C 617.308594 612.230469 613.277344 616.261719 613.277344 621.234375 C 613.277344 625.144531 615.804688 628.390625 619.285156 629.632812 L 619.285156 720.878906 C 615.804688 722.121094 613.277344 725.367188 613.277344 729.277344 Z M 613.277344 729.277344 " fill-opacity="1" fill-rule="nonzero"/><path fill="#3a7cc3" d="M 9.964844 630.238281 C 14.941406 630.238281 18.972656 626.207031 18.972656 621.234375 C 18.972656 619.851562 18.601562 618.574219 18.042969 617.402344 L 229.085938 406.398438 L 229.085938 377.535156 C 232.5625 376.289062 235.082031 373.046875 235.082031 369.140625 C 235.082031 364.167969 231.050781 360.136719 226.078125 360.136719 C 221.105469 360.136719 217.074219 364.167969 217.074219 369.140625 C 217.074219 373.050781 219.597656 376.292969 223.082031 377.539062 L 223.082031 403.910156 L 13.796875 613.15625 C 12.625 612.601562 11.351562 612.230469 9.964844 612.230469 C 4.992188 612.230469 0.960938 616.261719 0.960938 621.234375 C 0.960938 626.207031 4.992188 630.238281 9.964844 630.238281 Z M 9.964844 630.238281 " fill-opacity="1" fill-rule="nonzero"/><path fill="#3a7cc3" d="M 9.964844 702.265625 C 13.875 702.265625 17.121094 699.746094 18.363281 696.265625 L 73.605469 696.265625 C 74.851562 699.746094 78.097656 702.265625 82.003906 702.265625 C 86.976562 702.265625 91.007812 698.234375 91.007812 693.261719 C 91.007812 688.289062 86.976562 684.257812 82.003906 684.257812 C 78.097656 684.257812 74.851562 686.78125 73.605469 690.261719 L 18.367188 690.261719 C 17.121094 686.78125 13.875 684.257812 9.964844 684.257812 C 4.992188 684.257812 0.960938 688.289062 0.960938 693.261719 C 0.960938 698.234375 4.992188 702.265625 9.964844 702.265625 Z M 9.964844 702.265625 " fill-opacity="1" fill-rule="nonzero"/><path fill="#3a7cc3" d="M 190.058594 792.300781 C 185.085938 792.300781 181.054688 796.332031 181.054688 801.304688 C 181.054688 806.277344 185.085938 810.308594 190.058594 810.308594 C 193.96875 810.308594 197.214844 807.78125 198.460938 804.300781 L 541.847656 804.300781 C 543.089844 807.78125 546.335938 810.308594 550.246094 810.308594 C 555.21875 810.308594 559.25 806.277344 559.25 801.304688 C 559.25 796.332031 555.21875 792.300781 550.246094 792.300781 C 546.339844 792.300781 543.09375 794.820312 541.847656 798.300781 L 198.457031 798.300781 C 197.210938 794.820312 193.96875 792.300781 190.058594 792.300781 Z M 190.058594 792.300781 " fill-opacity="1" fill-rule="nonzero"/><path fill="#3a7cc3" d="M 226.078125 504.191406 C 222.171875 504.191406 218.925781 506.714844 217.679688 510.195312 L 162.441406 510.195312 C 161.195312 506.714844 157.949219 504.191406 154.042969 504.191406 C 149.070312 504.191406 145.035156 508.222656 145.035156 513.195312 C 145.035156 518.167969 149.070312 522.199219 154.042969 522.199219 C 157.949219 522.199219 161.195312 519.675781 162.4375 516.195312 L 217.679688 516.195312 C 218.925781 519.675781 222.171875 522.199219 226.078125 522.199219 C 231.050781 522.199219 235.082031 518.167969 235.082031 513.195312 C 235.082031 508.222656 231.050781 504.191406 226.078125 504.191406 Z M 226.078125 504.191406 " fill-opacity="1" fill-rule="nonzero"/><path fill="#3a7cc3" d="M 691.320312 720.878906 C 687.839844 722.125 685.316406 725.367188 685.316406 729.277344 C 685.316406 734.25 689.347656 738.28125 694.320312 738.28125 C 699.292969 738.28125 703.324219 734.25 703.324219 729.277344 C 703.324219 725.367188 700.804688 722.125 697.324219 720.878906 L 697.324219 622.476562 L 762.527344 557.28125 C 763.699219 557.84375 764.972656 558.210938 766.359375 558.210938 C 771.332031 558.210938 775.363281 554.179688 775.363281 549.207031 C 775.363281 544.234375 771.332031 540.203125 766.359375 540.203125 C 761.386719 540.203125 757.351562 544.234375 757.351562 549.207031 C 757.351562 550.59375 757.722656 551.867188 758.28125 553.035156 L 691.320312 619.996094 Z M 691.320312 720.878906 " fill-opacity="1" fill-rule="nonzero"/><path fill="#3a7cc3" d="M 799.378906 449.566406 L 799.378906 478.417969 L 866.339844 545.375 C 865.78125 546.550781 865.410156 547.824219 865.410156 549.207031 C 865.410156 554.179688 869.441406 558.210938 874.414062 558.210938 C 879.386719 558.210938 883.417969 554.179688 883.417969 549.207031 C 883.417969 544.234375 879.386719 540.203125 874.414062 540.203125 C 873.03125 540.203125 871.757812 540.574219 870.585938 541.132812 L 805.382812 475.9375 L 805.382812 449.566406 C 808.859375 448.316406 811.382812 445.074219 811.382812 441.167969 C 811.382812 436.195312 807.351562 432.164062 802.375 432.164062 C 797.402344 432.164062 793.371094 436.195312 793.371094 441.167969 C 793.371094 445.078125 795.898438 448.320312 799.378906 449.566406 Z M 799.378906 449.566406 " fill-opacity="1" fill-rule="nonzero"/><path fill="#3a7cc3" d="M 145.035156 441.167969 C 145.035156 446.140625 149.070312 450.171875 154.042969 450.171875 C 159.015625 450.171875 163.046875 446.140625 163.046875 441.167969 C 163.046875 437.257812 160.523438 434.015625 157.042969 432.769531 L 157.042969 403.914062 L 90.082031 336.957031 C 90.640625 335.785156 91.007812 334.511719 91.007812 333.125 C 91.007812 328.152344 86.976562 324.121094 82.003906 324.121094 C 77.03125 324.121094 73 328.152344 73 333.125 C 73 338.097656 77.03125 342.128906 82.003906 342.128906 C 83.390625 342.128906 84.664062 341.761719 85.835938 341.203125 L 151.039062 406.394531 L 151.039062 432.769531 C 147.558594 434.015625 145.035156 437.261719 145.035156 441.167969 Z M 145.035156 441.167969 " fill-opacity="1" fill-rule="nonzero"/><path fill="#3a7cc3" d="M 73 801.304688 C 73 806.277344 77.03125 810.308594 82.003906 810.308594 C 86.976562 810.308594 91.007812 806.277344 91.007812 801.304688 C 91.007812 797.398438 88.488281 794.152344 85.007812 792.90625 L 85.007812 737.675781 C 88.488281 736.429688 91.007812 733.183594 91.007812 729.277344 C 91.007812 724.304688 86.976562 720.273438 82.003906 720.273438 C 77.03125 720.273438 73 724.304688 73 729.277344 C 73 733.183594 75.523438 736.429688 79.003906 737.675781 L 79.003906 792.90625 C 75.523438 794.152344 73 797.394531 73 801.304688 Z M 73 801.304688 " fill-opacity="1" fill-rule="nonzero"/><path fill="#3a7cc3" d="M 367.148438 665.648438 L 367.148438 694.503906 L 398.09375 725.449219 C 397.535156 726.621094 397.167969 727.894531 397.167969 729.277344 C 397.167969 734.25 401.199219 738.28125 406.171875 738.28125 C 411.144531 738.28125 415.175781 734.25 415.175781 729.277344 C 415.175781 724.304688 411.144531 720.273438 406.171875 720.273438 C 404.785156 720.273438 403.511719 720.640625 402.339844 721.199219 L 373.152344 692.023438 L 373.152344 665.648438 C 376.632812 664.402344 379.15625 661.160156 379.15625 657.25 C 379.15625 652.277344 375.125 648.246094 370.152344 648.246094 C 365.179688 648.246094 361.148438 652.277344 361.148438 657.25 C 361.148438 661.15625 363.671875 664.402344 367.148438 665.648438 Z M 367.148438 665.648438 " fill-opacity="1" fill-rule="nonzero"/><path fill="#3a7cc3" d="M 622.285156 396.148438 C 617.308594 396.148438 613.277344 400.179688 613.277344 405.152344 C 613.277344 410.125 617.308594 414.15625 622.285156 414.15625 C 623.667969 414.15625 624.945312 413.789062 626.117188 413.230469 L 655.304688 442.410156 L 655.304688 475.933594 L 583.261719 547.960938 L 583.261719 576.824219 C 579.78125 578.070312 577.261719 581.316406 577.261719 585.222656 C 577.261719 590.195312 581.292969 594.226562 586.265625 594.226562 C 591.238281 594.226562 595.269531 590.195312 595.269531 585.222656 C 595.269531 581.3125 592.746094 578.066406 589.261719 576.824219 L 589.261719 550.453125 L 661.304688 478.421875 L 661.304688 439.925781 L 630.359375 408.984375 C 630.921875 407.8125 631.289062 406.539062 631.289062 405.152344 C 631.289062 400.179688 627.257812 396.148438 622.285156 396.148438 Z M 622.285156 396.148438 " fill-opacity="1" fill-rule="nonzero"/><path fill="#3a7cc3" d="M 9.964844 558.210938 C 14.941406 558.210938 18.972656 554.179688 18.972656 549.207031 C 18.972656 547.824219 18.601562 546.546875 18.042969 545.375 L 83.246094 480.179688 L 109.625 480.179688 C 110.867188 483.660156 114.113281 486.183594 118.023438 486.183594 C 122.996094 486.183594 127.027344 482.152344 127.027344 477.179688 C 127.027344 472.207031 122.996094 468.175781 118.023438 468.175781 C 114.113281 468.175781 110.871094 470.699219 109.625 474.179688 L 80.765625 474.179688 L 13.796875 541.128906 C 12.625 540.574219 11.351562 540.203125 9.964844 540.203125 C 4.992188 540.203125 0.960938 544.234375 0.960938 549.207031 C 0.960938 554.179688 4.992188 558.210938 9.964844 558.210938 Z M 9.964844 558.210938 " fill-opacity="1" fill-rule="nonzero"/><path fill="#3a7cc3" d="M 769.355469 629.632812 C 772.839844 628.390625 775.363281 625.144531 775.363281 621.234375 C 775.363281 616.261719 771.332031 612.230469 766.359375 612.230469 C 761.386719 612.230469 757.351562 616.261719 757.351562 621.234375 C 757.351562 625.144531 759.875 628.386719 763.355469 629.632812 L 763.355469 692.023438 L 734.167969 721.199219 C 732.996094 720.640625 731.722656 720.273438 730.339844 720.273438 C 725.367188 720.273438 721.335938 724.304688 721.335938 729.277344 C 721.335938 734.25 725.367188 738.28125 730.339844 738.28125 C 735.3125 738.28125 739.34375 734.25 739.34375 729.277344 C 739.34375 727.890625 738.976562 726.617188 738.417969 725.445312 L 769.355469 694.503906 Z M 769.355469 629.632812 " fill-opacity="1" fill-rule="nonzero"/><path fill="#3a7cc3" d="M 36.980469 801.304688 C 36.980469 806.277344 41.011719 810.308594 45.984375 810.308594 C 50.957031 810.308594 54.988281 806.277344 54.988281 801.304688 C 54.988281 797.398438 52.46875 794.152344 48.992188 792.90625 L 48.992188 737.671875 C 52.46875 736.425781 54.988281 733.183594 54.988281 729.277344 C 54.988281 724.304688 50.957031 720.273438 45.984375 720.273438 C 41.011719 720.273438 36.980469 724.304688 36.980469 729.277344 C 36.980469 733.1875 39.507812 736.429688 42.988281 737.675781 L 42.988281 792.90625 C 39.507812 794.148438 36.980469 797.394531 36.980469 801.304688 Z M 36.980469 801.304688 " fill-opacity="1" fill-rule="nonzero"/><path fill="#3a7cc3" d="M 1054.507812 810.308594 C 1059.480469 810.308594 1063.511719 806.277344 1063.511719 801.304688 C 1063.511719 796.332031 1059.480469 792.300781 1054.507812 792.300781 C 1050.601562 792.300781 1047.355469 794.820312 1046.109375 798.300781 L 846.792969 798.300781 C 845.546875 794.820312 842.304688 792.300781 838.394531 792.300781 C 833.421875 792.300781 829.390625 796.332031 829.390625 801.304688 C 829.390625 806.277344 833.421875 810.308594 838.394531 810.308594 C 842.304688 810.308594 845.550781 807.78125 846.796875 804.300781 L 1046.109375 804.300781 C 1047.351562 807.78125 1050.597656 810.308594 1054.507812 810.308594 Z M 1054.507812 810.308594 " fill-opacity="1" fill-rule="nonzero"/><path fill="#3a7cc3" d="M 9.964844 126.046875 C 11.351562 126.046875 12.625 125.679688 13.796875 125.121094 L 42.988281 154.300781 L 42.988281 252.699219 C 39.507812 253.945312 36.980469 257.191406 36.980469 261.097656 C 36.980469 266.070312 41.011719 270.101562 45.984375 270.101562 C 50.957031 270.101562 54.988281 266.070312 54.988281 261.097656 C 54.988281 257.191406 52.46875 253.949219 48.992188 252.703125 L 48.992188 151.8125 L 18.042969 120.875 C 18.601562 119.703125 18.972656 118.429688 18.972656 117.042969 C 18.972656 112.070312 14.941406 108.042969 9.964844 108.042969 C 4.992188 108.042969 0.960938 112.070312 0.960938 117.042969 C 0.960938 122.015625 4.992188 126.046875 9.964844 126.046875 Z M 9.964844 126.046875 " fill-opacity="1" fill-rule="nonzero"/><path fill="#3a7cc3" d="M 226.078125 558.210938 C 231.050781 558.210938 235.082031 554.179688 235.082031 549.207031 C 235.082031 544.234375 231.050781 540.203125 226.078125 540.203125 C 222.171875 540.203125 218.925781 542.726562 217.679688 546.207031 L 116.78125 546.207031 L 49.820312 613.160156 C 48.644531 612.601562 47.371094 612.230469 45.984375 612.230469 C 41.011719 612.230469 36.980469 616.261719 36.980469 621.234375 C 36.980469 626.207031 41.011719 630.238281 45.984375 630.238281 C 50.957031 630.238281 54.988281 626.207031 54.988281 621.234375 C 54.988281 619.851562 54.621094 618.578125 54.0625 617.40625 L 119.261719 552.207031 L 217.679688 552.207031 C 218.925781 555.6875 222.171875 558.210938 226.078125 558.210938 Z M 226.078125 558.210938 " fill-opacity="1" fill-rule="nonzero"/><path fill="#3a7cc3" d="M 126.421875 300.117188 L 181.664062 300.117188 C 182.90625 303.59375 186.152344 306.117188 190.058594 306.117188 C 195.03125 306.117188 199.066406 302.085938 199.066406 297.113281 C 199.066406 292.140625 195.03125 288.109375 190.058594 288.109375 C 186.152344 288.109375 182.90625 290.632812 181.660156 294.113281 L 126.421875 294.113281 C 125.175781 290.632812 121.933594 288.109375 118.023438 288.109375 C 113.050781 288.109375 109.019531 292.140625 109.019531 297.113281 C 109.019531 302.085938 113.050781 306.117188 118.023438 306.117188 C 121.929688 306.117188 125.175781 303.59375 126.421875 300.117188 Z M 126.421875 300.117188 " fill-opacity="1" fill-rule="nonzero"/><path fill="#3a7cc3" d="M 487.214844 369.140625 C 487.214844 364.167969 483.183594 360.136719 478.210938 360.136719 C 473.234375 360.136719 469.203125 364.167969 469.203125 369.140625 C 469.203125 373.046875 471.730469 376.292969 475.210938 377.539062 L 475.210938 442.40625 L 506.152344 473.347656 C 505.59375 474.523438 505.222656 475.796875 505.222656 477.179688 C 505.222656 482.152344 509.253906 486.183594 514.226562 486.183594 C 519.199219 486.183594 523.230469 482.152344 523.230469 477.179688 C 523.230469 472.207031 519.199219 468.175781 514.226562 468.175781 C 512.84375 468.175781 511.570312 468.546875 510.398438 469.105469 L 481.210938 439.921875 L 481.210938 377.539062 C 484.691406 376.292969 487.214844 373.046875 487.214844 369.140625 Z M 487.214844 369.140625 " fill-opacity="1" fill-rule="nonzero"/><path fill="#3a7cc3" d="M 522.625 510.195312 C 521.382812 506.714844 518.136719 504.191406 514.226562 504.191406 C 509.253906 504.191406 505.222656 508.222656 505.222656 513.195312 C 505.222656 518.167969 509.253906 522.199219 514.226562 522.199219 C 518.136719 522.199219 521.382812 519.675781 522.625 516.195312 L 551.484375 516.195312 L 618.453125 449.246094 C 619.625 449.804688 620.898438 450.171875 622.285156 450.171875 C 627.257812 450.171875 631.289062 446.140625 631.289062 441.167969 C 631.289062 436.195312 627.257812 432.164062 622.285156 432.164062 C 617.308594 432.164062 613.277344 436.195312 613.277344 441.167969 C 613.277344 442.554688 613.648438 443.828125 614.207031 445 L 549.003906 510.195312 Z M 522.625 510.195312 " fill-opacity="1" fill-rule="nonzero"/><path fill="#3a7cc3" d="M 361.148438 621.234375 C 361.148438 626.207031 365.179688 630.238281 370.152344 630.238281 C 374.0625 630.238281 377.308594 627.714844 378.550781 624.238281 L 404.925781 624.238281 L 470.128906 689.433594 C 469.574219 690.605469 469.203125 691.878906 469.203125 693.261719 C 469.203125 698.234375 473.234375 702.265625 478.210938 702.265625 C 483.183594 702.265625 487.214844 698.234375 487.214844 693.261719 C 487.214844 688.289062 483.183594 684.257812 478.210938 684.257812 C 476.824219 684.257812 475.550781 684.628906 474.378906 685.183594 L 407.410156 618.234375 L 378.550781 618.234375 C 377.308594 614.753906 374.0625 612.230469 370.152344 612.230469 C 365.179688 612.230469 361.148438 616.261719 361.148438 621.234375 Z M 361.148438 621.234375 " fill-opacity="1" fill-rule="nonzero"/><path fill="#3a7cc3" d="M 126.421875 618.234375 C 125.175781 614.753906 121.929688 612.230469 118.023438 612.230469 C 113.050781 612.230469 109.019531 616.261719 109.019531 621.234375 C 109.019531 626.207031 113.050781 630.238281 118.023438 630.238281 C 121.929688 630.238281 125.175781 627.714844 126.421875 624.238281 L 155.28125 624.238281 L 186.226562 593.296875 C 187.402344 593.855469 188.675781 594.226562 190.058594 594.226562 C 195.03125 594.226562 199.066406 590.195312 199.066406 585.222656 C 199.066406 580.25 195.03125 576.21875 190.058594 576.21875 C 185.085938 576.21875 181.054688 580.25 181.054688 585.222656 C 181.054688 586.605469 181.421875 587.878906 181.984375 589.050781 L 152.800781 618.234375 Z M 126.421875 618.234375 " fill-opacity="1" fill-rule="nonzero"/><path fill="#3a7cc3" d="M 0.960938 297.113281 C 0.960938 302.085938 4.992188 306.117188 9.964844 306.117188 C 14.941406 306.117188 18.972656 302.085938 18.972656 297.113281 C 18.972656 293.203125 16.445312 289.957031 12.964844 288.714844 L 12.964844 161.457031 C 16.445312 160.210938 18.972656 156.96875 18.972656 153.058594 C 18.972656 148.085938 14.941406 144.054688 9.964844 144.054688 C 4.992188 144.054688 0.960938 148.085938 0.960938 153.058594 C 0.960938 156.964844 3.484375 160.207031 6.960938 161.453125 L 6.960938 288.714844 C 3.484375 289.960938 0.960938 293.207031 0.960938 297.113281 Z M 0.960938 297.113281 " fill-opacity="1" fill-rule="nonzero"/><path fill="#3a7cc3" d="M 469.808594 480.179688 C 471.054688 483.660156 474.300781 486.183594 478.210938 486.183594 C 483.183594 486.183594 487.214844 482.152344 487.214844 477.179688 C 487.214844 472.207031 483.183594 468.175781 478.210938 468.175781 C 474.300781 468.175781 471.054688 470.699219 469.8125 474.179688 L 440.953125 474.179688 L 410.003906 505.117188 C 408.828125 504.558594 407.554688 504.191406 406.171875 504.191406 C 401.199219 504.191406 397.167969 508.222656 397.167969 513.195312 C 397.167969 518.167969 401.199219 522.199219 406.171875 522.199219 C 411.144531 522.199219 415.175781 518.167969 415.175781 513.195312 C 415.175781 511.808594 414.808594 510.535156 414.25 509.363281 L 443.433594 480.179688 Z M 469.808594 480.179688 " fill-opacity="1" fill-rule="nonzero"/><path fill="#3a7cc3" d="M 838.394531 486.183594 C 839.78125 486.183594 841.058594 485.816406 842.230469 485.253906 L 873.175781 516.195312 L 938.054688 516.195312 C 939.300781 519.675781 942.542969 522.199219 946.453125 522.199219 C 951.425781 522.199219 955.457031 518.167969 955.457031 513.195312 C 955.457031 508.222656 951.425781 504.191406 946.453125 504.191406 C 942.542969 504.191406 939.296875 506.714844 938.050781 510.195312 L 875.65625 510.195312 L 846.472656 481.011719 C 847.03125 479.839844 847.398438 478.566406 847.398438 477.179688 C 847.398438 472.207031 843.367188 468.175781 838.394531 468.175781 C 833.421875 468.175781 829.390625 472.207031 829.390625 477.179688 C 829.390625 482.152344 833.421875 486.183594 838.394531 486.183594 Z M 838.394531 486.183594 " fill-opacity="1" fill-rule="nonzero"/><path fill="#3a7cc3" d="M 126.421875 762.289062 C 125.175781 758.808594 121.929688 756.285156 118.023438 756.285156 C 113.050781 756.285156 109.019531 760.316406 109.019531 765.289062 C 109.019531 770.261719 113.050781 774.292969 118.023438 774.292969 C 121.933594 774.292969 125.175781 771.769531 126.421875 768.289062 L 155.28125 768.289062 L 186.230469 737.351562 C 187.402344 737.910156 188.675781 738.28125 190.058594 738.28125 C 195.03125 738.28125 199.066406 734.25 199.066406 729.277344 C 199.066406 724.304688 195.03125 720.273438 190.058594 720.273438 C 185.085938 720.273438 181.054688 724.304688 181.054688 729.277344 C 181.054688 730.660156 181.421875 731.933594 181.980469 733.101562 L 152.800781 762.289062 Z M 126.421875 762.289062 " fill-opacity="1" fill-rule="nonzero"/><path fill="#3a7cc3" d="M 842.226562 685.1875 C 841.054688 684.628906 839.78125 684.257812 838.394531 684.257812 C 833.421875 684.257812 829.390625 688.289062 829.390625 693.261719 C 829.390625 698.234375 833.421875 702.265625 838.394531 702.265625 C 843.367188 702.265625 847.398438 698.234375 847.398438 693.261719 C 847.398438 691.878906 847.03125 690.605469 846.476562 689.4375 L 877.417969 658.488281 L 877.417969 629.632812 C 880.898438 628.386719 883.417969 625.144531 883.417969 621.234375 C 883.417969 616.261719 879.386719 612.230469 874.414062 612.230469 C 869.441406 612.230469 865.410156 616.261719 865.410156 621.234375 C 865.410156 625.144531 867.933594 628.386719 871.414062 629.632812 L 871.414062 656.007812 Z M 842.226562 685.1875 " fill-opacity="1" fill-rule="nonzero"/><path fill="#3a7cc3" d="M 397.167969 477.179688 C 397.167969 482.152344 401.199219 486.183594 406.171875 486.183594 C 411.144531 486.183594 415.175781 482.152344 415.175781 477.179688 C 415.175781 473.273438 412.652344 470.027344 409.167969 468.78125 L 409.167969 377.539062 C 412.652344 376.292969 415.175781 373.050781 415.175781 369.140625 C 415.175781 364.167969 411.144531 360.136719 406.171875 360.136719 C 401.199219 360.136719 397.167969 364.167969 397.167969 369.140625 C 397.167969 373.046875 399.6875 376.289062 403.167969 377.535156 L 403.167969 468.785156 C 399.6875 470.03125 397.167969 473.273438 397.167969 477.179688 Z M 397.167969 477.179688 " fill-opacity="1" fill-rule="nonzero"/><path fill="#3a7cc3" d="M 45.984375 18.007812 C 47.371094 18.007812 48.644531 17.636719 49.816406 17.078125 L 80.765625 48.019531 L 109.625 48.019531 C 110.871094 51.496094 114.113281 54.019531 118.023438 54.019531 C 122.996094 54.019531 127.027344 49.988281 127.027344 45.015625 C 127.027344 40.042969 122.996094 36.015625 118.023438 36.015625 C 114.113281 36.015625 110.867188 38.535156 109.625 42.015625 L 83.246094 42.015625 L 54.0625 12.832031 C 54.621094 11.660156 54.988281 10.386719 54.988281 9.003906 C 54.988281 4.03125 50.957031 0 45.984375 0 C 41.011719 0 36.980469 4.03125 36.980469 9.003906 C 36.980469 13.976562 41.011719 18.007812 45.984375 18.007812 Z M 45.984375 18.007812 " fill-opacity="1" fill-rule="nonzero"/><path fill="#3a7cc3" d="M 586.265625 432.164062 C 582.355469 432.164062 579.113281 434.6875 577.867188 438.164062 L 522.625 438.164062 C 521.382812 434.6875 518.136719 432.164062 514.226562 432.164062 C 509.253906 432.164062 505.222656 436.195312 505.222656 441.167969 C 505.222656 446.140625 509.253906 450.171875 514.226562 450.171875 C 518.136719 450.171875 521.382812 447.648438 522.625 444.167969 L 577.867188 444.167969 C 579.113281 447.648438 582.355469 450.171875 586.265625 450.171875 C 591.238281 450.171875 595.269531 446.140625 595.269531 441.167969 C 595.269531 436.195312 591.238281 432.164062 586.265625 432.164062 Z M 586.265625 432.164062 " fill-opacity="1" fill-rule="nonzero"/></svg>