<svg xmlns="http://www.w3.org/2000/svg" xmlns:xlink="http://www.w3.org/1999/xlink" width="1920" zoomAndPan="magnify" viewBox="0 0 1440 809.999993" height="1080" preserveAspectRatio="xMidYMid meet" version="1.0"><defs><clipPath id="977efc3d7e"><path d="M 0 352.800781 L 1440 352.800781 L 1440 810 L 0 810 Z M 0 352.800781 " clip-rule="nonzero"/></clipPath></defs><g clip-path="url(#977efc3d7e)"><path fill="#000000" d="M 197.214844 648.992188 C 187.082031 653.3125 175.957031 658.054688 164.535156 662.921875 C 165.523438 664.671875 166.425781 668.117188 168.664062 669.804688 C 171.683594 672.089844 175.457031 672.796875 173.714844 678.179688 C 172.382812 682.351562 172.277344 686.925781 171.488281 692.25 C 180.421875 677.238281 188.972656 662.847656 197.214844 648.992188 Z M 620.855469 508.234375 C 611.394531 511.5 601.855469 514.597656 592.476562 518.089844 C 586.984375 520.140625 581.765625 525.367188 575.949219 516.960938 C 578.207031 511.171875 580.195312 504.09375 583.609375 497.785156 C 588.3125 489.097656 594.132812 481.003906 599.355469 472.578125 C 599.898438 471.703125 599.617188 470.320312 599.703125 469.171875 C 599.890625 466.367188 599.449219 463.328125 600.390625 460.796875 C 602.75 454.46875 605.730469 448.378906 608.460938 442.1875 C 607.921875 441.90625 607.386719 441.621094 606.851562 441.339844 C 601.59375 443.578125 596.382812 445.941406 591.058594 448.011719 C 589.421875 448.652344 587.484375 448.570312 585.675781 448.671875 C 584.011719 448.765625 581.847656 447.976562 580.765625 448.777344 C 576.675781 451.757812 572.386719 454.789062 569.234375 458.667969 C 566.714844 461.785156 562.539062 463.441406 561.585938 468.25 C 561.117188 470.632812 557.75 472.34375 556.019531 474.605469 C 553.96875 477.277344 551.128906 480.0625 550.734375 483.085938 C 550.320312 486.199219 552.417969 489.65625 553.488281 493.203125 C 552.640625 493.957031 550.84375 494.757812 550.554688 495.933594 C 548.785156 503.105469 547.148438 510.335938 545.851562 517.621094 C 542.953125 533.980469 540.308594 550.375 537.488281 566.753906 C 536.914062 570.09375 536.113281 573.40625 535.15625 576.664062 C 534.835938 577.757812 533.207031 579.535156 532.984375 579.421875 C 526.390625 576.023438 526.03125 583.074219 523.164062 584.695312 C 525.34375 588.535156 527.3125 591.980469 529.265625 595.433594 C 532.050781 600.335938 535.304688 605.054688 537.480469 610.222656 C 539.085938 614.050781 538.804688 614.335938 542.089844 612.226562 C 544.769531 610.511719 547.683594 609.109375 550.628906 607.894531 C 554.945312 606.097656 559.828125 605.296875 563.675781 602.839844 C 576.449219 594.691406 585.308594 582.511719 592.9375 569.964844 C 599.898438 558.5 606.457031 546.695312 608.488281 532.5 C 609.691406 524.085938 616.464844 516.460938 620.855469 508.234375 Z M 1271.710938 708.507812 C 1266.378906 707.480469 1261.042969 706.445312 1255.382812 705.355469 C 1257.234375 708.667969 1258.738281 711.359375 1260.394531 714.324219 C 1257.855469 714.84375 1255.71875 715.285156 1254.875 715.453125 C 1251.253906 711.519531 1248.488281 707.359375 1244.695312 704.609375 C 1237.566406 699.453125 1229.84375 695.132812 1222.402344 690.417969 C 1221.125 689.597656 1219.902344 688.628906 1218.828125 687.546875 C 1208.472656 677.117188 1196.375 667.824219 1188.410156 655.796875 C 1182.867188 647.449219 1176.828125 646.769531 1169.144531 646.101562 C 1160.566406 645.359375 1151.941406 644.878906 1143.425781 643.664062 C 1139.308594 643.082031 1135.414062 641.007812 1131.367188 639.757812 C 1129.234375 639.097656 1126.835938 638.007812 1124.820312 638.421875 C 1119.542969 639.53125 1117.070312 636.585938 1114.21875 633 C 1108.152344 625.347656 1101.824219 617.890625 1095.285156 610.644531 C 1090.335938 605.175781 1084.984375 600.074219 1079.671875 594.953125 C 1070.546875 586.152344 1060.257812 585.824219 1049.355469 591.152344 C 1038.621094 596.402344 1027.917969 601.738281 1017.230469 607.085938 C 1013.027344 609.195312 1008.257812 607.511719 1006.300781 603.058594 C 1000.675781 590.246094 995.050781 577.445312 989.464844 564.636719 C 988.9375 563.429688 988.523438 562.140625 988.296875 560.851562 C 986.40625 550.066406 976.023438 543.269531 965.269531 546.074219 C 963.8125 546.460938 962.28125 547.890625 961.480469 549.246094 C 956.464844 557.734375 952.316406 566.808594 946.636719 574.792969 C 938.125 586.746094 934.089844 601.109375 925.191406 612.78125 C 923.394531 615.144531 922.039062 617.855469 921.324219 619.03125 C 932.234375 618.496094 945.734375 617.863281 959.230469 617.140625 C 963.625 616.902344 968.074219 616.742188 972.371094 615.898438 C 976.660156 615.058594 978.457031 618.296875 980.714844 620.480469 C 981.074219 620.828125 978.449219 624.125 977.367188 626.148438 C 975.757812 629.140625 974.007812 632.105469 972.824219 635.269531 C 968.507812 646.789062 964.152344 658.308594 960.277344 669.980469 C 955.289062 685.070312 950.8125 700.320312 945.976562 715.453125 C 944.671875 719.566406 944.425781 722.785156 948.179688 726.15625 C 950.484375 728.234375 950.839844 732.332031 952.816406 734.976562 C 958.085938 742.054688 963.417969 749.140625 969.316406 755.691406 C 983.8125 771.816406 1003.609375 780.15625 1021.867188 790.726562 C 1029.121094 794.925781 1036.496094 798.933594 1043.636719 803.332031 C 1044.660156 803.960938 1045.066406 806.324219 1044.941406 807.8125 C 1044.867188 808.714844 1043.097656 810.265625 1042.28125 810.15625 C 1039.703125 809.789062 1036.976562 809.214844 1034.726562 807.941406 C 1022.152344 800.863281 1010.015625 792.910156 997.046875 786.6875 C 992.652344 784.582031 989.484375 783.761719 988.832031 778.386719 C 988.671875 777.070312 984.769531 775.214844 982.652344 775.289062 C 975.738281 775.554688 972.0625 770.789062 967.460938 767.0625 C 962.328125 762.902344 956.65625 759.390625 951.21875 755.597656 C 950.457031 755.070312 949.503906 754.667969 948.980469 753.960938 C 945.199219 748.878906 941.59375 743.652344 937.757812 738.617188 C 934.050781 733.753906 933.769531 732.539062 935.339844 725.742188 C 935.566406 724.734375 935.1875 723.40625 934.671875 722.457031 C 931.398438 716.5 934.390625 711.105469 935.800781 705.4375 C 937.382812 699.074219 937.972656 692.46875 939.449219 686.066406 C 941.257812 678.21875 943.230469 670.394531 945.660156 662.722656 C 948.660156 653.207031 952.1875 643.871094 955.667969 633.929688 C 948.3125 634.515625 941.179688 635.117188 934.050781 635.636719 C 916.554688 636.914062 901.945312 644.585938 888.976562 655.917969 C 888.121094 656.664062 887.167969 657.640625 886.152344 657.78125 C 884.320312 658.035156 882.410156 657.746094 880.527344 657.6875 C 881.019531 655.703125 881.019531 653.40625 882.070312 651.796875 C 884.863281 647.523438 888.089844 643.523438 891.167969 639.429688 C 893.707031 636.066406 896.632812 632.933594 898.75 629.328125 C 902.792969 622.4375 906.253906 615.210938 910.207031 608.261719 C 916.507812 597.175781 923.703125 586.539062 929.226562 575.09375 C 934.109375 564.945312 940.898438 555.535156 942.054688 543.617188 C 942.527344 538.683594 945.753906 534.015625 947.726562 529.214844 C 947.359375 528.894531 946.984375 528.566406 946.609375 528.246094 C 942.734375 530.742188 939.054688 533.640625 934.945312 535.671875 C 925.273438 540.472656 915.105469 544.332031 905.691406 549.546875 C 895.371094 555.261719 885.070312 561.3125 875.882812 568.617188 C 866.183594 576.316406 860.445312 587.519531 854.183594 598.164062 C 847.285156 609.882812 839.574219 621.121094 832.011719 632.433594 C 825.171875 642.667969 818.589844 653.152344 810.914062 662.734375 C 802.683594 673.003906 793.40625 682.472656 784.359375 692.0625 C 780.339844 696.328125 776.003906 700.394531 771.332031 703.90625 C 766.691406 707.398438 761.625 710.417969 756.441406 713.015625 C 749.140625 716.667969 741.316406 719.292969 734.175781 723.210938 C 728.285156 726.449219 723.425781 725.328125 717.609375 721.902344 C 725.183594 716.648438 732.3125 711.71875 739.28125 706.886719 C 737.644531 705.75 735.464844 704.300781 733.355469 702.757812 C 725.878906 697.257812 726.085938 697.476562 719.085938 703.726562 C 716.21875 706.296875 712.191406 707.539062 708.804688 709.589844 C 697.78125 716.261719 686.910156 723.191406 675.769531 729.667969 C 671.359375 732.238281 666.328125 733.714844 661.71875 735.972656 C 652.425781 740.511719 643.292969 745.386719 633.960938 749.847656 C 621.507812 755.796875 608.949219 761.546875 596.371094 767.261719 C 589.148438 770.546875 581.960938 774.066406 574.445312 776.550781 C 569.929688 778.046875 564.898438 780.882812 559.914062 776.832031 C 559.300781 776.34375 557.457031 777.390625 556.179688 777.699219 C 549.40625 779.328125 547.589844 778.320312 544.835938 770.753906 C 549.453125 769.652344 554.578125 769.585938 558.351562 767.296875 C 568.132812 761.359375 578.941406 760.003906 589.757812 758.007812 C 594.152344 757.199219 598.421875 755.277344 602.515625 753.359375 C 624.714844 742.996094 647.296875 733.414062 667.382812 718.9375 C 682.300781 708.179688 697.847656 698.277344 713.019531 687.855469 C 716.171875 685.699219 718.945312 682.988281 721.816406 680.4375 C 728.445312 674.546875 730 674.207031 736.722656 679.695312 C 742.398438 684.328125 747.457031 689.710938 753.015625 694.5 C 754.15625 695.480469 756.496094 695.980469 757.925781 695.535156 C 765.546875 693.136719 770.746094 687.722656 775.328125 681.351562 C 777.671875 678.09375 781.09375 675.636719 784 672.777344 C 786.304688 670.507812 788.675781 668.289062 790.820312 665.867188 C 794.921875 661.246094 799.078125 656.652344 802.851562 651.777344 C 808.128906 644.945312 813.09375 637.875 818.15625 630.882812 C 818.699219 630.136719 818.765625 628.660156 819.398438 628.425781 C 829.839844 624.585938 832.6875 614.703125 837.0625 606.144531 C 842.140625 596.222656 846.5625 585.945312 851.8125 576.117188 C 854.339844 571.402344 859.488281 567.796875 861.058594 562.921875 C 863.890625 554.121094 870.378906 551.355469 877.867188 548.125 C 890.207031 542.808594 901.964844 536.152344 914.042969 530.222656 C 917.550781 528.5 921.316406 527.296875 925.105469 525.789062 C 912.265625 515.277344 899.546875 504.867188 886.839844 494.453125 C 886.566406 494.757812 886.304688 495.058594 886.03125 495.367188 C 888.75 500.894531 891.742188 506.304688 894.054688 512.007812 C 895.042969 514.429688 894.609375 517.429688 894.921875 521.328125 C 891.796875 524.574219 889.050781 524.046875 886.558594 518.945312 C 882.242188 510.117188 878.507812 500.808594 872.890625 492.863281 C 865.167969 481.964844 855.988281 472.070312 847.230469 461.933594 C 846.09375 460.617188 843.757812 459.855469 841.925781 459.742188 C 837.003906 459.441406 832.058594 459.636719 825.832031 459.636719 C 827.851562 462.902344 829.339844 465.332031 830.855469 467.742188 C 837.4375 478.207031 843.851562 488.769531 850.664062 499.085938 C 856.25 507.527344 862.414062 515.605469 868.054688 524.019531 C 869.007812 525.441406 869.175781 527.953125 868.667969 529.648438 C 867.679688 532.914062 865.695312 532.660156 863.796875 530.089844 C 859.664062 524.492188 855.988281 518.464844 851.257812 513.429688 C 846.429688 508.28125 840.578125 504.09375 834.175781 500.148438 C 835.800781 504.320312 837.851562 508.375 838.953125 512.679688 C 841.136719 521.148438 843.296875 529.695312 844.332031 538.347656 C 844.632812 540.851562 841.058594 543.816406 839.261719 546.574219 C 838.5 546.382812 837.738281 546.195312 836.96875 546 C 835.792969 540.566406 834.851562 535.070312 833.382812 529.714844 C 830.347656 518.578125 828.445312 506.804688 823.394531 496.640625 C 819.113281 488.046875 811.148438 481.25 804.601562 473.851562 C 798.175781 466.59375 790.792969 460.089844 785.121094 452.304688 C 780.210938 445.574219 774.800781 441.886719 766.46875 442.207031 C 759.507812 442.460938 752.535156 442.253906 744.757812 442.253906 C 745.21875 445.179688 745.019531 447.964844 746.09375 450.101562 C 750.4375 458.726562 754.632812 467.496094 759.910156 475.546875 C 764.578125 482.632812 770.539062 488.875 776.042969 495.394531 C 778.949219 498.839844 782.222656 501.984375 785.0625 505.488281 C 786.089844 506.757812 786.324219 508.667969 786.925781 510.277344 C 786.410156 510.785156 785.890625 511.292969 785.363281 511.800781 C 779.035156 507.90625 772.496094 504.308594 766.421875 500.054688 C 752.855469 490.539062 746.414062 475.496094 738.03125 462.046875 C 730.796875 450.441406 724.347656 438.355469 717.207031 426.695312 C 712.464844 418.964844 705.757812 414.429688 696.25 413.007812 C 685.402344 411.386719 677.117188 404.28125 669.667969 396.515625 C 665.472656 392.148438 661.539062 387.535156 656.601562 382.039062 C 651.617188 390.898438 646.761719 398.945312 642.5 407.292969 C 639.746094 412.6875 637.703125 418.46875 635.585938 424.160156 C 633.734375 429.132812 633.199219 434.890625 630.359375 439.128906 C 623.480469 449.359375 620.734375 461.246094 615.589844 472.136719 C 611.988281 479.769531 608.855469 487.628906 605.507812 495.40625 C 609.335938 495.40625 613.417969 496.375 616.785156 495.226562 C 627.882812 491.433594 638.699219 486.933594 647.242188 478.265625 C 653.703125 471.695312 654.398438 471.96875 661.164062 479.019531 C 666.601562 484.675781 672.261719 490.125 677.632812 495.847656 C 679.269531 497.578125 680.492188 499.800781 681.519531 501.996094 C 685.027344 509.515625 692.710938 510.703125 699.109375 513.816406 C 703.003906 515.707031 707.3125 516.960938 710.839844 519.371094 C 719.117188 525.007812 728.335938 526.703125 738.011719 527.457031 C 741.296875 527.699219 744.550781 528.828125 747.738281 529.808594 C 760.023438 533.613281 772.289062 537.5 784.535156 541.414062 C 786.859375 542.148438 789.089844 543.164062 791.273438 544.023438 C 789.597656 552.257812 789.257812 552.21875 781.207031 550.949219 C 775.554688 550.054688 769.703125 550.433594 764.023438 549.605469 C 748.792969 547.402344 733.621094 544.851562 718.410156 542.488281 C 717.300781 542.316406 716.125 542.582031 712.710938 542.761719 C 716.847656 547.722656 719.800781 551.683594 723.207031 555.203125 C 726.988281 559.109375 733.167969 561.085938 732.800781 568.183594 C 732.765625 568.945312 734.863281 569.699219 735.773438 570.640625 C 741.238281 576.269531 747.277344 581.484375 751.773438 587.808594 C 753.777344 590.625 752.339844 595.734375 753.007812 599.707031 C 753.882812 604.863281 755.105469 609.984375 756.523438 615.03125 C 758.746094 622.917969 761.246094 630.730469 763.625 638.582031 C 763.015625 639.070312 762.394531 639.570312 761.773438 640.058594 C 759.582031 638.015625 757.109375 636.179688 755.253906 633.855469 C 751.972656 629.734375 748.933594 625.394531 746.027344 621 C 741.71875 614.496094 737.824219 607.707031 733.347656 601.316406 C 731.578125 598.792969 728.832031 596.882812 726.3125 594.992188 C 724.121094 593.351562 720.976562 592.648438 719.332031 590.644531 C 712.71875 582.585938 703.972656 577.578125 694.601562 574.132812 C 683.8125 570.171875 674.070312 574.574219 665.679688 581.304688 C 662.28125 584.027344 661.070312 584.589844 658.539062 580.503906 C 655.527344 575.667969 650.808594 571.855469 647.964844 566.941406 C 642.972656 558.261719 638.832031 549.085938 634.335938 540.117188 C 634.074219 539.597656 633.546875 538.96875 633.667969 538.542969 C 635.371094 532.605469 637.175781 526.691406 637.703125 520.207031 C 637.222656 521.242188 636.875 522.363281 636.238281 523.285156 C 633.046875 527.839844 629.753906 532.3125 626.574219 536.859375 C 625.851562 537.902344 625.363281 539.128906 624.863281 540.304688 C 619.511719 553.199219 619.265625 566.96875 617.734375 580.5625 C 617.058594 586.519531 614.421875 592.269531 617.6875 598.238281 C 617.96875 598.726562 617.339844 599.953125 616.839844 600.609375 C 610.226562 609.203125 603.230469 617.515625 597.050781 626.402344 C 592.835938 632.472656 590.164062 639.605469 586.089844 645.792969 C 579.722656 655.4375 572.601562 664.589844 566.101562 674.152344 C 562.433594 679.542969 559.433594 685.390625 555.925781 690.914062 C 555.339844 691.835938 553.78125 692.542969 552.605469 692.636719 C 545.625 693.210938 538.625 693.597656 531.628906 694.019531 C 525.703125 694.378906 519.71875 694.371094 513.871094 695.226562 C 511.46875 695.574219 509.042969 697.449219 507.144531 699.1875 C 503.683594 702.359375 500.757812 706.125 497.34375 709.355469 C 484.21875 721.75 470.167969 733.300781 458.089844 746.628906 C 450.113281 755.4375 440.527344 761.105469 430.941406 767.28125 C 424.648438 771.335938 418.320312 775.394531 412.402344 779.96875 C 407.566406 783.695312 401.574219 785.25 396.214844 782.414062 C 401.90625 778.074219 407.152344 773.746094 412.742188 769.914062 C 416.34375 767.441406 420.726562 766.074219 424.234375 763.515625 C 426.898438 761.566406 428.5625 758.308594 430.988281 755.984375 C 446.546875 741.074219 462.5 726.578125 477.664062 711.292969 C 484.472656 704.421875 489.828125 696.082031 495.722656 688.328125 C 497.371094 686.160156 498.273438 685.8125 501.6875 686.019531 C 516.746094 686.960938 531.722656 685.492188 544.1875 675.269531 C 544.929688 674.660156 545.523438 673.757812 546.367188 673.378906 C 551.65625 671.035156 555.332031 667.617188 558.671875 662.453125 C 565.238281 652.296875 573.648438 643.351562 581.003906 633.6875 C 587.136719 625.628906 593.023438 617.375 598.621094 608.929688 C 600.050781 606.765625 600.191406 603.621094 600.539062 600.875 C 601.152344 596.128906 601.460938 591.347656 602.054688 584.808594 C 595.996094 594.539062 590.605469 602.617188 585.816406 611.03125 C 581.3125 618.945312 577.464844 627.238281 573.269531 635.34375 C 568.332031 644.898438 559.1875 650.148438 551.25 656.605469 C 548.429688 658.894531 545.464844 661.011719 542.183594 663.488281 C 537.996094 659.609375 533.914062 661.933594 529.605469 665.464844 C 528.515625 663.441406 527.6875 661.894531 527.375 661.3125 C 537.035156 653.433594 547.46875 647.183594 554.769531 638.347656 C 561.90625 629.703125 565.839844 618.417969 570.261719 607.285156 C 567.0625 609.917969 564.128906 613.015625 560.589844 615.078125 C 556.105469 617.714844 551.164062 619.605469 546.347656 621.65625 C 538.007812 625.222656 529.042969 627.71875 521.386719 632.386719 C 510.792969 638.84375 500.492188 646.160156 491.359375 654.507812 C 484.472656 660.8125 479.722656 669.4375 473.789062 676.832031 C 470.234375 681.25 464.664062 684.695312 462.765625 689.636719 C 459.667969 697.703125 453.234375 702.417969 448.089844 708.449219 C 441.488281 716.207031 434.800781 723.898438 427.980469 731.464844 C 418.195312 742.328125 408.074219 752.886719 398.453125 763.882812 C 391.851562 771.429688 386.335938 779.976562 379.425781 787.195312 C 373.507812 793.371094 366.5 798.578125 359.546875 803.621094 C 356.933594 805.523438 353.144531 805.871094 349.832031 806.664062 C 349.144531 806.824219 347.527344 805.835938 347.5 805.324219 C 347.453125 804.402344 348.0625 803.171875 348.804688 802.550781 C 355.925781 796.601562 363.40625 791.039062 370.234375 784.757812 C 374.722656 780.644531 378.378906 775.621094 382.265625 770.886719 C 390.710938 760.585938 399.253906 750.355469 407.398438 739.824219 C 413.804688 731.53125 419.449219 722.65625 425.855469 714.382812 C 431.714844 706.8125 438.542969 699.980469 444.253906 692.308594 C 450.941406 683.308594 456.792969 673.679688 463.214844 664.464844 C 465.199219 661.613281 465.398438 657.679688 470.871094 656.839844 C 473.808594 656.398438 475.839844 649.867188 478.210938 646.035156 C 478.832031 645.019531 478.90625 643.25 479.742188 642.835938 C 488.539062 638.429688 497.453125 634.289062 506.257812 629.910156 C 507.585938 629.242188 509.296875 627.886719 509.503906 626.628906 C 510.953125 617.789062 512.488281 608.929688 513.050781 600.015625 C 513.285156 596.289062 511.1875 592.421875 509.242188 588.664062 C 516.972656 573.125 528.082031 558.273438 529.324219 539.757812 C 530.480469 522.429688 538.035156 505.804688 535.910156 486.464844 C 529.652344 490.972656 526.746094 494.953125 526.679688 501.316406 C 526.632812 506.023438 526.039062 511.152344 524.039062 515.304688 C 519.070312 525.640625 519.109375 536.492188 518.855469 547.457031 C 518.742188 552.390625 517.921875 557.292969 517.425781 562.246094 C 511.828125 560.945312 507.472656 555.902344 507.445312 550.863281 C 507.40625 542.714844 507.433594 534.570312 507.433594 526.117188 C 488.460938 529.722656 474.859375 543.84375 456.679688 552.964844 C 467.730469 556.371094 472.734375 563.015625 476.703125 572.089844 C 480.128906 579.929688 487.015625 586.257812 492.460938 593.363281 C 488.800781 599.347656 487.210938 599.378906 482.375 593.757812 C 474.082031 584.136719 466.214844 574.019531 456.980469 565.398438 C 453.152344 561.820312 446.292969 561.351562 440.714844 559.835938 C 435.242188 558.355469 429.664062 557.285156 424.113281 556.144531 C 415.007812 554.28125 405.894531 552.445312 396.75 550.703125 C 393.035156 550 390.644531 553.511719 391.671875 557.632812 C 391.925781 558.648438 391.21875 559.890625 391.078125 560.53125 C 391.078125 564.917969 391.023438 568.992188 391.089844 573.070312 C 391.171875 578.144531 391.785156 583.246094 391.285156 588.25 C 391.089844 590.265625 388.546875 592.054688 386.828125 593.84375 C 388.324219 594.945312 391.398438 596.582031 387.570312 600.582031 C 386.894531 601.289062 388.785156 604.460938 390.035156 608.074219 C 387.9375 611.125 385.03125 615.945312 381.503906 620.234375 C 380.167969 621.855469 377.382812 622.277344 373.988281 623.839844 C 375.039062 624.480469 376.414062 625.335938 379.039062 626.957031 C 375.371094 628.414062 372.546875 629.535156 369.78125 630.628906 C 370.253906 630.898438 371.128906 631.390625 373.121094 632.519531 C 369.875 634.570312 366.828125 635.925781 364.523438 638.082031 C 361.175781 641.207031 358.550781 645.074219 355.289062 648.304688 C 352.664062 650.894531 349.785156 653.398438 346.605469 655.242188 C 340.03125 659.054688 341.554688 664.738281 342.277344 670.480469 C 342.578125 672.871094 341.816406 675.402344 342.25 677.746094 C 342.457031 678.886719 344.300781 679.714844 346.632812 681.765625 C 341.835938 685.746094 336.585938 688.902344 332.996094 693.382812 C 328.628906 698.859375 322.890625 702.4375 317.820312 706.898438 C 311.90625 712.113281 305.441406 716.707031 299.527344 721.921875 C 290.816406 729.589844 282.386719 737.582031 273.800781 745.394531 C 272.925781 746.195312 271.597656 747.476562 270.847656 747.257812 C 265.230469 745.679688 261.488281 748.972656 258.222656 752.371094 C 255.214844 755.503906 252.570312 757.058594 247.808594 757.480469 C 243.203125 757.886719 238.941406 762.167969 234.539062 764.757812 C 233.078125 765.613281 231.648438 766.515625 230.285156 767.347656 C 226.523438 763.46875 227.105469 759.261719 231.566406 755.769531 C 241.347656 748.117188 251.355469 740.726562 260.78125 732.660156 C 267.949219 726.53125 275.378906 720.273438 280.84375 712.722656 C 288.03125 702.792969 293.667969 691.675781 299.488281 680.804688 C 303.515625 673.292969 307.003906 665.453125 310.175781 657.539062 C 312.019531 652.917969 312.742188 647.851562 314.4375 641.160156 C 308.152344 646.328125 303.515625 654.214844 295.726562 645.535156 C 305.667969 643.871094 311.878906 637.066406 318.613281 630.851562 C 325.996094 624.039062 331.414062 616.359375 332.796875 605.957031 C 327.953125 608.574219 323.417969 611.019531 318.886719 613.46875 C 318.546875 613.648438 317.925781 613.695312 317.859375 613.929688 C 315.007812 623.710938 304.25 623.605469 298.351562 629.582031 C 294.683594 633.28125 291.125 637.167969 287.027344 640.332031 C 284.269531 642.460938 280.648438 643.457031 277.414062 644.960938 C 274.695312 646.222656 271.964844 647.484375 269.332031 649.820312 C 275.691406 650.582031 282.097656 651.15625 288.417969 652.183594 C 294.035156 653.105469 299.207031 654.949219 299.707031 662.515625 C 298.417969 662.414062 297.203125 662.347656 296 662.207031 C 293.261719 661.878906 290.128906 658.207031 288.011719 663.195312 C 287.917969 663.421875 287.296875 663.5625 286.949219 663.515625 C 282.640625 662.867188 277.957031 663.015625 274.121094 661.292969 C 268.722656 658.867188 263.714844 656.664062 257.648438 659.550781 C 258.128906 660.550781 258.710938 661.773438 259.371094 663.136719 C 258.46875 663.328125 257.78125 663.710938 257.375 663.515625 C 246.125 658.140625 234.765625 661.273438 223.4375 663.054688 C 223.0625 663.109375 222.667969 663.523438 222.367188 663.449219 C 209.488281 660.332031 205.433594 671.347656 198.773438 678.1875 C 192.546875 684.589844 186.59375 691.300781 179.972656 697.277344 C 176.546875 700.375 174.988281 702.390625 180.085938 705.277344 C 172.003906 710.078125 164.132812 714.296875 156.765625 719.246094 C 149.785156 723.933594 143.382812 729.449219 136.636719 734.484375 C 134.859375 735.8125 132.847656 736.925781 130.804688 737.800781 C 127.550781 739.210938 123.835938 739.804688 120.929688 741.6875 C 112.398438 747.183594 102.125 746.214844 93.09375 749.792969 C 86.417969 752.4375 79.457031 754.421875 72.503906 756.230469 C 70.875 756.664062 68.761719 755.203125 66.871094 754.609375 C 68.007812 753.066406 68.835938 750.628906 70.332031 750.109375 C 83.847656 745.433594 96.632812 738.777344 111.078125 736.445312 C 116.386719 735.585938 121.230469 731.058594 126.007812 727.792969 C 132.460938 723.390625 139.363281 719.304688 144.746094 713.769531 C 150.792969 707.546875 155.449219 699.941406 160.492188 692.777344 C 161.761719 690.972656 162.324219 688.617188 163.011719 686.453125 C 163.785156 684.035156 165.4375 679.808594 164.78125 679.394531 C 161.742188 677.464844 158.09375 675.882812 154.554688 675.65625 C 153.078125 675.5625 151.367188 679.148438 148.941406 682.03125 C 146.023438 682.425781 140.8125 676.035156 137.257812 683.421875 C 130.042969 677.710938 130.15625 677.898438 122.167969 682.605469 C 112.273438 688.449219 102.078125 693.796875 92.191406 699.667969 C 87.941406 702.191406 84.289062 705.730469 80.066406 708.339844 C 77.59375 709.863281 74.601562 710.710938 71.742188 711.425781 C 62.054688 713.824219 52.328125 716.066406 42.59375 718.238281 C 41.351562 718.523438 39.527344 718.558594 38.679688 717.855469 C 32.613281 712.828125 25.351562 711.980469 17.957031 711.304688 C 16.847656 711.199219 15.8125 710.285156 14.75 709.730469 C 11.296875 707.953125 7.796875 706.230469 4.402344 704.335938 C 2.839844 703.460938 1.46875 702.25 0 701.183594 C 0.292969 700.507812 0.59375 699.839844 0.882812 699.171875 C 5.671875 700.074219 10.507812 700.808594 15.246094 701.910156 C 23.542969 703.828125 31.726562 707.191406 40.070312 707.632812 C 46.835938 707.988281 54.113281 705.777344 60.566406 703.21875 C 71.640625 698.832031 82.804688 694.179688 92.90625 687.96875 C 104.355469 680.929688 114.832031 672.242188 125.433594 663.902344 C 131.351562 659.25 136.449219 653.574219 142.347656 648.898438 C 145.121094 646.695312 148.648438 645.039062 152.34375 648.644531 C 153.878906 650.148438 156.746094 651.128906 158.929688 650.996094 C 177.902344 649.886719 192.933594 639.003906 208.511719 629.941406 C 218.480469 624.140625 227.371094 621.554688 237.097656 629.855469 C 240.671875 632.914062 244.789062 635.597656 249.097656 637.421875 C 251.375 638.375 254.640625 637.367188 257.347656 636.753906 C 260.105469 636.144531 262.652344 634.503906 265.410156 634.042969 C 272.378906 632.894531 275.699219 626.75 280.941406 623.265625 C 289.378906 617.667969 298.078125 612.488281 306.449219 606.804688 C 308.5 605.410156 309.714844 602.765625 311.292969 600.675781 C 311.464844 600.460938 311.472656 599.894531 311.59375 599.894531 C 319.636719 599.265625 320.296875 591.140625 324.800781 586.953125 C 327.226562 584.710938 330.183594 583.046875 332.863281 581.089844 C 337.480469 577.71875 341.148438 574.125 342.503906 567.84375 C 343.265625 564.324219 347.394531 561.191406 350.585938 558.582031 C 357.742188 552.710938 365.53125 547.597656 372.5 541.527344 C 375.660156 538.777344 378.097656 534.75 379.773438 530.835938 C 381.953125 525.695312 387.523438 526.316406 389.402344 527.363281 C 393.984375 529.914062 399.574219 529.527344 403.722656 534.929688 C 407.152344 539.410156 415.542969 540.179688 421.820312 542.367188 C 427.179688 544.238281 432.609375 545.921875 438.101562 547.382812 C 439.625 547.785156 441.9375 547.703125 443.058594 546.796875 C 452.03125 539.691406 461.257812 532.800781 469.472656 524.875 C 475.210938 519.332031 479.367188 512.160156 484.464844 505.917969 C 487.042969 502.765625 490.15625 500.054688 493.023438 497.15625 C 493.636719 496.527344 494.3125 495.953125 494.886719 495.292969 C 499.523438 489.945312 505.007812 485.097656 508.507812 479.085938 C 511.675781 473.632812 518.882812 471.769531 519.925781 464.589844 C 520.3125 461.980469 527.460938 461.625 530.058594 463.175781 C 531.695312 464.15625 534 464.730469 535.871094 464.464844 C 545.90625 463.074219 553.402344 457.839844 560.269531 450.226562 C 566.734375 443.050781 575.347656 437.894531 582.675781 431.445312 C 587.765625 426.984375 591.875 421.367188 597.132812 417.148438 C 602.542969 412.820312 605.488281 406.652344 610.179688 401.902344 C 616.859375 395.152344 623.953125 388.796875 630.433594 381.859375 C 634.835938 377.136719 638.363281 371.609375 642.519531 366.640625 C 646.960938 361.332031 650.890625 355.363281 658.492188 352.945312 C 665.800781 361.003906 672.921875 369.964844 681.207031 377.683594 C 688.863281 384.828125 697.632812 390.8125 706.144531 396.988281 C 713.414062 402.257812 721.128906 406.925781 728.429688 412.160156 C 733.027344 415.464844 737.789062 414.644531 742.707031 413.816406 C 746.261719 413.222656 749.828125 412.585938 753.402344 412.140625 C 756.863281 411.726562 759.96875 412.160156 761.359375 416.152344 C 761.613281 416.894531 762.722656 417.6875 763.550781 417.828125 C 772.414062 419.34375 778.515625 426.335938 786.410156 429.40625 C 793.359375 432.113281 801.0625 433.179688 808.550781 434.128906 C 817.101562 435.222656 825.53125 436.105469 833.488281 439.9375 C 835.699219 441 839.121094 440.738281 841.558594 439.871094 C 847.34375 437.800781 849.429688 442.65625 852.195312 445.339844 C 858.875 451.816406 864.414062 459.542969 871.421875 465.605469 C 882.289062 474.988281 893.96875 483.453125 905.351562 492.242188 C 914.214844 499.085938 923.195312 505.777344 932.019531 512.679688 C 935.011719 515.011719 937.671875 515.238281 941.050781 513.394531 C 948.132812 509.542969 955.441406 506.097656 962.589844 502.371094 C 964.253906 501.503906 965.796875 500.28125 967.179688 498.992188 C 971.976562 494.511719 978.203125 494.746094 984.054688 493.65625 C 985.144531 493.457031 986.199219 492.988281 987.535156 492.542969 C 989.210938 494.964844 990.628906 497.730469 992.71875 499.828125 C 994.964844 502.089844 998.183594 503.398438 1000.375 505.695312 C 1003.800781 509.289062 1006.414062 513.675781 1009.914062 517.1875 C 1017.070312 524.398438 1024.484375 531.371094 1031.988281 538.222656 C 1046.183594 551.195312 1064.039062 558.414062 1080.160156 568.34375 C 1083.28125 570.265625 1088.042969 570.828125 1091.765625 570.253906 C 1107.355469 567.84375 1121.734375 562.007812 1135.074219 553.574219 C 1137.632812 551.957031 1140.800781 551.242188 1143.152344 549.425781 C 1146.644531 546.734375 1149.558594 543.304688 1152.917969 540.425781 C 1154.261719 539.269531 1156.117188 538.65625 1157.789062 537.933594 C 1161.769531 536.21875 1165.671875 533.613281 1169.8125 533.148438 C 1176.320312 532.425781 1183.046875 532.6875 1189.585938 533.421875 C 1197.945312 534.363281 1206.421875 535.484375 1214.464844 537.828125 C 1224.613281 540.785156 1234.234375 545.519531 1244.347656 548.605469 C 1254.816406 551.804688 1265.511719 554.347656 1276.261719 556.410156 C 1281.109375 557.339844 1284.351562 558.601562 1286.910156 563.308594 C 1289.1875 567.488281 1290.824219 572.703125 1296.402344 574.726562 C 1298.085938 575.335938 1298.714844 578.492188 1300.144531 580.230469 C 1303.148438 583.894531 1306.261719 587.480469 1309.515625 590.914062 C 1312.054688 593.597656 1315.035156 595.875 1317.578125 598.566406 C 1321.480469 602.699219 1324.441406 607.746094 1330.59375 609.355469 C 1332.324219 609.816406 1333.398438 612.40625 1335.054688 613.636719 C 1340.914062 618.035156 1346.894531 622.257812 1352.832031 626.550781 C 1353.453125 627.003906 1354.15625 627.410156 1354.628906 627.992188 C 1361.523438 636.625 1371.746094 639.53125 1381.117188 644.21875 C 1392.46875 649.894531 1404.539062 652.710938 1416.511719 656.117188 C 1422.15625 657.726562 1427.996094 658.648438 1433.59375 660.410156 C 1435.945312 661.152344 1437.875 663.234375 1440 664.710938 C 1439.785156 665.332031 1439.566406 665.960938 1439.351562 666.582031 C 1437.554688 666.726562 1435.652344 667.316406 1433.980469 666.933594 C 1413.457031 662.207031 1393.148438 656.832031 1373.675781 648.503906 C 1364.65625 644.652344 1354.9375 642.449219 1345.71875 638.984375 C 1338.25 636.179688 1331.1875 632.320312 1323.738281 629.449219 C 1310.691406 624.40625 1301.191406 614.589844 1290.863281 605.84375 C 1284.992188 600.875 1279.480469 595.453125 1273.328125 590.859375 C 1269.125 587.726562 1263.773438 586.144531 1259.519531 583.046875 C 1251.167969 576.976562 1242.9375 580.683594 1234.554688 582.339844 C 1232.617188 582.726562 1230.484375 582.652344 1228.535156 582.304688 C 1224.667969 581.617188 1220.777344 580.871094 1217.097656 579.59375 C 1215.019531 578.867188 1213.324219 577.003906 1210.589844 575.027344 C 1220.089844 573.304688 1228.121094 571.84375 1236.164062 570.386719 C 1236.25 569.90625 1236.34375 569.425781 1236.4375 568.945312 C 1234.566406 567.882812 1232.816406 566.347656 1230.800781 565.839844 C 1219.5625 563.027344 1208.332031 560.0625 1196.949219 557.941406 C 1190.234375 556.691406 1183.554688 557.21875 1177.128906 561.105469 C 1165.269531 568.257812 1153.085938 574.914062 1140.765625 581.269531 C 1134.113281 584.703125 1126.910156 587.074219 1119.214844 590.226562 C 1122.5625 591.554688 1125.367188 593.4375 1128.292969 593.683594 C 1140.125 594.679688 1149.429688 601.5625 1159.585938 606.4375 C 1162.332031 607.753906 1164.789062 609.703125 1167.582031 610.84375 C 1179.765625 615.839844 1183.554688 628.078125 1190.789062 637.339844 C 1199.714844 648.757812 1207.0625 661.378906 1218.800781 670.59375 C 1227.058594 677.078125 1234.246094 684.917969 1241.816406 692.261719 C 1248.582031 698.804688 1257.46875 700.542969 1265.859375 703.546875 C 1268.109375 704.347656 1273 703.179688 1271.710938 708.535156 L 1271.710938 708.507812 " fill-opacity="1" fill-rule="nonzero"/></g></svg>